<?xml version="1.0" encoding="utf-8"?>
<!-- Generator: Adobe Illustrator 21.0.0, SVG Export Plug-In . SVG Version: 6.00 Build 0)  -->
<svg version="1.1" xmlns="http://www.w3.org/2000/svg" xmlns:xlink="http://www.w3.org/1999/xlink" x="0px" y="0px"
	 viewBox="0 0 1024 1024" style="enable-background:new 0 0 1024 1024;" xml:space="preserve">
<style type="text/css">
	.st0{display:none;}
	.st1{display:inline;}
	.st2{opacity:0.25;}
	.st3{display:inline;opacity:0.25;}
	.st4{enable-background:new    ;}
	.st5{clip-path:url(#SVGID_3_);enable-background:new    ;}
	.st6{fill:url(#SVGID_4_);}
	.st7{fill:url(#SVGID_5_);}
	.st8{fill:url(#SVGID_6_);}
	.st9{fill:url(#SVGID_7_);}
	.st10{fill:url(#SVGID_8_);}
	.st11{fill:url(#SVGID_9_);}
	.st12{opacity:0.55;}
	.st13{fill:url(#SVGID_10_);}
	.st14{clip-path:url(#SVGID_15_);enable-background:new    ;}
	.st15{fill:url(#SVGID_16_);}
	.st16{fill:url(#SVGID_17_);}
	.st17{fill:url(#SVGID_18_);}
	.st18{fill:url(#SVGID_19_);}
	.st19{fill:url(#SVGID_22_);}
	.st20{fill:#FFFFFF;}
	.st21{fill:url(#SVGID_23_);}
	.st22{fill:url(#SVGID_24_);}
	.st23{fill:url(#SVGID_25_);}
	.st24{fill:url(#SVGID_26_);}
	.st25{fill:url(#SVGID_27_);}
	.st26{fill:url(#SVGID_28_);}
</style>
<g id="图层_1" class="st0">
	<g id="bg">
		<g id="图层_2" class="st1">
			<g id="图标参考线">
				<g id="图标尺寸" class="st2">
					<path d="M1018.2,5.8v1012.5H5.8V5.8H1018.2 M1024,0H0v1024h1024V0z"/>
					<path d="M512,28.8c266.9,0,483.2,216.4,483.2,483.2S778.9,995.2,512,995.2S28.8,778.9,28.8,512S245.1,28.8,512,28.8 M512,23
						C241.9,23,23,241.9,23,512s218.9,489,489,489s489-218.9,489-489C1000.7,242,782,23.3,512,23z"/>
					<path d="M949.2,74.8v874.4H74.8V74.8H949.2 M955,69H69v886h886V69z"/>
					<path d="M995.2,28.8v966.5H28.8V28.8H995.2 M1001,23H23v978h978V23z"/>
					<path d="M995.2,189.8v644.3H28.8V189.8H995.2 M1001,184.1H23v655.8h978V184.1z"/>
				</g>
			</g>
		</g>
	</g>
	<g id="图标尺寸_1_" class="st3">
		<g>
			<path d="M1017.1,4.6v1010.2H6.9V4.6L1017.1,4.6 M1021.7,0h-6.9H4.6H0v6.9v1010.2v6.9h6.9h1010.2h6.9v-6.9V6.9V0H1021.7z"/>
		</g>
		<g>
			<path d="M512,27.6c266.3,0,482.2,215.8,482.2,482.2S778.3,991.9,512,991.9S29.8,776.1,29.8,509.7S245.7,27.6,512,27.6 M512,23
				c-268.6,0-489,218.1-489,486.7s218.1,486.7,489,486.7s489-218.1,489-486.7S780.6,23,512,23L512,23z"/>
		</g>
		<g>
			<path d="M948.2,73.5V946H75.8V73.5L948.2,73.5 M952.8,68.9h-6.9H73.5h-4.6v6.9v872.5v6.9h6.9h872.5h6.9v-6.9V75.8v-6.9H952.8z"/>
		</g>
		<g>
			<path d="M994.1,27.6v964.3H29.8V27.6L994.1,27.6 M998.7,23h-6.9H27.5h-4.6v6.9v964.3v6.9h6.9h964.3h6.9v-6.9V29.9V23H998.7z"/>
		</g>
		<g>
			<path d="M994.1,188.3v642.9H29.8V188.3L994.1,188.3 M998.7,183.7h-6.9H27.5h-4.6v4.6v642.9v6.9h6.9h964.3h6.9v-6.9V188.3v-4.6
				H998.7z"/>
		</g>
	</g>
</g>
<g id="图层_2_1_">
	<g>
		<g class="st4">
			<g class="st4">
				<defs>
					<path id="SVGID_1_" class="st4" d="M912.4,633.8l-0.2,65.2c0,2.5-0.6,5.1-1.7,7.6l0.2-65.2
						C911.9,638.8,912.4,636.3,912.4,633.8z"/>
				</defs>
				<linearGradient id="SVGID_2_" gradientUnits="userSpaceOnUse" x1="910.5388" y1="670.1506" x2="912.4468" y2="670.1506">
					<stop  offset="0" style="stop-color:#00C692"/>
					<stop  offset="1" style="stop-color:#00AB7E"/>
				</linearGradient>
				<use xlink:href="#SVGID_1_"  style="overflow:visible;fill:url(#SVGID_2_);"/>
				<clipPath id="SVGID_3_">
					<use xlink:href="#SVGID_1_"  style="overflow:visible;"/>
				</clipPath>
				<g class="st5">
					<linearGradient id="SVGID_4_" gradientUnits="userSpaceOnUse" x1="912.2548" y1="666.5726" x2="912.4468" y2="666.5726">
						<stop  offset="0" style="stop-color:#00C692"/>
						<stop  offset="1" style="stop-color:#00AB7E"/>
					</linearGradient>
					<path class="st6" d="M912.4,633.8l-0.2,65.2c0,0.2,0,0.3,0,0.5l0.2-65.2C912.4,634.1,912.4,633.9,912.4,633.8"/>
					<linearGradient id="SVGID_5_" gradientUnits="userSpaceOnUse" x1="911.9181" y1="668.2704" x2="912.4396" y2="668.2704">
						<stop  offset="0" style="stop-color:#00C692"/>
						<stop  offset="1" style="stop-color:#00AB7E"/>
					</linearGradient>
					<path class="st7" d="M912.4,634.2l-0.2,65.2c0,1-0.1,2-0.3,2.9l0.2-65.2C912.3,636.2,912.4,635.2,912.4,634.2"/>
					<linearGradient id="SVGID_6_" gradientUnits="userSpaceOnUse" x1="911.0862" y1="671.1907" x2="912.1028" y2="671.1907">
						<stop  offset="0" style="stop-color:#00C692"/>
						<stop  offset="1" style="stop-color:#00AB7E"/>
					</linearGradient>
					<path class="st8" d="M912.1,637.1l-0.2,65.2c-0.2,1-0.5,1.9-0.8,2.9l0.2-65.2C911.6,639.1,911.9,638.1,912.1,637.1"/>
					<linearGradient id="SVGID_7_" gradientUnits="userSpaceOnUse" x1="910.5388" y1="673.2971" x2="911.271" y2="673.2971">
						<stop  offset="0" style="stop-color:#00C692"/>
						<stop  offset="1" style="stop-color:#00AB7E"/>
					</linearGradient>
					<path class="st9" d="M911.3,640l-0.2,65.2c-0.2,0.4-0.3,0.9-0.5,1.3l0.2-65.2C910.9,640.9,911.1,640.5,911.3,640"/>
				</g>
			</g>
			<linearGradient id="SVGID_8_" gradientUnits="userSpaceOnUse" x1="110.9637" y1="813.2822" x2="910.7237" y2="813.2822">
				<stop  offset="0" style="stop-color:#00C692"/>
				<stop  offset="1" style="stop-color:#00AB7E"/>
			</linearGradient>
			<path class="st10" d="M818.3,843.6c-0.5,1-1.1,2-1.7,2.9c-0.3,0.4-0.5,0.8-0.8,1.2c-0.5,0.6-1,1.2-1.5,1.8
				c-0.5,0.6-1,1.2-1.6,1.8c-0.8,0.8-1.7,1.6-2.7,2.3c-0.2,0.2-0.4,0.4-0.6,0.5c-1.2,0.9-2.5,1.8-3.9,2.6c-1.7,1-3.5,1.9-5.4,2.8
				c0,0,0,0-0.1,0c-1.9,0.8-3.9,1.6-6,2.3c-1.7,0.6-3.5,1.1-5.4,1.6c-0.4,0.1-0.7,0.1-1.1,0.2c-1.8,0.4-3.7,0.8-5.6,1.1L432.9,919
				c-1.9,0.3-3.9,0.5-5.9,0.7c-0.8,0.1-1.6,0.1-2.3,0.2c-1.4,0.1-2.8,0.1-4.2,0.2c-0.7,0-1.3,0-2,0c-1.7,0-3.3-0.1-5-0.2
				c-0.4,0-0.7,0-1.1-0.1c-2-0.2-4-0.4-5.9-0.7c-0.6-0.1-1.1-0.2-1.7-0.3c-1.4-0.2-2.7-0.5-4.1-0.8c-0.8-0.2-1.6-0.4-2.4-0.6
				c-1.1-0.3-2.1-0.6-3.1-0.9c-1.1-0.4-2.3-0.7-3.4-1.1c-1-0.4-2.1-0.8-3.1-1.2c-0.4-0.2-0.9-0.4-1.3-0.6c-1.6-0.7-3.2-1.5-4.6-2.3
				l-256.4-148c-9.9-5.7-15.3-13.5-15.3-21.4L111,807c0,7.9,5.4,15.6,15.3,21.4l256.4,148c1.5,0.8,3,1.6,4.6,2.3
				c0.4,0.2,0.9,0.4,1.3,0.6c0.5,0.2,1,0.4,1.5,0.6c0.5,0.2,1.1,0.3,1.6,0.5c1.1,0.4,2.2,0.8,3.4,1.1c0.4,0.1,0.9,0.3,1.3,0.4
				c0.6,0.2,1.2,0.3,1.8,0.4c0.8,0.2,1.6,0.4,2.4,0.6c0.4,0.1,0.8,0.2,1.2,0.3c0.9,0.2,1.9,0.3,2.8,0.5c0.6,0.1,1.1,0.2,1.7,0.3
				c0.2,0,0.4,0.1,0.6,0.1c1.7,0.2,3.3,0.4,5,0.6c0.1,0,0.2,0,0.3,0c0.4,0,0.7,0,1.1,0.1c1.2,0.1,2.5,0.2,3.7,0.2c0.4,0,0.8,0,1.3,0
				c0.7,0,1.3,0,2,0c0.7,0,1.3,0,2,0c0.7,0,1.5-0.1,2.2-0.1c0.8,0,1.6-0.1,2.4-0.2c0.4,0,0.8,0,1.2-0.1c1.6-0.2,3.1-0.4,4.7-0.6
				L781.6,930c0.7-0.1,1.3-0.2,2-0.3c1.2-0.2,2.4-0.5,3.6-0.8c0.4-0.1,0.7-0.1,1.1-0.2c1.7-0.4,3.4-0.9,5-1.4c0.1,0,0.3-0.1,0.4-0.1
				c2.1-0.7,4.1-1.4,6-2.3c0,0,0,0,0.1,0c1.9-0.9,3.7-1.8,5.4-2.8c0.1-0.1,0.2-0.1,0.3-0.2c1.3-0.8,2.5-1.6,3.6-2.4
				c0.2-0.2,0.4-0.4,0.6-0.5c0.8-0.6,1.6-1.2,2.3-1.9c0.2-0.1,0.3-0.3,0.4-0.5c0.6-0.6,1.1-1.2,1.6-1.8c0.4-0.4,0.8-0.8,1.2-1.2
				c0.1-0.2,0.2-0.4,0.4-0.5c0.3-0.4,0.6-0.8,0.8-1.2c0.3-0.4,0.6-0.9,0.9-1.3c0.3-0.5,0.6-1.1,0.8-1.6l92.4-202.3l0.2-65.2
				L818.3,843.6z"/>
			<g>
				<linearGradient id="SVGID_9_" gradientUnits="userSpaceOnUse" x1="111.1487" y1="687.7941" x2="912.4468" y2="687.7941">
					<stop  offset="0" style="stop-color:#00AB7E"/>
					<stop  offset="1" style="stop-color:#00C692"/>
				</linearGradient>
				<path class="st11" d="M897.2,612.4c13.1,7.6,18.3,18.6,13.6,29l-92.4,202.3c-4.7,10.4-18.7,18.4-36.5,21.2L432.9,919
					c-17.9,2.8-37-0.2-50.1-7.7l-256.4-148c-13.1-7.6-18.3-18.6-13.6-29L205.3,532c4.7-10.4,18.7-18.4,36.5-21.2l348.9-54.2
					c17.9-2.8,36.9,0.2,50.1,7.8L897.2,612.4z"/>
			</g>
		</g>
	</g>
	<g class="st12">
		<linearGradient id="SVGID_10_" gradientUnits="userSpaceOnUse" x1="253.4651" y1="424.0086" x2="631.1972" y2="424.0086">
			<stop  offset="0" style="stop-color:#FFCB27"/>
			<stop  offset="1" style="stop-color:#FFA21E"/>
		</linearGradient>
		<path class="st13" d="M440.9,82.3c13.5-7.8,27-10.2,37.5-5.5l115.4,52.4c19.8,8.9,36.6,41,36.2,71.8l1.2,318.9
			c0.1,15.5-5.6,33.8-14.9,49.9c-9.8,17.1-22.3,30.3-35.8,38.1L305.9,766.8c-13.5,7.8-26.6,8.8-35.9,3.4
			c-9.9-5.6-15.2-16.9-15.3-32.5l-1.2-318.9c-0.1-28.7,14.3-76.5,32.9-108.9l2.6-4.5l114.5-185.4C413.9,103.4,427.4,90.2,440.9,82.3
			z"/>
	</g>
	<g>
		<g>
			<g>
				<g>
					<defs>
						<path id="SVGID_11_" d="M702.9,172.9l84.5,49.1c-1-0.6-2.1-1.2-3.2-1.6l-84.5-49.1C700.8,171.8,701.9,172.3,702.9,172.9z"/>
					</defs>
					<clipPath id="SVGID_12_">
						<use xlink:href="#SVGID_11_"  style="overflow:visible;"/>
					</clipPath>
				</g>
			</g>
		</g>
		<g>
			<g class="st4">
				<g class="st4">
					<defs>
						<path id="SVGID_13_" class="st4" d="M702.9,172.9l84.5,49.1c-1-0.6-2.1-1.2-3.2-1.6l-84.5-49.1
							C700.8,171.8,701.9,172.3,702.9,172.9z"/>
					</defs>
					<linearGradient id="SVGID_14_" gradientUnits="userSpaceOnUse" x1="699.7676" y1="196.6925" x2="787.4776" y2="196.6925">
						<stop  offset="0" style="stop-color:#FFA21E"/>
						<stop  offset="1" style="stop-color:#FFCB27"/>
					</linearGradient>
					<use xlink:href="#SVGID_13_"  style="overflow:visible;fill:url(#SVGID_14_);"/>
					<clipPath id="SVGID_15_">
						<use xlink:href="#SVGID_13_"  style="overflow:visible;"/>
					</clipPath>
					<g class="st14">
						<linearGradient id="SVGID_16_" gradientUnits="userSpaceOnUse" x1="699.7676" y1="196.5767" x2="787.073" y2="196.5767">
							<stop  offset="0" style="stop-color:#FFA21E"/>
							<stop  offset="1" style="stop-color:#FFCB27"/>
						</linearGradient>
						<path class="st15" d="M784.3,220.4l-84.5-49.1c0.9,0.4,1.9,0.9,2.8,1.4l84.5,49.1C786.2,221.3,785.2,220.9,784.3,220.4"/>
						<linearGradient id="SVGID_17_" gradientUnits="userSpaceOnUse" x1="702.5341" y1="197.3918" x2="787.4776" y2="197.3918">
							<stop  offset="0" style="stop-color:#FFA21E"/>
							<stop  offset="1" style="stop-color:#FFCB27"/>
						</linearGradient>
						<path class="st16" d="M787.1,221.8l-84.5-49.1c0.1,0.1,0.3,0.2,0.4,0.2l84.5,49.1C787.3,222,787.2,221.9,787.1,221.8"/>
					</g>
				</g>
				<g>
					<linearGradient id="SVGID_18_" gradientUnits="userSpaceOnUse" x1="443.997" y1="515.2668" x2="821.7291" y2="515.2668">
						<stop  offset="0" style="stop-color:#FFA21E"/>
						<stop  offset="1" style="stop-color:#FFCB27"/>
					</linearGradient>
					<path class="st17" d="M631.5,173.6c13.5-7.8,27-10.2,37.5-5.5l115.4,52.4c19.8,8.9,36.6,41,36.2,71.8l1.2,319
						c0.1,15.5-5.6,33.8-14.9,49.9c-9.8,17.1-22.3,30.3-35.8,38.1L496.4,858.1c-13.5,7.8-26.5,8.8-35.9,3.4
						c-9.9-5.6-15.2-16.9-15.3-32.5L444,510.1c-0.1-28.7,14.3-76.5,32.9-108.9l2.6-4.5l114.5-185.4
						C604.4,194.6,617.9,181.4,631.5,173.6z"/>
				</g>
				<linearGradient id="SVGID_19_" gradientUnits="userSpaceOnUse" x1="359.4582" y1="489.0456" x2="784.3065" y2="489.0456">
					<stop  offset="0" style="stop-color:#FFA21E"/>
					<stop  offset="1" style="stop-color:#FFCB27"/>
				</linearGradient>
				<path class="st18" d="M699.8,171.3L584.4,119c-0.2-0.1-0.5-0.2-0.7-0.3c-0.9-0.4-1.8-0.7-2.8-1c-0.1,0-0.2-0.1-0.4-0.1
					c-0.3-0.1-0.5-0.1-0.8-0.2c-0.6-0.1-1.2-0.3-1.8-0.4c-0.4-0.1-0.8-0.1-1.3-0.1c-0.4-0.1-0.8-0.1-1.2-0.1c-0.3,0-0.5-0.1-0.8-0.1
					c-0.8-0.1-1.6,0-2.4,0c-0.3,0-0.6,0-0.9,0c-0.1,0-0.2,0-0.2,0c-1.4,0.1-2.7,0.2-4.1,0.4c0,0,0,0-0.1,0c-1.6,0.3-3.3,0.6-4.9,1.1
					c0,0,0,0,0,0c-0.1,0-0.1,0-0.2,0.1c-1.9,0.5-3.9,1.2-5.9,2c-0.2,0.1-0.5,0.1-0.7,0.2c-0.7,0.3-1.4,0.6-2.1,1
					c-0.5,0.2-1,0.4-1.5,0.7c-1.5,0.8-3.1,1.6-4.7,2.5c-1.7,1-3.3,2-5,3.1c-0.6,0.4-1.1,0.8-1.7,1.2c-1.1,0.8-2.2,1.6-3.3,2.4
					c-0.7,0.5-1.3,1.1-2,1.6c-1,0.8-2,1.6-2.9,2.4c-0.7,0.6-1.4,1.3-2,1.9c-0.8,0.8-1.7,1.5-2.5,2.3c-0.1,0.1-0.1,0.2-0.2,0.2
					c-1.9,1.9-3.7,3.8-5.5,5.8c-0.1,0.1-0.2,0.3-0.4,0.4c-0.7,0.8-1.3,1.6-2,2.4c-0.7,0.8-1.3,1.6-2,2.4c-0.1,0.1-0.2,0.3-0.4,0.4
					c-1.2,1.6-2.4,3.2-3.5,4.8c0,0,0,0,0,0.1c-0.1,0.1-0.1,0.2-0.2,0.3c-1,1.4-1.9,2.8-2.8,4.2c-0.4,0.6-0.7,1.1-1.1,1.7L395,347.6
					l-2.6,4.5c-1.1,1.9-2.2,3.9-3.3,5.9c0,0.1-0.1,0.1-0.1,0.2c-1.3,2.4-2.5,4.8-3.7,7.4c-0.1,0.2-0.2,0.3-0.2,0.5
					c-0.2,0.4-0.4,0.9-0.6,1.4c-1.1,2.2-2.1,4.5-3.1,6.8c-0.2,0.4-0.4,0.9-0.6,1.3c-0.2,0.4-0.3,0.7-0.4,1.1c-1.4,3.2-2.7,6.5-4,9.8
					c0,0.1-0.1,0.2-0.1,0.3c-0.1,0.2-0.2,0.5-0.3,0.7c-1.5,3.8-2.8,7.6-4.1,11.5c-0.1,0.3-0.2,0.5-0.3,0.8c0,0.1-0.1,0.2-0.1,0.3
					c-1.5,4.5-2.9,9-4.1,13.4c-0.1,0.2-0.2,0.5-0.2,0.7c0,0.2-0.1,0.3-0.1,0.5c-0.5,1.7-0.9,3.3-1.3,5c-0.2,0.8-0.4,1.7-0.7,2.5
					c-0.6,2.4-1.1,4.8-1.7,7.2c0,0.1,0,0.1,0,0.2c0,0,0,0,0,0c-0.5,2.5-1,5-1.5,7.5c-0.1,0.8-0.3,1.6-0.4,2.3
					c-0.3,1.7-0.5,3.3-0.8,4.9c0,0.3-0.1,0.7-0.2,1c-0.1,0.5-0.1,0.9-0.1,1.3c-0.2,1.8-0.4,3.6-0.5,5.4c-0.1,0.7-0.1,1.4-0.2,2.1
					c-0.2,2.3-0.2,4.6-0.2,6.8l1.2,318.9c0,7.8,1.4,14.5,3.9,19.9c2.6,5.5,6.4,9.7,11.3,12.5l84.5,49.1
					c-9.9-5.6-15.2-16.9-15.3-32.5L444,510.1c0-2.1,0.1-4.4,0.2-6.8c0-0.7,0.1-1.4,0.2-2.1c0.1-1.7,0.3-3.5,0.5-5.4
					c0.1-0.8,0.2-1.6,0.3-2.4c0.2-1.6,0.5-3.2,0.7-4.9c0.1-0.8,0.2-1.6,0.4-2.3c0.4-2.5,0.9-5,1.5-7.5c0.5-2.4,1.1-4.9,1.7-7.4
					c0.2-0.8,0.4-1.7,0.6-2.5c0.4-1.7,0.9-3.3,1.3-5c0.1-0.4,0.2-0.8,0.4-1.3c1.3-4.4,2.6-8.9,4.1-13.4c0.1-0.3,0.2-0.7,0.4-1
					c1.3-3.9,2.7-7.7,4.1-11.5c0.1-0.3,0.2-0.7,0.4-1c1.3-3.3,2.6-6.6,4-9.8c0.3-0.8,0.7-1.6,1.1-2.4c1-2.3,2.1-4.6,3.1-6.8
					c0.3-0.6,0.6-1.2,0.9-1.8c1.2-2.5,2.5-5,3.7-7.4c1.1-2.1,2.2-4.1,3.3-6l2.6-4.5l114.5-185.4c1.2-2,2.5-4,3.8-5.8
					c0.1-0.1,0.1-0.2,0.2-0.3c1.3-1.8,2.6-3.6,3.9-5.3c0.7-0.8,1.3-1.6,2-2.5c0.8-0.9,1.5-1.9,2.3-2.8c1.8-2,3.6-4,5.5-5.8
					c0.9-0.9,1.8-1.7,2.7-2.6c0.7-0.6,1.3-1.3,2-1.9c1-0.9,2-1.7,3-2.5c0.6-0.5,1.3-1.1,1.9-1.6c1.1-0.9,2.2-1.6,3.3-2.4
					c0.5-0.4,1.1-0.8,1.6-1.2c1.7-1.1,3.3-2.2,5-3.1c1.6-0.9,3.1-1.7,4.7-2.5c0.5-0.2,1-0.4,1.5-0.7c0.9-0.4,1.9-0.8,2.8-1.2
					c2-0.8,3.9-1.5,5.9-2c0.1,0,0.1,0,0.2-0.1c1.7-0.4,3.3-0.8,4.9-1.1c1.5-0.2,3-0.4,4.4-0.4c0.3,0,0.6,0,0.9,0
					c1.1,0,2.2,0,3.2,0.1c0.4,0,0.8,0.1,1.2,0.1c1,0.1,2.1,0.3,3.1,0.6c0.3,0.1,0.5,0.1,0.8,0.2c1.3,0.4,2.6,0.8,3.8,1.4l115.4,52.4
					L699.8,171.3z"/>
			</g>
		</g>
		<g>
			<g>
				<g>
					<defs>
						<path id="SVGID_20_" d="M702.9,172.9l84.5,49.1c-1-0.6-2.1-1.2-3.2-1.6l-84.5-49.1C700.8,171.8,701.9,172.3,702.9,172.9z"/>
					</defs>
					<clipPath id="SVGID_21_">
						<use xlink:href="#SVGID_20_"  style="overflow:visible;"/>
					</clipPath>
				</g>
			</g>
		</g>
	</g>
	<g>
		<g class="st4">
			<linearGradient id="SVGID_22_" gradientUnits="userSpaceOnUse" x1="564.165" y1="433.7828" x2="729.1985" y2="433.7828">
				<stop  offset="0" style="stop-color:#D7D8D5"/>
				<stop  offset="1" style="stop-color:#F6F6F9"/>
			</linearGradient>
			<path class="st19" d="M593.6,479.2c0.2-1.9,0.4-3.8,0.7-5.7c0.3-2.1,0.7-4.2,1.1-6.4c0.3-1.5,0.5-2.9,0.9-4.4
				c0.3-1.4,0.7-2.7,1-4.1c0.5-1.9,1-3.8,1.5-5.7c0.3-1.1,0.7-2.2,1-3.3c0.7-2.1,1.4-4.3,2.1-6.4c0.3-0.9,0.6-1.8,0.9-2.6
				c1.1-2.9,2.3-5.9,3.5-8.8c0.1-0.3,0.3-0.7,0.5-1c1.1-2.6,2.4-5.2,3.6-7.7c0.4-0.8,0.8-1.6,1.2-2.4c1.2-2.4,2.5-4.8,3.9-7.2
				c0.3-0.5,0.5-0.9,0.8-1.4c1.6-2.8,3.3-5.5,5-8.2c0.5-0.8,1-1.5,1.5-2.3c1.3-1.9,2.6-3.8,4-5.7c0.7-1,1.5-2,2.2-3
				c1.2-1.6,2.4-3.1,3.6-4.6c1-1.3,2.1-2.5,3.1-3.8c1-1.2,2-2.3,3-3.4c1.7-1.9,3.5-3.8,5.3-5.7c1.1-1.1,2.2-2.3,3.4-3.4
				c0.9-0.9,1.8-1.7,2.7-2.5c1.5-1.4,3-2.7,4.5-3.9c0.9-0.8,1.8-1.5,2.7-2.2c1.7-1.3,3.3-2.6,5-3.8c0.8-0.6,1.6-1.2,2.4-1.7
				c2.5-1.7,5-3.3,7.6-4.8c2.5-1.4,4.9-2.7,7.3-3.8c0.6-0.3,1.3-0.6,1.9-0.9c2.3-1,4.6-2,6.9-2.8c0.1,0,0.3-0.1,0.4-0.1
				c2-0.7,3.9-1.2,5.8-1.6c1.1-0.3,2.2-0.5,3.3-0.7c1.4-0.3,2.8-0.5,4.2-0.6c0.8-0.1,1.6-0.2,2.4-0.2c1.7-0.1,3.4-0.2,5.1-0.1
				c0.4,0,0.8,0,1.2,0c2,0.1,4,0.4,5.9,0.7c0.5,0.1,0.9,0.2,1.4,0.3c1.5,0.3,3,0.8,4.4,1.3c0.4,0.2,0.9,0.3,1.3,0.5
				c1.8,0.7,3.6,1.5,5.2,2.5l-28.8-16.7c-0.1-0.1-0.3-0.2-0.4-0.2c-1.3-0.7-2.6-1.4-4-2c-0.3-0.1-0.5-0.2-0.8-0.3
				c-0.4-0.2-0.9-0.3-1.3-0.5c-0.7-0.2-1.4-0.5-2.1-0.7c-0.8-0.2-1.5-0.4-2.3-0.5c-0.5-0.1-0.9-0.2-1.4-0.3c-0.3,0-0.5-0.1-0.8-0.2
				c-1.6-0.3-3.2-0.5-4.8-0.6c-0.1,0-0.2,0-0.3,0c-0.4,0-0.8,0-1.2,0c-1.3,0-2.5-0.1-3.8,0c-0.4,0-0.9,0.1-1.3,0.1
				c-0.8,0.1-1.6,0.1-2.4,0.2c-0.7,0.1-1.5,0.1-2.2,0.2c-0.6,0.1-1.3,0.3-2,0.4c-1.1,0.2-2.2,0.4-3.3,0.7c-0.6,0.1-1.2,0.2-1.8,0.4
				c-1.3,0.4-2.7,0.8-4.1,1.3c-0.1,0-0.3,0.1-0.4,0.1c-1.6,0.6-3.3,1.2-4.9,1.9c-0.6,0.3-1.3,0.6-2,0.9c-0.6,0.3-1.3,0.6-1.9,0.9
				c-2.4,1.1-4.8,2.4-7.3,3.8c-2.6,1.5-5.1,3.1-7.6,4.8c-0.8,0.6-1.6,1.2-2.4,1.7c-1.7,1.2-3.4,2.5-5,3.8c-0.9,0.7-1.8,1.5-2.7,2.2
				c-1.5,1.3-3,2.6-4.5,3.9c-0.9,0.8-1.8,1.7-2.7,2.5c-0.6,0.5-1.1,1-1.7,1.6c-0.6,0.6-1.1,1.2-1.7,1.8c-1.8,1.8-3.6,3.7-5.3,5.7
				c-0.6,0.6-1.1,1.2-1.7,1.8c-0.5,0.5-0.9,1.1-1.3,1.6c-1.1,1.2-2.1,2.5-3.1,3.8c-0.7,0.8-1.4,1.6-2,2.5c-0.5,0.7-1,1.4-1.6,2.1
				c-0.7,1-1.5,2-2.2,3c-0.5,0.7-1,1.4-1.5,2.1c-0.8,1.2-1.6,2.4-2.4,3.6c-0.5,0.8-1,1.5-1.5,2.3c-0.2,0.3-0.4,0.6-0.6,1
				c-1.4,2.2-2.8,4.5-4.1,6.7c-0.1,0.2-0.2,0.3-0.3,0.5c-0.3,0.5-0.5,0.9-0.8,1.4c-0.9,1.6-1.8,3.2-2.7,4.9
				c-0.4,0.8-0.8,1.5-1.2,2.3c-0.4,0.8-0.8,1.6-1.2,2.4c-0.3,0.7-0.7,1.4-1.1,2.1c-0.9,1.9-1.7,3.7-2.6,5.6c-0.2,0.3-0.3,0.7-0.5,1
				c0,0.1-0.1,0.2-0.1,0.3c-1,2.4-2,4.8-2.9,7.2c-0.2,0.4-0.3,0.9-0.5,1.3c-0.3,0.9-0.6,1.7-0.9,2.6c-0.4,1.2-0.9,2.4-1.3,3.6
				c-0.3,0.9-0.6,1.9-0.9,2.8c-0.3,1.1-0.7,2.2-1,3.3c-0.2,0.7-0.4,1.4-0.6,2c-0.3,1.2-0.6,2.4-0.9,3.7c-0.3,1.4-0.7,2.7-1,4.1
				c-0.1,0.5-0.2,0.9-0.3,1.4c-0.2,1-0.3,1.9-0.5,2.9c-0.4,2.1-0.8,4.3-1.1,6.4c-0.1,0.6-0.2,1.2-0.3,1.8c-0.2,1.3-0.3,2.6-0.4,4
				c-0.1,0.9-0.2,1.9-0.3,2.8c-0.2,3-0.4,5.9-0.4,8.8c0.1,25.1,8.9,42.8,23.3,51.1l28.8,16.7c-14.3-8.3-23.2-26-23.3-51.1
				c0-2.9,0.1-5.9,0.4-8.8C593.4,481.1,593.5,480.2,593.6,479.2z"/>
			<g>
				<path class="st20" d="M672.5,353.2c44-25.4,79.9-5,80,45.6C752.6,449.4,717,511,673,536.5c-44,25.4-79.9,5-80-45.6
					C592.8,440.3,628.4,378.6,672.5,353.2z"/>
			</g>
		</g>
	</g>
	<linearGradient id="SVGID_23_" gradientUnits="userSpaceOnUse" x1="728.5352" y1="710.8776" x2="1016.5771" y2="710.8776">
		<stop  offset="0" style="stop-color:#D7D8D5"/>
		<stop  offset="1" style="stop-color:#F6F6F9"/>
	</linearGradient>
	<path class="st21" d="M728.5,840.8c0,0,43.2-231.7,240.8-259.8c0,0,43.9-0.8,47.3,40.5c0,0-1.8,36.9-61.6,43.6
		C955,665.1,795.9,682.8,728.5,840.8z"/>
	<linearGradient id="SVGID_24_" gradientUnits="userSpaceOnUse" x1="11.8448" y1="504.7252" x2="299.8866" y2="504.7252">
		<stop  offset="0" style="stop-color:#D7D8D5"/>
		<stop  offset="1" style="stop-color:#F6F6F9"/>
	</linearGradient>
	<path class="st22" d="M299.9,634.6c0,0-43.2-231.7-240.8-259.8c0,0-43.9-0.8-47.3,40.5c0,0,1.8,36.9,61.6,43.6
		C73.5,458.9,232.5,476.6,299.9,634.6z"/>
	<linearGradient id="SVGID_25_" gradientUnits="userSpaceOnUse" x1="238.9264" y1="191.8085" x2="346.5616" y2="191.8085">
		<stop  offset="0" style="stop-color:#D7D8D5"/>
		<stop  offset="1" style="stop-color:#F6F6F9"/>
	</linearGradient>
	<path class="st23" d="M298.2,96.1c18,19.7,61.6,81.6,44.4,207.3c0,0,7.3-112.5-76.6-159.7c-11.3-5.7-16.8-11.5-16.8-11.5
		c-7.9-9.1-18.3-27-0.5-46.1c0,0,11-12.8,35.4-0.9C284.1,85.2,292.3,89.9,298.2,96.1z"/>
	<linearGradient id="SVGID_26_" gradientUnits="userSpaceOnUse" x1="778.0956" y1="243.8873" x2="885.7307" y2="243.8873">
		<stop  offset="0" style="stop-color:#D7D8D5"/>
		<stop  offset="1" style="stop-color:#F6F6F9"/>
	</linearGradient>
	<path class="st24" d="M826.4,148.2c-18,19.7-61.6,81.6-44.4,207.3c0,0-7.3-112.5,76.6-159.7c11.3-5.7,16.8-11.5,16.8-11.5
		c7.9-9.1,18.3-27,0.5-46.1c0,0-11-12.8-35.4-0.9C840.5,137.3,832.4,141.9,826.4,148.2z"/>
	<g>
		<g class="st4">
			<linearGradient id="SVGID_27_" gradientUnits="userSpaceOnUse" x1="502.51" y1="644.047" x2="791.0536" y2="644.047">
				<stop  offset="0" style="stop-color:#D6D9E4"/>
				<stop  offset="1" style="stop-color:#F9F9FB"/>
			</linearGradient>
			<path class="st25" d="M781.8,567.6c1.1-0.3,2.1-0.6,3.1-0.7c0.1,0,0.2,0,0.3,0c1.1-0.1,2.1,0,3,0.2c0.1,0,0.1,0,0.2,0
				c1,0.2,1.9,0.5,2.7,1l-35.2-20.5c0,0-0.1,0-0.1-0.1c-0.3-0.2-0.6-0.3-0.9-0.5c-0.3-0.1-0.7-0.3-1-0.4c-0.2-0.1-0.4-0.1-0.7-0.2
				c-0.1,0-0.1,0-0.2,0c-0.1,0-0.1,0-0.2-0.1c-0.4-0.1-0.7-0.1-1.1-0.1c-0.4,0-0.8,0-1.2,0c-0.1,0-0.3,0-0.4,0c-0.1,0-0.2,0-0.3,0
				c-0.2,0-0.5,0-0.7,0.1c-0.5,0.1-1.1,0.2-1.7,0.4c-0.2,0.1-0.5,0.2-0.7,0.2c-0.2,0.1-0.4,0.1-0.7,0.2c-0.3,0.1-0.6,0.2-0.8,0.3
				c-0.9,0.4-1.7,0.8-2.6,1.3L521.2,676.7c-1.2,0.7-2.4,1.5-3.5,2.4c-0.4,0.3-0.7,0.6-1.1,1c-0.6,0.5-1.1,0.9-1.7,1.5
				c-0.2,0.2-0.5,0.5-0.7,0.8c-0.2,0.2-0.4,0.4-0.6,0.7c-0.2,0.3-0.5,0.5-0.7,0.8c-0.5,0.6-1,1.2-1.5,1.9c-0.2,0.2-0.3,0.4-0.5,0.7
				c-0.1,0.1-0.2,0.2-0.3,0.4c-0.2,0.2-0.3,0.4-0.5,0.7c-0.4,0.5-0.7,1.1-1.1,1.6c-0.3,0.5-0.7,1.1-1,1.6c0,0,0,0.1-0.1,0.1
				c0,0,0,0.1-0.1,0.1c-0.3,0.4-0.5,0.9-0.7,1.3c-0.3,0.5-0.6,1.1-0.8,1.6c-0.2,0.5-0.4,1-0.7,1.4c0,0,0,0.1,0,0.1c0,0,0,0.1,0,0.1
				c-0.2,0.6-0.5,1.1-0.7,1.7c-0.2,0.6-0.4,1.2-0.6,1.8c-0.1,0.3-0.2,0.6-0.3,0.9c0,0.1-0.1,0.3-0.1,0.4c-0.1,0.2-0.1,0.4-0.2,0.7
				c-0.2,0.7-0.4,1.4-0.5,2.2c-0.1,0.4-0.1,0.9-0.2,1.3c0,0.2-0.1,0.5-0.1,0.7c0,0.2-0.1,0.4-0.1,0.6c-0.2,1.2-0.2,2.5-0.2,3.7
				c0,5.9,2.1,10.1,5.5,12l35.2,20.5c-3.4-2-5.5-6.1-5.5-12c0-1.4,0.1-2.8,0.3-4.3c0-0.2,0.1-0.5,0.1-0.7c0.2-1.4,0.5-2.7,0.9-4.1
				c0-0.1,0.1-0.3,0.1-0.4c0.5-1.5,1-3,1.6-4.4c0,0,0-0.1,0-0.1c0.7-1.5,1.4-3,2.2-4.4c0,0,0-0.1,0.1-0.1c0.8-1.4,1.7-2.7,2.6-4
				c0.1-0.1,0.2-0.2,0.3-0.4c0.9-1.2,1.8-2.3,2.7-3.3c0.2-0.2,0.4-0.4,0.6-0.7c0.8-0.8,1.6-1.5,2.4-2.2c0.4-0.3,0.7-0.7,1.1-1
				c1.1-0.9,2.3-1.7,3.5-2.4l221.2-127.7c1.2-0.7,2.3-1.2,3.5-1.6C781.4,567.8,781.6,567.7,781.8,567.6z"/>
			<g>
				<linearGradient id="SVGID_28_" gradientUnits="userSpaceOnUse" x1="537.7244" y1="654.9147" x2="796.5324" y2="654.9147">
					<stop  offset="4.950495e-03" style="stop-color:#EFF0F4"/>
					<stop  offset="1" style="stop-color:#FEFFFF"/>
				</linearGradient>
				<path class="st26" d="M777.7,569.5c10.4-6,18.8-1.2,18.8,10.7c0,11.9-8.4,26.5-18.7,32.4L556.6,740.4
					c-10.4,6-18.8,1.2-18.8-10.7c0-11.9,8.4-26.5,18.7-32.4L777.7,569.5z"/>
			</g>
		</g>
	</g>
</g>
</svg>
