<?xml version="1.0" encoding="utf-8"?>
<!-- Generator: Adobe Illustrator 21.0.0, SVG Export Plug-In . SVG Version: 6.00 Build 0)  -->
<svg version="1.1" id="图层_1" xmlns="http://www.w3.org/2000/svg" xmlns:xlink="http://www.w3.org/1999/xlink" x="0px" y="0px"
	 viewBox="0 0 1024 1024" style="enable-background:new 0 0 1024 1024;" xml:space="preserve">
<style type="text/css">
	.st0{display:none;}
	.st1{display:inline;}
	.st2{opacity:0.25;}
	.st3{display:inline;opacity:0.25;}
	.st4{fill:url(#SVGID_1_);}
	.st5{enable-background:new    ;}
	.st6{fill:url(#SVGID_2_);}
	.st7{fill:url(#SVGID_3_);}
	.st8{fill:url(#SVGID_4_);}
	.st9{opacity:0.41;fill:#FFFFFF;}
	.st10{fill:url(#SVGID_5_);}
	.st11{fill:url(#SVGID_6_);}
	.st12{fill:url(#SVGID_7_);}
	.st13{fill:url(#SVGID_8_);}
	.st14{fill:url(#SVGID_9_);}
	.st15{clip-path:url(#SVGID_12_);fill:url(#SVGID_13_);}
	.st16{fill:url(#SVGID_14_);}
	.st17{fill:url(#SVGID_15_);}
	.st18{fill:url(#SVGID_16_);}
	.st19{fill:url(#SVGID_17_);}
	.st20{fill:url(#SVGID_18_);}
	.st21{fill:#F7AEB0;}
	.st22{fill:#242100;}
	.st23{fill:#536FFF;}
</style>
<g id="图层_1_1_" class="st0">
	<g id="bg" class="st1">
		<g id="图层_2">
			<g id="图标参考线">
				<g id="图标尺寸" class="st2">
					<path d="M1018.2,5.8v1012.5H5.8V5.8H1018.2 M1024,0H0v1024h1024V0z"/>
					<path d="M512,28.8c266.9,0,483.2,216.4,483.2,483.2S778.9,995.2,512,995.2S28.8,778.9,28.8,512S245.1,28.8,512,28.8 M512,23
						C241.9,23,23,241.9,23,512s218.9,489,489,489s489-218.9,489-489C1000.7,242,782,23.3,512,23z"/>
					<path d="M949.2,74.8v874.4H74.8V74.8H949.2 M955,69H69v886h886V69z"/>
					<path d="M995.2,28.8v966.5H28.8V28.8H995.2 M1001,23H23v978h978V23z"/>
					<path d="M995.2,189.8v644.3H28.8V189.8H995.2 M1001,184.1H23v655.8h978V184.1z"/>
				</g>
			</g>
		</g>
	</g>
	<g id="图标尺寸_1_" class="st3">
		<g>
			<path d="M1017.1,4.6v1010.2H6.9V4.6H1017.1 M1021.7,0h-6.9H4.6H0v6.9v1010.2v6.9h6.9h1010.2h6.9v-6.9V6.9V0H1021.7z"/>
		</g>
		<g>
			<path d="M512,27.6c266.3,0,482.2,215.8,482.2,482.2S778.3,991.9,512,991.9S29.8,776.1,29.8,509.7S245.7,27.6,512,27.6 M512,23
				C243.4,23,23,241.1,23,509.7s218.1,486.7,489,486.7s489-218.1,489-486.7S780.6,23,512,23L512,23z"/>
		</g>
		<g>
			<path d="M948.2,73.5V946H75.8V73.5H948.2 M952.8,68.9h-6.9H73.5h-4.6v6.9v872.5v6.9h6.9h872.5h6.9v-6.9V75.8v-6.9H952.8z"/>
		</g>
		<g>
			<path d="M994.1,27.6v964.3H29.8V27.6H994.1 M998.7,23h-6.9H27.5h-4.6v6.9v964.3v6.9h6.9h964.3h6.9v-6.9V29.9V23H998.7z"/>
		</g>
		<g>
			<path d="M994.1,188.3v642.9H29.8V188.3H994.1 M998.7,183.7h-6.9H27.5h-4.6v4.6v642.9v6.9h6.9h964.3h6.9v-6.9V188.3v-4.6H998.7z"
				/>
		</g>
	</g>
</g>
<linearGradient id="SVGID_1_" gradientUnits="userSpaceOnUse" x1="288.4626" y1="296.9286" x2="288.4626" y2="58.8949">
	<stop  offset="0" style="stop-color:#FFFFFF;stop-opacity:0"/>
	<stop  offset="1" style="stop-color:#FFC225"/>
</linearGradient>
<path class="st4" d="M288.5,296.9L288.5,296.9c-11.1,0-20.3-9.1-20.3-20.3V79.2c0-11.1,9.1-20.3,20.3-20.3h0
	c11.1,0,20.3,9.1,20.3,20.3v197.5C308.7,287.8,299.6,296.9,288.5,296.9z"/>
<g>
	<g class="st5">
		<linearGradient id="SVGID_2_" gradientUnits="userSpaceOnUse" x1="146.5334" y1="291.9964" x2="555.9243" y2="291.9964">
			<stop  offset="0" style="stop-color:#D7D8D5"/>
			<stop  offset="1" style="stop-color:#F6F6F9"/>
		</linearGradient>
		<path class="st6" d="M543.7,35c0.4-0.1,0.8-0.2,1.1-0.3c0.4-0.1,0.7-0.2,1-0.2c0.5-0.1,0.9-0.2,1.4-0.2c0.3,0,0.5-0.1,0.8-0.1
			c0.6,0,1.1,0,1.7,0c0.1,0,0.2,0,0.3,0c0.7,0,1.3,0.1,1.9,0.2c0.2,0,0.3,0.1,0.5,0.1c0.5,0.1,1,0.2,1.4,0.4
			c0.1,0.1,0.3,0.1,0.4,0.2c0.6,0.2,1.2,0.5,1.7,0.8l0,0c0,0,0,0,0,0l-27.8-16.1c0,0-0.1-0.1-0.1-0.1c-0.4-0.2-0.9-0.4-1.3-0.6
			c-0.1,0-0.2-0.1-0.2-0.1c-0.1-0.1-0.3-0.1-0.4-0.2c-0.2-0.1-0.4-0.2-0.7-0.2c-0.2-0.1-0.5-0.1-0.7-0.2c-0.2,0-0.3-0.1-0.5-0.1
			c-0.1,0-0.2,0-0.3-0.1c-0.5-0.1-1-0.1-1.6-0.2c0,0-0.1,0-0.1,0c-0.1,0-0.2,0-0.3,0c-0.4,0-0.8,0-1.3,0c-0.1,0-0.3,0-0.4,0
			c-0.3,0-0.5,0-0.8,0.1c-0.2,0-0.5,0-0.7,0.1c-0.2,0-0.4,0.1-0.6,0.1c-0.3,0.1-0.7,0.1-1,0.2c-0.2,0-0.4,0.1-0.6,0.1
			c-0.2,0-0.4,0.1-0.6,0.2c-0.6,0.2-1.2,0.4-1.8,0.6c-0.2,0.1-0.4,0.1-0.6,0.2c-0.1,0-0.2,0.1-0.4,0.2c-1.1,0.5-2.1,1-3.2,1.6
			l-337.8,195c-1.4,0.8-2.7,1.7-4,2.7c-0.2,0.2-0.4,0.3-0.7,0.5c-1.2,1-2.4,2-3.6,3.2c-0.1,0.1-0.2,0.2-0.3,0.3
			c-0.2,0.2-0.4,0.4-0.6,0.6c-0.6,0.6-1.1,1.2-1.7,1.8c-0.2,0.2-0.4,0.4-0.5,0.6c-0.2,0.2-0.3,0.4-0.4,0.5c-0.3,0.4-0.7,0.8-1,1.2
			c-0.2,0.3-0.4,0.5-0.6,0.8c-0.2,0.2-0.3,0.5-0.5,0.7c-0.2,0.3-0.5,0.7-0.7,1c-0.2,0.2-0.3,0.4-0.5,0.6c-0.3,0.4-0.5,0.8-0.8,1.2
			c-0.2,0.3-0.3,0.5-0.5,0.8c-0.1,0.1-0.1,0.2-0.2,0.3c-0.5,0.7-0.9,1.4-1.3,2.2c0,0-0.1,0.1-0.1,0.1c-0.1,0.1-0.2,0.3-0.2,0.4
			c-0.3,0.5-0.6,1-0.9,1.6c-0.1,0.2-0.2,0.5-0.4,0.7c-0.1,0.3-0.3,0.5-0.4,0.8c-0.1,0.2-0.2,0.5-0.3,0.7c-0.3,0.6-0.5,1.2-0.8,1.8
			c-0.1,0.1-0.1,0.2-0.2,0.4c0,0,0,0.1,0,0.1c-0.3,0.8-0.6,1.5-0.9,2.3c-0.1,0.1-0.1,0.3-0.1,0.4c-0.1,0.3-0.2,0.6-0.3,0.8
			c-0.1,0.4-0.3,0.8-0.4,1.2c-0.1,0.3-0.2,0.6-0.3,0.9c-0.1,0.4-0.2,0.7-0.3,1.1c-0.1,0.2-0.1,0.5-0.2,0.7c-0.1,0.4-0.2,0.8-0.3,1.1
			c-0.1,0.4-0.2,0.9-0.3,1.3c0,0.2-0.1,0.3-0.1,0.5c-0.1,0.3-0.1,0.6-0.2,0.9c-0.1,0.7-0.3,1.4-0.3,2c0,0.2-0.1,0.4-0.1,0.6
			c0,0.2,0,0.3,0,0.5c-0.2,1.5-0.3,3-0.3,4.5l0.8,272.6c0,5,1.1,9.1,3.1,12.2c1.2,1.8,2.7,3.2,4.4,4.3l27.8,16.1
			c-4.6-2.7-7.5-8.4-7.5-16.4L174.3,277c0-1.5,0.1-3,0.3-4.5c0-0.4,0.1-0.7,0.1-1.1c0.1-0.7,0.2-1.3,0.3-2c0.1-0.5,0.2-0.9,0.3-1.4
			c0.1-0.4,0.2-0.9,0.3-1.3c0.2-0.6,0.3-1.2,0.5-1.8c0.1-0.4,0.2-0.7,0.3-1.1c0.2-0.7,0.4-1.4,0.7-2.1c0.1-0.3,0.2-0.6,0.3-0.8
			c0.4-0.9,0.7-1.9,1.1-2.8c0.1-0.1,0.1-0.2,0.2-0.4c0.4-0.8,0.8-1.6,1.2-2.5c0.1-0.3,0.3-0.5,0.4-0.8c0.4-0.8,0.8-1.6,1.3-2.3
			c0.1-0.1,0.2-0.3,0.2-0.4c0.5-0.9,1.1-1.8,1.6-2.6c0.2-0.3,0.3-0.5,0.5-0.7c0.4-0.6,0.8-1.2,1.3-1.8c0.2-0.3,0.5-0.7,0.7-1
			c0.4-0.5,0.8-1,1.2-1.5c0.3-0.4,0.7-0.8,1-1.2c0.3-0.4,0.7-0.8,1-1.1c0.6-0.6,1.1-1.2,1.7-1.8c0.3-0.3,0.6-0.6,0.9-0.9
			c1.2-1.1,2.4-2.2,3.6-3.2c0.2-0.2,0.5-0.3,0.7-0.5c1.3-1,2.6-1.9,4-2.7l337.8-195c1.1-0.6,2.1-1.1,3.2-1.6c0.3-0.1,0.7-0.3,1-0.4
			C542.5,35.4,543.1,35.2,543.7,35z"/>
		<g>
			<linearGradient id="SVGID_3_" gradientUnits="userSpaceOnUse" x1="174.3065" y1="300.9344" x2="564.1992" y2="300.9344">
				<stop  offset="0" style="stop-color:#F6F6F9"/>
				<stop  offset="1" style="stop-color:#D7D8D5"/>
			</linearGradient>
			<path class="st7" d="M537.7,37.6c14.1-8.2,25.7-1.6,25.7,14.7l0.8,272.6c0,16.2-11.5,36.1-25.6,44.3l-337.8,195
				c-14.1,8.2-25.7,1.5-25.7-14.7L174.3,277c0-16.2,11.5-36.1,25.6-44.3L537.7,37.6z"/>
		</g>
	</g>
</g>
<linearGradient id="SVGID_4_" gradientUnits="userSpaceOnUse" x1="192.3923" y1="304.9935" x2="540.9701" y2="304.9935">
	<stop  offset="0" style="stop-color:#FFA21E"/>
	<stop  offset="1" style="stop-color:#FFCB27"/>
</linearGradient>
<path class="st8" d="M540.3,93.7c0-13.2-9.5-18.6-21-12l-30.8,17.8c-0.2,0.1-0.3,0.2-0.5,0.3L213.2,258.4
	c-11.5,6.6-20.9,22.9-20.8,36.1l0.6,221.8c0,13.2,9.5,18.6,21,12l30.8-17.8c0.2-0.1,0.3-0.2,0.5-0.3l274.9-158.7
	c11.5-6.6,20.9-22.9,20.8-36.1L540.3,93.7z"/>
<path class="st9" d="M565,109.5c0-13.2-9.5-18.6-21-12l-30.8,17.8c-0.2,0.1-0.3,0.2-0.5,0.3L237.8,274.3
	c-11.5,6.6-20.9,22.9-20.8,36.1l0.6,221.8c0,13.2,9.5,18.6,21,12l30.8-17.8c0.2-0.1,0.3-0.2,0.5-0.3l274.9-158.7
	c11.5-6.6,20.9-22.9,20.8-36.1L565,109.5z"/>
<g>
	<g class="st5">
		<linearGradient id="SVGID_5_" gradientUnits="userSpaceOnUse" x1="169.8331" y1="829.2761" x2="947.4315" y2="829.2761">
			<stop  offset="0" style="stop-color:#D7D8D5"/>
			<stop  offset="1" style="stop-color:#F6F6F9"/>
		</linearGradient>
		<path class="st10" d="M683.8,807.7l-16,9.3c-3.8,1.9-7.6,3.7-11.5,5.4c-1.3,0.6-2.6,1.1-4,1.7c-2.6,1.1-5.2,2.3-7.9,3.4
			c-1.6,0.6-3.2,1.3-4.9,1.9c-2.4,0.9-4.8,1.9-7.3,2.8c-1.8,0.6-3.5,1.2-5.3,1.9c-2.4,0.8-4.7,1.7-7.1,2.4c-1.6,0.5-3.3,1-5,1.5
			c-2.7,0.9-5.5,1.7-8.3,2.5c-1.8,0.5-3.6,1-5.5,1.5c-2.7,0.7-5.3,1.5-8,2.1c-1.9,0.5-3.8,0.9-5.7,1.4c-2.7,0.6-5.3,1.3-8,1.8
			c-2,0.4-3.9,0.9-5.9,1.3c-2.7,0.6-5.4,1.1-8.1,1.6c-1.8,0.3-3.6,0.7-5.4,1c-5.7,1-11.4,1.9-17.1,2.7c-0.4,0.1-0.9,0.1-1.3,0.2
			c-5.4,0.7-10.8,1.4-16.2,1.9c-1.7,0.2-3.4,0.4-5.2,0.5c-3.4,0.3-6.9,0.6-10.3,0.9c-1.7,0.1-3.5,0.3-5.2,0.4
			c-4.2,0.3-8.4,0.5-12.6,0.6c-0.9,0-1.9,0.1-2.8,0.1c-4.9,0.2-9.8,0.3-14.7,0.3c-1.1,0-2.3,0-3.4,0c-3.7,0-7.5,0-11.2-0.1
			c-1.9,0-3.8-0.1-5.8-0.2c-2.8-0.1-5.7-0.2-8.5-0.3c-2-0.1-4.1-0.2-6.1-0.4c-2.7-0.2-5.5-0.3-8.2-0.6c-2.1-0.2-4.2-0.4-6.2-0.5
			c-2.7-0.2-5.3-0.5-8-0.8c-2.1-0.2-4.2-0.5-6.3-0.7c-2.6-0.3-5.3-0.6-7.9-1c-2-0.3-4.1-0.6-6.1-0.9c-2.8-0.4-5.6-0.9-8.4-1.3
			c-2-0.3-3.9-0.7-5.9-1c-2.8-0.5-5.7-1.1-8.5-1.6c-1.8-0.4-3.7-0.7-5.5-1.1c-4.3-0.9-8.5-1.9-12.7-2.9c-0.7-0.2-1.3-0.3-2-0.5
			c-4.8-1.2-9.6-2.5-14.3-3.8c-1.1-0.3-2.1-0.6-3.2-0.9c-4.7-1.4-9.3-2.8-13.9-4.3c-1.3-0.4-2.6-0.9-3.9-1.3
			c-5.3-1.8-10.6-3.7-15.7-5.7c-2.1-0.8-4.2-1.7-6.3-2.6c-1.7-0.7-3.3-1.4-5-2.1c-2.3-1-4.5-2-6.7-3c-1.5-0.7-3-1.4-4.5-2.1
			c-2.5-1.2-4.9-2.4-7.3-3.6c-1.2-0.6-2.4-1.2-3.6-1.8c-3.6-1.9-7.1-3.8-10.5-5.8c-26-15-46.3-32-60.9-50.2
			c-4.2-5.2-7.9-10.5-11.1-15.8c-1.6-2.7-3.1-5.4-4.5-8.1c-8.3-16.3-12.5-33.1-12.4-49.9l-0.4,145.1c-0.1,44.8,29.5,89.7,88.9,124
			c3.4,2,7,3.9,10.5,5.8c1.2,0.6,2.5,1.2,3.7,1.8c2.4,1.2,4.8,2.4,7.2,3.6c1.5,0.7,3,1.4,4.5,2c2.2,1,4.5,2.1,6.7,3
			c1.6,0.7,3.3,1.4,4.9,2c1.9,0.8,3.8,1.6,5.7,2.4c0.2,0.1,0.5,0.2,0.7,0.3c5.2,2,10.4,3.9,15.7,5.7c1.3,0.4,2.6,0.9,3.9,1.3
			c4.6,1.5,9.2,2.9,13.9,4.3c0.7,0.2,1.4,0.5,2.2,0.7c0.3,0.1,0.7,0.2,1,0.3c4.7,1.3,9.5,2.6,14.3,3.8c0.6,0.2,1.3,0.3,2,0.5
			c4.2,1,8.4,2,12.7,2.9c0.5,0.1,1,0.2,1.5,0.3c1.3,0.3,2.7,0.5,4,0.8c2.8,0.6,5.6,1.1,8.5,1.6c2,0.3,3.9,0.7,5.9,1
			c2.8,0.5,5.6,0.9,8.4,1.3c1,0.1,2,0.3,3,0.5c1,0.1,2.1,0.3,3.1,0.4c2.6,0.4,5.2,0.7,7.8,1c2.1,0.2,4.2,0.5,6.3,0.7
			c2.7,0.3,5.3,0.5,8,0.8c1.3,0.1,2.7,0.3,4,0.4c0.7,0.1,1.5,0.1,2.2,0.2c2.7,0.2,5.4,0.4,8.2,0.6c2,0.1,4.1,0.3,6.1,0.4
			c2.8,0.1,5.7,0.2,8.5,0.3c1.5,0.1,3.1,0.1,4.6,0.2c0.4,0,0.8,0,1.2,0c3.7,0.1,7.5,0.1,11.2,0.1c1.2,0,2.3,0,3.5,0
			c4.9,0,9.8-0.1,14.7-0.3c0.1,0,0.3,0,0.4,0c0.8,0,1.6-0.1,2.4-0.1c4.2-0.2,8.4-0.4,12.6-0.6c1.7-0.1,3.5-0.2,5.2-0.4
			c3.4-0.3,6.9-0.5,10.3-0.9c0.9-0.1,1.9-0.1,2.8-0.2c0.8-0.1,1.5-0.2,2.3-0.3c5.4-0.6,10.8-1.2,16.2-1.9c0.4-0.1,0.9-0.1,1.3-0.2
			c5.7-0.8,11.4-1.7,17.1-2.7c0.6-0.1,1.3-0.2,2-0.3c1.2-0.2,2.3-0.5,3.5-0.7c2.7-0.5,5.4-1,8.1-1.6c2-0.4,3.9-0.8,5.9-1.3
			c2.7-0.6,5.3-1.2,8-1.8c1.9-0.5,3.8-0.9,5.7-1.4c2.7-0.7,5.3-1.4,8-2.1c1.8-0.5,3.7-1,5.5-1.5c2.8-0.8,5.5-1.7,8.2-2.5
			c1.3-0.4,2.7-0.8,4-1.2c0.3-0.1,0.7-0.2,1-0.3c2.4-0.8,4.8-1.6,7.1-2.4c1.8-0.6,3.6-1.2,5.3-1.8c2.5-0.9,4.9-1.9,7.3-2.8
			c1.6-0.6,3.2-1.2,4.8-1.9c2.7-1.1,5.3-2.2,7.9-3.4c1.3-0.6,2.7-1.1,4-1.7c3.9-1.7,7.7-3.6,11.5-5.4l16-9.3L947,799.6l0.4-145.1
			L683.8,807.7z"/>
		<g>
			<linearGradient id="SVGID_6_" gradientUnits="userSpaceOnUse" x1="170.2446" y1="633.7532" x2="947.4314" y2="633.7532">
				<stop  offset="0" style="stop-color:#F6F6F9"/>
				<stop  offset="1" style="stop-color:#D7D8D5"/>
			</linearGradient>
			<path class="st11" d="M947.4,654.5L683.8,807.7l-16,9.3c-118.1,58.7-296.4,55.8-408.7-9c-112.7-65.1-118.2-168.4-16.7-236.6
				l14.8-9.4l264.1-153.5L947.4,654.5z"/>
		</g>
	</g>
</g>
<linearGradient id="SVGID_7_" gradientUnits="userSpaceOnUse" x1="98.0135" y1="767.5146" x2="98.0135" y2="529.4808">
	<stop  offset="0" style="stop-color:#FFFFFF;stop-opacity:0"/>
	<stop  offset="1" style="stop-color:#FFC225"/>
</linearGradient>
<path class="st12" d="M98,767.5L98,767.5c-11.1,0-20.3-9.1-20.3-20.3V549.7c0-11.1,9.1-20.3,20.3-20.3h0c11.1,0,20.3,9.1,20.3,20.3
	v197.5C118.3,758.4,109.2,767.5,98,767.5z"/>
<linearGradient id="SVGID_8_" gradientUnits="userSpaceOnUse" x1="641.7468" y1="443.0223" x2="641.7468" y2="204.9886">
	<stop  offset="0" style="stop-color:#FFFFFF;stop-opacity:0"/>
	<stop  offset="1" style="stop-color:#FFCB44"/>
</linearGradient>
<path class="st13" d="M641.7,443L641.7,443c-11.1,0-20.3-9.1-20.3-20.3V225.3c0-11.1,9.1-20.3,20.3-20.3h0
	c11.1,0,20.3,9.1,20.3,20.3v197.5C662,433.9,652.9,443,641.7,443z"/>
<linearGradient id="SVGID_9_" gradientUnits="userSpaceOnUse" x1="828.4982" y1="555.2501" x2="828.4982" y2="317.2164">
	<stop  offset="0" style="stop-color:#FFFFFF;stop-opacity:0"/>
	<stop  offset="1" style="stop-color:#FFC225"/>
</linearGradient>
<path class="st14" d="M828.5,555.3L828.5,555.3c-11.1,0-20.3-9.1-20.3-20.3V337.5c0-11.1,9.1-20.3,20.3-20.3h0
	c11.1,0,20.3,9.1,20.3,20.3V535C848.8,546.1,839.6,555.3,828.5,555.3z"/>
<g>
	<g class="st5">
		<g>
			<defs>
				<path id="SVGID_10_" d="M698.4,581.2l-0.1,48c0.1-25.6-16.8-51.3-50.6-70.8c-67.1-38.7-176-38.7-242.7,0
					c-33.1,19.3-49.7,44.5-49.8,69.8l0.1-48c0.1-25.3,16.7-50.5,49.8-69.8c66.7-38.7,175.5-38.7,242.7,0
					C681.6,529.9,698.5,555.6,698.4,581.2z"/>
			</defs>
			<linearGradient id="SVGID_11_" gradientUnits="userSpaceOnUse" x1="355.2809" y1="555.3099" x2="698.4242" y2="555.3099">
				<stop  offset="0" style="stop-color:#FFCB27"/>
				<stop  offset="1" style="stop-color:#FFA21E"/>
			</linearGradient>
			<use xlink:href="#SVGID_10_"  style="overflow:visible;fill:url(#SVGID_11_);"/>
			<clipPath id="SVGID_12_">
				<use xlink:href="#SVGID_10_"  style="overflow:visible;"/>
			</clipPath>
			<linearGradient id="SVGID_13_" gradientUnits="userSpaceOnUse" x1="355.2809" y1="555.3099" x2="698.4243" y2="555.3099">
				<stop  offset="0" style="stop-color:#FFCB27"/>
				<stop  offset="1" style="stop-color:#FFA21E"/>
			</linearGradient>
			<path class="st15" d="M647.9,510.4c-7.7-4.5-16-8.4-24.7-11.8c-6.7-2.6-13.7-5-20.8-7c-5.8-1.7-11.8-3.1-17.9-4.4
				c-5.6-1.2-11.3-2.1-17-3c-5.5-0.8-11.1-1.4-16.7-1.9c-5.6-0.5-11.3-0.8-16.9-0.9c-5.9-0.1-11.8-0.1-17.6,0.1
				c-6.4,0.2-12.8,0.6-19.1,1.3c-7.4,0.7-14.7,1.8-21.9,3.1c-11.2,2-22.1,4.7-32.5,8.1c-13.4,4.4-26.1,9.9-37.5,16.5
				c-0.7,0.4-1.4,0.8-2.1,1.2c-8.3,5-15.5,10.4-21.7,16c-4,3.7-7.6,7.5-10.6,11.4c-2.6,3.4-4.9,6.8-6.9,10.3
				c-1.8,3.2-3.3,6.5-4.6,9.8c-1.2,3.2-2.1,6.4-2.8,9.7c-0.7,3.3-1,6.6-1.1,9.9c0,0.5,0,1,0,1.5l-0.1,48c0-0.5,0-1,0-1.5
				c0.1-3.3,0.5-6.6,1.1-9.9c0.7-3.2,1.6-6.5,2.8-9.7c1.2-3.3,2.8-6.6,4.6-9.8c2-3.5,4.3-6.9,6.9-10.3c3.1-3.9,6.6-7.7,10.6-11.4
				c6.1-5.7,13.4-11,21.7-16c0.7-0.4,1.4-0.8,2.1-1.2c11.4-6.6,24-12.1,37.5-16.5c10.4-3.4,21.3-6.1,32.5-8.1
				c7.2-1.3,14.5-2.3,21.9-3.1c6.3-0.6,12.7-1.1,19.1-1.3c5.9-0.2,11.8-0.2,17.6-0.1c5.7,0.1,11.3,0.4,16.9,0.9
				c5.6,0.5,11.2,1.1,16.7,1.9c5.7,0.8,11.4,1.8,17,3c6.1,1.3,12,2.7,17.9,4.4c7.1,2,14.1,4.4,20.8,7c8.7,3.4,16.9,7.4,24.7,11.8
				c33.8,19.5,50.6,45.2,50.6,70.8l0.1-48C698.5,555.6,681.6,529.9,647.9,510.4z"/>
		</g>
		<linearGradient id="SVGID_14_" gradientUnits="userSpaceOnUse" x1="281.621" y1="675.3734" x2="772.0446" y2="675.3734">
			<stop  offset="0" style="stop-color:#FFCB27"/>
			<stop  offset="1" style="stop-color:#FFA21E"/>
		</linearGradient>
		<path class="st16" d="M771.9,585.7c-0.1,1.2-0.1,2.5-0.3,3.7c-0.1,1.1-0.3,2.1-0.4,3.2c-0.2,1.2-0.4,2.5-0.6,3.7
			c-0.2,1.1-0.4,2.2-0.7,3.2c-0.3,1.2-0.6,2.4-0.9,3.6c-0.3,1.1-0.6,2.2-0.9,3.2c-0.4,1.2-0.8,2.4-1.2,3.6c-0.4,1.1-0.8,2.1-1.2,3.2
			c-0.5,1.2-1,2.5-1.6,3.7c-0.5,1-0.9,2.1-1.4,3.1c-0.6,1.2-1.2,2.5-1.9,3.7c-0.5,1-1.1,2-1.7,3c-0.9,1.5-1.8,2.9-2.7,4.4
			c-0.6,0.9-1.1,1.7-1.7,2.6c-1.1,1.6-2.3,3.2-3.5,4.8c-0.5,0.7-1,1.3-1.5,2c-2,2.5-4.1,5-6.4,7.4c-0.6,0.6-1.2,1.3-1.8,1.9
			c-1.8,1.9-3.6,3.7-5.5,5.5c-0.9,0.8-1.7,1.7-2.7,2.5c-1.1,1-2.3,2.1-3.5,3.1c-1.1,0.9-2.2,1.9-3.4,2.8c-1.2,1-2.5,2-3.8,3
			c-1.2,0.9-2.4,1.8-3.7,2.7c-1.3,1-2.7,1.9-4.1,2.9c-1.3,0.9-2.6,1.8-3.9,2.7c-1.4,0.9-2.9,1.9-4.4,2.8c-1.9,1.2-3.7,2.3-5.7,3.5
			c-3.7,2.1-7.4,4.1-11.3,6.1c-1.1,0.6-2.2,1.1-3.3,1.7c-3,1.5-6,2.9-9,4.3c-1,0.5-2.1,1-3.1,1.4c-4,1.7-8.1,3.4-12.2,5
			c-0.7,0.3-1.4,0.5-2.1,0.8c-3.5,1.3-7.1,2.6-10.7,3.7c-1.5,0.5-3,1-4.5,1.4c-2,0.6-4,1.2-6,1.8c-1.7,0.5-3.4,1-5.1,1.5
			c-2,0.6-4.1,1.1-6.1,1.6c-1.7,0.4-3.4,0.9-5.2,1.3c-2.1,0.5-4.2,1-6.2,1.4c-1.7,0.4-3.5,0.8-5.2,1.1c-2.1,0.4-4.3,0.9-6.4,1.3
			c-1.6,0.3-3.3,0.6-4.9,0.9c-4.6,0.8-9.2,1.6-13.9,2.2c-0.6,0.1-1.2,0.1-1.8,0.2c-4.1,0.6-8.2,1-12.4,1.5c-1.6,0.2-3.1,0.3-4.7,0.5
			c-2.6,0.2-5.3,0.5-7.9,0.7c-1.6,0.1-3.3,0.2-4.9,0.3c-2.8,0.2-5.5,0.3-8.3,0.4c-1.5,0.1-3.1,0.1-4.6,0.2c-2.4,0.1-4.8,0.1-7.3,0.1
			c-1.6,0-3.3,0.1-4.9,0.1c-2.6,0-5.2,0-7.8-0.1c-1.5,0-2.9,0-4.4-0.1c-2.4-0.1-4.8-0.2-7.2-0.3c-1.6-0.1-3.2-0.1-4.8-0.2
			c-2.7-0.1-5.4-0.3-8-0.5c-1.3-0.1-2.6-0.2-3.9-0.3c-3.6-0.3-7.2-0.7-10.8-1c-0.3,0-0.7-0.1-1-0.1c-3.9-0.4-7.8-0.9-11.7-1.5
			c-0.9-0.1-1.7-0.3-2.6-0.4c-3.1-0.5-6.2-0.9-9.3-1.5c-1.4-0.2-2.8-0.5-4.3-0.8c-2.5-0.5-5-0.9-7.5-1.4c-1.4-0.3-2.7-0.6-4-0.9
			c-2.7-0.6-5.5-1.2-8.2-1.8c-1.5-0.4-3-0.8-4.6-1.1c-2.5-0.6-5-1.3-7.4-2c-1.4-0.4-2.8-0.8-4.2-1.2c-3.9-1.1-7.8-2.4-11.7-3.6
			c-0.6-0.2-1.3-0.4-1.9-0.6c-4.4-1.5-8.7-3.1-13-4.7c-1.7-0.7-3.4-1.4-5.1-2.1c-1.4-0.6-2.7-1.1-4.1-1.7c-1.9-0.8-3.8-1.7-5.7-2.5
			c-1.2-0.6-2.5-1.1-3.7-1.7c-2.1-1-4.1-2-6.1-3c-1-0.5-2-1-3.1-1.5c-3-1.6-5.9-3.2-8.8-4.8c-48.3-27.9-72.4-64.5-72.3-101.2
			l-0.1,48c-0.1,36.6,24,73.3,72.3,101.2c2.9,1.7,5.8,3.3,8.8,4.8c1,0.5,2,1,3,1.5c2,1,4,2,6.1,3c1.2,0.6,2.5,1.1,3.7,1.7
			c1.9,0.9,3.8,1.7,5.7,2.5c1.3,0.6,2.7,1.1,4.1,1.7c1.3,0.5,2.5,1.1,3.8,1.6c0.4,0.2,0.9,0.3,1.3,0.5c4.3,1.7,8.6,3.2,13,4.7
			c0.6,0.2,1.3,0.4,1.9,0.6c3.9,1.3,7.8,2.5,11.7,3.6c0.6,0.2,1.3,0.4,1.9,0.6c0.8,0.2,1.5,0.4,2.3,0.6c2.5,0.7,4.9,1.3,7.4,2
			c1.5,0.4,3,0.8,4.5,1.1c2.7,0.7,5.4,1.3,8.2,1.8c1,0.2,2.1,0.5,3.1,0.7c0.3,0.1,0.6,0.1,0.9,0.2c2.5,0.5,5,1,7.5,1.4
			c1.4,0.3,2.8,0.5,4.2,0.8c3.1,0.5,6.2,1,9.4,1.5c0.8,0.1,1.5,0.3,2.3,0.4c0,0,0.1,0,0.1,0c3.9,0.6,7.8,1,11.7,1.5
			c0.2,0,0.4,0,0.6,0.1c3.7,0.4,7.5,0.8,11.2,1.1c0.1,0,0.1,0,0.2,0c1.3,0.1,2.5,0.2,3.8,0.3c2.7,0.2,5.3,0.4,8,0.5
			c1.6,0.1,3.2,0.1,4.7,0.2c2.4,0.1,4.8,0.2,7.2,0.3c0.2,0,0.4,0,0.6,0c1.3,0,2.6,0,3.9,0c2.6,0,5.2,0.1,7.7,0.1c1.7,0,3.3,0,5-0.1
			c2.4,0,4.8-0.1,7.2-0.1c0.4,0,0.9,0,1.3,0c1.1,0,2.2-0.1,3.3-0.2c2.8-0.1,5.5-0.2,8.3-0.4c1.7-0.1,3.3-0.2,5-0.3
			c2.7-0.2,5.3-0.4,7.9-0.7c0.9-0.1,1.9-0.1,2.8-0.2c0.6-0.1,1.3-0.2,1.9-0.2c4.1-0.4,8.3-0.9,12.4-1.5c0.6-0.1,1.2-0.1,1.8-0.2
			c4.7-0.7,9.3-1.4,13.9-2.2c0.4-0.1,0.9-0.1,1.3-0.2c1.2-0.2,2.4-0.5,3.6-0.7c2.1-0.4,4.3-0.8,6.4-1.3c1.7-0.4,3.5-0.7,5.2-1.1
			c2.1-0.5,4.2-0.9,6.3-1.4c1.7-0.4,3.4-0.9,5.2-1.3c2-0.5,4.1-1.1,6.1-1.6c1.7-0.5,3.4-1,5.1-1.5c2-0.6,4-1.2,6-1.8
			c0.9-0.3,1.8-0.5,2.7-0.8c0.6-0.2,1.2-0.4,1.8-0.6c3.6-1.2,7.2-2.4,10.7-3.8c0.7-0.3,1.4-0.5,2.1-0.8c4.1-1.6,8.2-3.2,12.2-5
			c1-0.5,2.1-0.9,3.1-1.4c3.1-1.4,6.1-2.8,9.1-4.3c1.1-0.5,2.2-1.1,3.3-1.7c3.8-2,7.6-4,11.3-6.1c1-0.6,2-1.2,3-1.8
			c0.9-0.6,1.8-1.1,2.7-1.7c1.5-0.9,3-1.9,4.4-2.8c1.3-0.9,2.6-1.8,3.9-2.6c1.4-1,2.8-1.9,4.1-2.9c1.2-0.9,2.4-1.8,3.6-2.7
			c1.3-1,2.6-2,3.8-3c1.2-0.9,2.3-1.9,3.4-2.8c1.2-1,2.4-2,3.5-3.1c0.5-0.4,1-0.8,1.4-1.2c0.4-0.4,0.8-0.8,1.2-1.2
			c1.9-1.8,3.8-3.6,5.5-5.5c0.6-0.6,1.2-1.3,1.8-1.9c2.2-2.4,4.4-4.9,6.4-7.4c0.1-0.1,0.2-0.2,0.2-0.3c0.4-0.6,0.8-1.1,1.2-1.7
			c1.2-1.6,2.4-3.2,3.5-4.8c0.6-0.9,1.1-1.7,1.7-2.6c0.9-1.5,1.8-2.9,2.7-4.4c0.2-0.4,0.5-0.8,0.7-1.2c0.3-0.6,0.6-1.2,0.9-1.8
			c0.7-1.2,1.3-2.5,1.9-3.7c0.5-1,1-2.1,1.4-3.1c0.6-1.2,1.1-2.5,1.6-3.7c0.2-0.5,0.5-1.1,0.7-1.6c0.2-0.5,0.3-1,0.5-1.5
			c0.4-1.2,0.8-2.4,1.2-3.6c0.3-1.1,0.7-2.2,0.9-3.2c0.3-1.2,0.6-2.4,0.9-3.6c0.1-0.6,0.3-1.3,0.5-1.9c0.1-0.4,0.1-0.9,0.2-1.3
			c0.2-1.2,0.4-2.5,0.6-3.7c0.1-1.1,0.3-2.1,0.4-3.2c0.1-1.2,0.2-2.5,0.3-3.7c0-0.7,0.1-1.4,0.2-2.2c0-0.7,0-1.4,0-2.2l0.1-48
			C772,582.9,771.9,584.3,771.9,585.7z"/>
		<g>
			<g>
				<linearGradient id="SVGID_15_" gradientUnits="userSpaceOnUse" x1="281.7572" y1="580.7126" x2="772.045" y2="580.7126">
					<stop  offset="0" style="stop-color:#FFA21E"/>
					<stop  offset="1" style="stop-color:#FFCB27"/>
				</linearGradient>
				<path class="st17" d="M699.8,480.3c95.9,55.4,96.4,145.5,1.1,200.9c-95.3,55.4-250.9,55.4-346.8,0
					c-96-55.4-96.5-145.5-1.1-200.9C448.2,424.9,603.8,424.9,699.8,480.3z M406,651c67.1,38.7,175.9,38.8,242.7,0
					c66.7-38.7,66.3-101.8-0.8-140.6c-67.1-38.7-176-38.7-242.7,0C338.5,549.2,338.9,612.2,406,651"/>
			</g>
		</g>
	</g>
</g>
<g>
	<linearGradient id="SVGID_16_" gradientUnits="userSpaceOnUse" x1="260.8553" y1="252.0107" x2="500.3829" y2="252.0107">
		<stop  offset="0" style="stop-color:#FBFBFB"/>
		<stop  offset="1" style="stop-color:#FBFBFB"/>
	</linearGradient>
	<path class="st18" d="M489.9,176.3c5.7-3.3,10.4-0.6,10.4,5.9l0,1.3c0,6.6-4.7,14.7-10.4,18L271.3,327.7
		c-5.7,3.3-10.4,0.6-10.4-5.9l0-1.3c0-6.6,4.7-14.6,10.4-17.9L489.9,176.3z"/>
</g>
<g>
	<linearGradient id="SVGID_17_" gradientUnits="userSpaceOnUse" x1="260.8554" y1="315.3336" x2="500.3829" y2="315.3336">
		<stop  offset="0" style="stop-color:#FBFBFB"/>
		<stop  offset="1" style="stop-color:#FBFBFB"/>
	</linearGradient>
	<path class="st19" d="M489.9,239.6c5.7-3.3,10.4-0.6,10.4,5.9l0,1.2c0,6.6-4.7,14.7-10.4,18L271.3,391c-5.7,3.3-10.4,0.6-10.4-5.9
		l0-1.2c0-6.6,4.7-14.7,10.4-18L489.9,239.6z"/>
</g>
<g>
	<linearGradient id="SVGID_18_" gradientUnits="userSpaceOnUse" x1="260.8554" y1="378.659" x2="500.3829" y2="378.659">
		<stop  offset="0" style="stop-color:#FBFBFB"/>
		<stop  offset="1" style="stop-color:#FBFBFB"/>
	</linearGradient>
	<path class="st20" d="M489.9,302.9c5.7-3.3,10.4-0.6,10.4,5.9l0,1.2c0,6.6-4.7,14.7-10.4,18L271.3,454.4
		c-5.7,3.3-10.4,0.6-10.4-5.9l0-1.2c0-6.6,4.7-14.7,10.4-18L489.9,302.9z"/>
</g>
<g>
	<path class="st21" d="M517.4,597.6c0,0-5.5,12-15.5,10.2c0,0-17.7,0-16,9.5c0,0-1.8,6.5,24.9,8c0,0,8.5-1.3,9.2,1.5
		c0,0,14.2,2.5,15.5-3.2c0,0,1.2-17.7-3-27.9L517.4,597.6z"/>
	<path class="st21" d="M550.1,571.2c0,0-11.4-0.6-10.7,6.7c0,0-1.8,12,10.7,15c0,0,5.2,0,7.2,5c0,0,5,7.5,11.2,6
		c0,0,6.7-1.5,5.2-8.2c0,0-1.5-15.5-6-21.4L550.1,571.2z"/>
	<path class="st22" d="M509.2,437.8c0,0-0.2,135.9,4.2,159.3c0,0,2,6.5,10.7,6.7c0,0,10.7,0,13.2-5c0,0,3.2-150.3,1.5-159.5
		C538.9,439.3,509.2,435.5,509.2,437.8z"/>
	<path class="st22" d="M566.6,582.3c2.6-0.8,4.2-1.6,4.2-1.6c-0.2-2.5-9.4-81.3-9.4-81.3c1.1-26.9-3.1-70.3-3.1-70.3l-31.7,10.5
		l1.2,14.5c2.9,21.8,14.5,94,18.7,119.7C546.6,573.7,547.7,586.6,566.6,582.3z"/>
	<path class="st21" d="M569.9,412.9c0,0-2.5,17.8-7.4,24.9c0,0-7.7-5.2-8-6.8s-1.5-10.1-1.5-10.1s7.7-12.3,8-13
		C561,407.9,569.7,411.3,569.9,412.9z"/>
	<path class="st21" d="M519.1,311.9c0,0-11.3,23.7-3,32c0,0,6,2.1,6.1,4.2c0,0,2.9,8,0,11.7c0,0,11.5,5.5,19.6-6c0,0-2.7-5-1.9-17.4
		c0,0,6.1-18-0.5-20.8C539.4,315.8,525.8,309.1,519.1,311.9z"/>
	<path class="st23" d="M525.1,303c0,0-9.9-1.2-9,6.8c0,0-0.6,5.4,9,8.4c0,0,0.7,1.3,0,3.4c0,0-5.8,6.9-0.7,13.8c0,0,2.2,1.1,3.7-1.7
		c0,0,3-1.2,4.1,1.9c0,0,1.1,1.8-2.8,3.5c0,0-2.3,3.2,3,6.5c0,0,3.6,2.4,8.3,0c0,0,0.6-1.1,1.5-3.2c0,0,1.7-2.2,4.3-3.9
		c0,0,8.8-3.7,7.1-16.6C553.5,322,549.8,301,525.1,303z"/>
	<path class="st23" d="M523.2,357.6c0,0-0.5,0.3-1.2,0.8c-3.3,2.1-12.3,8.2-16.5,15.7c0,0-8.9,3-13.1,40.7c0,0-1.8,3-6,0
		c0,0-9.8-4.6-16.6-7.6c0,0-2.9-0.6-4.7,2.5c0,0-2.3,2.3-0.4,8.1c0,0,14.4,16.4,24.8,20.4c0,0,8.7,4.2,12-0.8l6.2-12.5
		c0,0,0.2,6.7-0.8,13c0,0,0.4,6.5,7.9,7.3c0,0,26.5,6.5,44.6-9.8c0,0,2.1-4.5,0-8.2c0,0-3.4-38.1-0.6-48.6c0,0,2.4-1.7,6.4,5.6
		c0,0-3.8,20.6-5.2,24.9c0,0-1.2,0.2-0.1,1.2c0,0,6.2-1.4,10.2,6.4c0,0,0.5,0.4,0.9-2.1c0,0,12.6-29.4,13.6-38.6
		c0,0-0.4-4.5-6.8-10.7c0,0-15.2-21.7-37-14.6"/>
	<path class="st21" d="M465.2,417.1c0,0-0.5-0.5-1.3-1.3c-2.2-2.2-6.7-6.8-8.4-8.2c0,0-1.6-0.7-3.8-0.7c0,0-14.7-5-14.3-10
		c0,0,1.8-0.8,5.5-0.7c0,0,13.1,1.4,13.7,1.6c0,0,2.6,0.5,2.6-1.6c0,0-1.1-6.1,2.2-7.3c0,0,1.7-0.7,2.5,1.8c0,0,0.1,9.3,2.2,11.6
		c0,0,4.5,6.4,5,7.2C471.1,409.4,468.6,418.6,465.2,417.1z"/>
</g>
</svg>
