<?xml version="1.0" encoding="utf-8"?>
<!-- Generator: Adobe Illustrator 21.0.0, SVG Export Plug-In . SVG Version: 6.00 Build 0)  -->
<svg version="1.1" xmlns="http://www.w3.org/2000/svg" xmlns:xlink="http://www.w3.org/1999/xlink" x="0px" y="0px"
	 viewBox="0 0 1024 1024" style="enable-background:new 0 0 1024 1024;" xml:space="preserve">
<style type="text/css">
	.st0{display:none;}
	.st1{display:inline;}
	.st2{opacity:0.25;}
	.st3{display:inline;opacity:0.25;}
	.st4{enable-background:new    ;}
	.st5{fill:url(#SVGID_1_);}
	.st6{fill:url(#SVGID_2_);}
	.st7{fill:url(#SVGID_3_);}
	.st8{fill:url(#SVGID_4_);}
	.st9{fill:url(#SVGID_5_);}
	.st10{fill:#FFFFFF;}
	.st11{fill:url(#SVGID_6_);}
	.st12{fill:url(#SVGID_7_);}
	.st13{fill:url(#SVGID_8_);}
	.st14{fill:url(#SVGID_9_);}
	.st15{fill:url(#SVGID_10_);}
	.st16{fill:#FDFDFD;}
	.st17{fill:url(#SVGID_11_);}
	.st18{opacity:0.44;fill:#FFFFFF;}
	.st19{opacity:0.36;fill:#FFFFFF;}
	.st20{fill:#FFE6A1;}
	.st21{fill:#858A84;}
	.st22{fill:#242100;}
	.st23{fill:#3F2F20;}
	.st24{fill:#E5AD65;}
	.st25{fill:url(#SVGID_12_);}
	.st26{fill:url(#SVGID_13_);}
</style>
<g id="图层_1" class="st0">
	<g id="bg">
		<g id="图层_2" class="st1">
			<g id="图标参考线">
				<g id="图标尺寸" class="st2">
					<path d="M1018.2,5.8v1012.5H5.8V5.8H1018.2 M1024,0H0v1024h1024V0z"/>
					<path d="M512,28.8c266.9,0,483.2,216.4,483.2,483.2S778.9,995.2,512,995.2S28.8,778.9,28.8,512S245.1,28.8,512,28.8 M512,23
						C241.9,23,23,241.9,23,512s218.9,489,489,489s489-218.9,489-489C1000.7,242,782,23.3,512,23z"/>
					<path d="M949.2,74.8v874.4H74.8V74.8H949.2 M955,69H69v886h886V69z"/>
					<path d="M995.2,28.8v966.5H28.8V28.8H995.2 M1001,23H23v978h978V23z"/>
					<path d="M995.2,189.8v644.3H28.8V189.8H995.2 M1001,184.1H23v655.8h978V184.1z"/>
				</g>
			</g>
		</g>
	</g>
	<g id="图标尺寸_1_" class="st3">
		<g>
			<path d="M1017.1,4.6v1010.2H6.9V4.6L1017.1,4.6 M1021.7,0h-6.9H4.6H0v6.9v1010.2v6.9h6.9h1010.2h6.9v-6.9V6.9V0H1021.7z"/>
		</g>
		<g>
			<path d="M512,27.6c266.3,0,482.2,215.8,482.2,482.2S778.3,991.9,512,991.9S29.8,776.1,29.8,509.7S245.7,27.6,512,27.6 M512,23
				c-268.6,0-489,218.1-489,486.7s218.1,486.7,489,486.7s489-218.1,489-486.7S780.6,23,512,23L512,23z"/>
		</g>
		<g>
			<path d="M948.2,73.5V946H75.8V73.5L948.2,73.5 M952.8,68.9h-6.9H73.5h-4.6v6.9v872.5v6.9h6.9h872.5h6.9v-6.9V75.8v-6.9H952.8z"/>
		</g>
		<g>
			<path d="M994.1,27.6v964.3H29.8V27.6L994.1,27.6 M998.7,23h-6.9H27.5h-4.6v6.9v964.3v6.9h6.9h964.3h6.9v-6.9V29.9V23H998.7z"/>
		</g>
		<g>
			<path d="M994.1,188.3v642.9H29.8V188.3L994.1,188.3 M998.7,183.7h-6.9H27.5h-4.6v4.6v642.9v6.9h6.9h964.3h6.9v-6.9V188.3v-4.6
				H998.7z"/>
		</g>
	</g>
</g>
<g id="图层_2_1_">
	<g>
		<g>
			<g class="st4">
				<linearGradient id="SVGID_1_" gradientUnits="userSpaceOnUse" x1="577.9799" y1="682.717" x2="917.6174" y2="682.717">
					<stop  offset="0" style="stop-color:#F6F6F9"/>
					<stop  offset="1" style="stop-color:#D7D8D5"/>
				</linearGradient>
				<path class="st5" d="M917.6,653.8c0,0.8-0.1,1.5-0.4,2.3c0,0.1,0,0.2-0.1,0.2c-0.2,0.7-0.6,1.4-1,2c-0.1,0.1-0.2,0.2-0.2,0.4
					c-0.5,0.7-1.1,1.3-1.7,1.9c-0.4,0.4-1,0.8-1.5,1.1c-0.5,0.3-0.9,0.7-1.4,1l-105.1,61.1c-1.3,0.8-2.8,1.4-4.3,1.9
					c-0.5,0.2-1.1,0.3-1.6,0.5c-0.7,0.2-1.5,0.4-2.2,0.6c-0.9,0.2-1.8,0.3-2.7,0.5c-0.2,0-0.4,0.1-0.7,0.1c-1.2,0.1-2.5,0.2-3.7,0.2
					c-0.2,0-0.4,0-0.6,0c-1.2,0-2.4-0.1-3.6-0.2c-0.2,0-0.4,0-0.6-0.1c-1.2-0.1-2.4-0.3-3.5-0.6c-0.2,0-0.4-0.1-0.6-0.2
					c-1-0.3-2.1-0.6-3-0.9c-0.2-0.1-0.4-0.1-0.6-0.2c-1.2-0.5-2.3-1-3.3-1.6l-190.6-110c-3.2-1.9-5.3-4.2-6.1-6.6
					c-0.3-0.8-0.4-1.6-0.4-2.5l-0.1,33.2c0,3.3,2.1,6.6,6.5,9.1L775,757c1,0.6,2,1.1,3.1,1.5c0.1,0,0.1,0,0.2,0.1
					c0.2,0.1,0.4,0.1,0.6,0.2c0.6,0.2,1.2,0.5,1.9,0.6c0.4,0.1,0.8,0.2,1.1,0.3c0.2,0.1,0.4,0.1,0.6,0.2c0.2,0,0.4,0.1,0.5,0.1
					c0.7,0.1,1.4,0.3,2.2,0.4c0.3,0,0.5,0.1,0.8,0.1c0.2,0,0.4,0,0.6,0.1c0.3,0,0.5,0.1,0.8,0.1c0.7,0.1,1.4,0.1,2.2,0.1
					c0.2,0,0.5,0,0.7,0c0.2,0,0.4,0,0.6,0c0.3,0,0.6,0,1,0c0.8,0,1.6-0.1,2.4-0.2c0.1,0,0.2,0,0.3,0c0.2,0,0.4-0.1,0.7-0.1
					c0.6-0.1,1.3-0.1,1.9-0.3c0.3,0,0.5-0.1,0.8-0.2c0.8-0.2,1.5-0.3,2.2-0.6c0.4-0.1,0.8-0.2,1.2-0.3c0.2-0.1,0.3-0.2,0.5-0.2
					c1.5-0.5,3-1.1,4.3-1.9L911.1,696c0.1-0.1,0.2-0.1,0.3-0.2c0.4-0.3,0.7-0.6,1.1-0.8c0.5-0.4,1.1-0.7,1.5-1.1
					c0,0,0.1-0.1,0.1-0.1c0.5-0.5,1-1,1.4-1.5c0.1-0.1,0.2-0.2,0.2-0.4c0.1-0.1,0.2-0.2,0.2-0.4c0.1-0.2,0.3-0.4,0.4-0.6
					c0.2-0.4,0.4-0.8,0.6-1.3c0-0.1,0-0.1,0.1-0.2c0-0.1,0-0.2,0.1-0.2c0.1-0.3,0.2-0.5,0.2-0.8c0.1-0.4,0.1-0.8,0.1-1.3
					c0-0.1,0-0.1,0-0.2l0,0L917.6,653.8z"/>
				<g>
					<linearGradient id="SVGID_2_" gradientUnits="userSpaceOnUse" x1="578.0742" y1="629.2421" x2="917.6176" y2="629.2421">
						<stop  offset="0" style="stop-color:#D7D8D5"/>
						<stop  offset="1" style="stop-color:#F6F6F9"/>
					</linearGradient>
					<path class="st6" d="M911.2,644.7c8.6,5,8.6,13,0.1,18l-105.1,61.1c-8.5,5-22.5,5-31.1,0l-190.6-110c-8.6-5-8.6-13.1-0.1-18
						l105.1-61.1c8.5-5,22.5-5,31.1,0L911.2,644.7z"/>
				</g>
			</g>
		</g>
		<g>
			<linearGradient id="SVGID_3_" gradientUnits="userSpaceOnUse" x1="598.8382" y1="617.4749" x2="861.6148" y2="617.4749">
				<stop  offset="0" style="stop-color:#E97D08"/>
				<stop  offset="1" style="stop-color:#FFB438"/>
			</linearGradient>
			<path class="st7" d="M856.5,624.5c6.7,3.9,6.8,10.3,0.1,14.2l-89.5,52c-6.7,3.9-17.7,3.9-24.4,0l-138.8-80.1
				c-6.7-3.9-6.7-10.2-0.1-14.1l89.5-52c6.7-3.9,17.7-3.9,24.4,0L856.5,624.5z"/>
		</g>
		<g>
			<linearGradient id="SVGID_4_" gradientUnits="userSpaceOnUse" x1="675.6231" y1="612.02" x2="767.4383" y2="612.02">
				<stop  offset="0" style="stop-color:#F6F6F9"/>
				<stop  offset="1" style="stop-color:#D7D8D5"/>
			</linearGradient>
			<path class="st8" d="M759.5,589.8c4.6,2.7,7.5,6.3,7.5,10.4l0.4,38.4l-66.4-0.1c-7,0-13.3-1.7-17.9-4.3
				c-4.6-2.7-7.5-6.3-7.5-10.4c0-3.9,2.6-7.6,7.3-10.4c4.2-2.4,9.7-3.9,15.6-4.2l0.1,9.8c0,1.7,0.8,3,2.3,3.9
				c1.5,0.9,3.8,1.3,6.8,1.3c6,0,9-1.8,9-5.2l-0.1-15.7l0-0.6l0-2.7c-0.1-3.9,2.6-7.6,7.3-10.4c4.7-2.7,11.2-4.3,17.8-4.3
				C748.6,585.5,754.9,587.1,759.5,589.8z"/>
		</g>
		<g>
			<g>
				<linearGradient id="SVGID_5_" gradientUnits="userSpaceOnUse" x1="810.4219" y1="684.8721" x2="858.3522" y2="684.8721">
					<stop  offset="0" style="stop-color:#D7D8D5"/>
					<stop  offset="1" style="stop-color:#F6F6F9"/>
				</linearGradient>
				<path class="st9" d="M857.9,678.7c0,0.1,0,0.2-0.1,0.3c-0.3,0.8-0.7,1.5-1.1,2.2c-0.1,0.1-0.2,0.3-0.3,0.4
					c-0.5,0.7-1.2,1.4-1.9,2.1c-0.5,0.4-1.1,0.8-1.7,1.2c-0.5,0.4-0.9,0.7-1.5,1.1c-1.4,0.8-3.1,1.5-4.7,2.1
					c-0.6,0.2-1.2,0.4-1.8,0.6c-0.8,0.2-1.6,0.4-2.4,0.6c-1,0.2-1.9,0.4-2.9,0.5c-0.2,0-0.5,0.1-0.7,0.1c-1.3,0.1-2.7,0.2-4,0.2
					c-0.2,0-0.4,0-0.6,0c-1.3,0-2.7-0.1-4-0.2c-0.2,0-0.4,0-0.6-0.1c-1.3-0.2-2.6-0.4-3.8-0.7c-0.2-0.1-0.5-0.1-0.7-0.2
					c-1.1-0.3-2.2-0.6-3.3-1c-0.2-0.1-0.4-0.1-0.6-0.2c-1.3-0.5-2.5-1.1-3.6-1.7c-4.7-2.7-7.1-6.3-7.1-9.9l0,3.5
					c0,3.6,2.4,7.2,7.1,9.9c1.1,0.6,2.2,1.2,3.5,1.7c0.1,0,0.1,0,0.2,0.1c0.2,0.1,0.4,0.1,0.6,0.2c0.7,0.3,1.4,0.5,2.1,0.7
					c0.4,0.1,0.8,0.2,1.2,0.3c0.2,0.1,0.5,0.1,0.7,0.2c0.2,0,0.4,0.1,0.6,0.1c0.8,0.2,1.6,0.3,2.4,0.4c0.3,0,0.6,0.1,0.9,0.1
					c0.2,0,0.4,0,0.6,0.1c0.3,0,0.6,0.1,0.9,0.1c0.8,0.1,1.6,0.1,2.4,0.1c0.3,0,0.5,0,0.8,0c0.2,0,0.4,0,0.6,0c0.4,0,0.7,0,1.1,0
					c0.9,0,1.8-0.1,2.7-0.2c0.1,0,0.2,0,0.3,0c0.2,0,0.5-0.1,0.7-0.1c0.7-0.1,1.4-0.2,2-0.3c0.3-0.1,0.6-0.2,0.9-0.2
					c0.8-0.2,1.6-0.4,2.4-0.6c0.4-0.1,0.9-0.2,1.3-0.3c0.2-0.1,0.3-0.2,0.5-0.2c1.7-0.6,3.3-1.2,4.7-2.1c0.1-0.1,0.2-0.1,0.3-0.2
					c0.5-0.3,0.8-0.6,1.2-0.9c0.6-0.4,1.2-0.8,1.7-1.2c0,0,0.1-0.1,0.2-0.1c0.6-0.5,1.1-1,1.5-1.6c0.1-0.1,0.2-0.3,0.3-0.4
					c0.1-0.1,0.2-0.3,0.3-0.4c0.1-0.2,0.3-0.4,0.4-0.7c0.3-0.4,0.5-0.9,0.6-1.4c0-0.1,0-0.1,0.1-0.2c0-0.1,0-0.2,0.1-0.3
					c0.1-0.3,0.2-0.6,0.3-0.9c0.1-0.5,0.1-0.9,0.2-1.4c0-0.1,0-0.1,0-0.2l0-3.5C858.3,677.1,858.2,677.9,857.9,678.7z"/>
				<g>
					<g>
						<path class="st10" d="M851.3,666.4c9.4,5.4,9.4,14.2,0.1,19.6c-9.3,5.4-24.5,5.4-33.9,0c-9.4-5.4-9.5-14.2-0.1-19.6
							C826.7,661,841.9,661,851.3,666.4z"/>
					</g>
				</g>
			</g>
		</g>
	</g>
	<g>
		<g>
			<g class="st4">
				<linearGradient id="SVGID_6_" gradientUnits="userSpaceOnUse" x1="274.9286" y1="839.5883" x2="624.7454" y2="839.5883">
					<stop  offset="0" style="stop-color:#D7D8D5"/>
					<stop  offset="1" style="stop-color:#EDEDEE"/>
				</linearGradient>
				<path class="st11" d="M624.4,760.6c0,0.1,0,0.1-0.1,0.2c-0.2,0.6-0.6,1.3-1,1.9c-0.1,0.1-0.1,0.2-0.2,0.3
					c-0.4,0.6-1,1.2-1.6,1.8c-0.4,0.4-0.9,0.7-1.4,1.1c-0.4,0.3-0.8,0.6-1.2,0.9l-182,105.8c-1.2,0.7-2.6,1.3-4,1.7
					c-0.5,0.2-1,0.3-1.5,0.5c-0.7,0.2-1.3,0.4-2,0.5c-0.8,0.2-1.6,0.3-2.4,0.4c-0.2,0-0.4,0.1-0.6,0.1c-1.1,0.1-2.2,0.2-3.4,0.2
					c-0.2,0-0.4,0-0.5,0c-1.1,0-2.2-0.1-3.3-0.2c-0.2,0-0.3,0-0.5-0.1c-1.1-0.1-2.2-0.3-3.2-0.6c-0.2,0-0.4-0.1-0.6-0.1
					c-1-0.2-1.9-0.5-2.8-0.9c-0.2-0.1-0.3-0.1-0.5-0.2c-1.1-0.4-2.1-0.9-3.1-1.5L281,798.9c-4-2.3-6-5.3-6-8.3l-0.1,44.8
					c0,3,2,6,6,8.3l127.4,73.5c0.9,0.5,1.9,1,2.9,1.4c0.1,0,0.1,0,0.2,0.1c0.2,0.1,0.3,0.1,0.5,0.2c0.6,0.2,1.2,0.4,1.8,0.6
					c0.3,0.1,0.7,0.2,1,0.2c0.2,0,0.4,0.1,0.6,0.1c0.2,0,0.3,0.1,0.5,0.1c0.7,0.1,1.3,0.3,2,0.3c0.2,0,0.5,0.1,0.7,0.1
					c0.2,0,0.3,0,0.5,0.1c0.2,0,0.5,0.1,0.7,0.1c0.7,0.1,1.3,0.1,2,0.1c0.2,0,0.4,0,0.6,0c0.2,0,0.4,0,0.5,0c0.3,0,0.6,0,0.9,0
					c0.7,0,1.5-0.1,2.2-0.1c0.1,0,0.2,0,0.3,0c0.2,0,0.4-0.1,0.6-0.1c0.6-0.1,1.1-0.1,1.7-0.2c0.3,0,0.5-0.1,0.7-0.2
					c0.7-0.1,1.4-0.3,2-0.5c0.3-0.1,0.7-0.2,1.1-0.3c0.2-0.1,0.3-0.1,0.5-0.2c1.4-0.5,2.8-1,4-1.7l182-105.8c0.1,0,0.2-0.1,0.2-0.1
					c0.4-0.2,0.6-0.5,1-0.7c0.5-0.4,1-0.7,1.4-1.1c0,0,0.1-0.1,0.1-0.1c0.5-0.4,0.9-0.9,1.3-1.3c0.1-0.1,0.1-0.2,0.2-0.3
					c0.1-0.1,0.1-0.2,0.2-0.3c0.1-0.2,0.3-0.4,0.4-0.6c0.2-0.4,0.4-0.8,0.5-1.1c0-0.1,0-0.1,0-0.2c0-0.1,0-0.1,0.1-0.2
					c0.1-0.2,0.2-0.5,0.2-0.7c0.1-0.4,0.1-0.8,0.1-1.2c0-0.1,0-0.1,0-0.2l0.1-44.8C624.7,759.2,624.6,759.9,624.4,760.6z"/>
				<g>
					<linearGradient id="SVGID_7_" gradientUnits="userSpaceOnUse" x1="275.0556" y1="774.5652" x2="624.7455" y2="774.5652">
						<stop  offset="0" style="stop-color:#F1EDEC"/>
						<stop  offset="1" style="stop-color:#ECECEA"/>
					</linearGradient>
					<path class="st12" d="M618.8,750.2c7.9,4.6,7.9,11.9,0.1,16.5l-182,105.8c-7.8,4.5-20.6,4.6-28.5,0L281,798.9
						c-7.9-4.6-7.9-12-0.1-16.5l182-105.8c7.9-4.6,20.6-4.6,28.5,0L618.8,750.2z"/>
				</g>
			</g>
		</g>
	</g>
	<g>
		<g>
			<g class="st4">
				<linearGradient id="SVGID_8_" gradientUnits="userSpaceOnUse" x1="351.617" y1="677.2931" x2="533.9435" y2="677.2931">
					<stop  offset="0" style="stop-color:#D7D8D5"/>
					<stop  offset="1" style="stop-color:#F6F6F9"/>
				</linearGradient>
				<path class="st13" d="M527.6,543c0.7-0.2,1.4-0.4,2.1-0.5c0.1,0,0.1,0,0.2,0c0.7-0.1,1.4,0,2.1,0.1c0,0,0.1,0,0.1,0
					c0.7,0.1,1.3,0.4,1.9,0.7l-38.7-22.5c0,0,0,0-0.1,0c-0.2-0.1-0.4-0.2-0.6-0.3c-0.2-0.1-0.4-0.2-0.7-0.2c-0.1,0-0.3-0.1-0.4-0.1
					c0,0-0.1,0-0.1,0c-0.1,0-0.1,0-0.2,0c-0.3,0-0.5-0.1-0.8-0.1c-0.3,0-0.6,0-0.9,0c-0.1,0-0.2,0-0.3,0c-0.1,0-0.1,0-0.2,0
					c-0.2,0-0.3,0-0.5,0.1c-0.4,0.1-0.7,0.1-1.1,0.2c-0.2,0-0.3,0.1-0.5,0.2c-0.1,0-0.3,0.1-0.4,0.2c-0.2,0.1-0.4,0.1-0.6,0.2
					c-0.6,0.2-1.2,0.5-1.8,0.9L364.4,592c-0.8,0.5-1.6,1-2.4,1.7c-0.3,0.2-0.5,0.4-0.7,0.7c-0.4,0.3-0.8,0.6-1.1,1
					c-0.2,0.2-0.3,0.4-0.5,0.5c-0.1,0.1-0.3,0.3-0.4,0.5c-0.2,0.2-0.3,0.3-0.5,0.5c-0.4,0.4-0.7,0.8-1,1.3c-0.1,0.2-0.2,0.3-0.4,0.5
					c-0.1,0.1-0.1,0.2-0.2,0.2c-0.1,0.1-0.2,0.3-0.3,0.4c-0.3,0.4-0.5,0.7-0.7,1.1c-0.2,0.4-0.5,0.7-0.7,1.1c0,0,0,0.1-0.1,0.1
					c0,0,0,0.1,0,0.1c-0.2,0.3-0.3,0.6-0.5,0.9c-0.2,0.4-0.4,0.7-0.6,1.1c-0.2,0.3-0.3,0.7-0.5,1c0,0,0,0,0,0.1c0,0,0,0,0,0.1
					c-0.2,0.4-0.3,0.8-0.5,1.2c-0.2,0.4-0.3,0.8-0.4,1.2c-0.1,0.2-0.1,0.4-0.2,0.6c0,0.1-0.1,0.2-0.1,0.3c0,0.2-0.1,0.3-0.1,0.5
					c-0.1,0.5-0.3,1-0.4,1.5c-0.1,0.3-0.1,0.6-0.1,0.9c0,0.2-0.1,0.3-0.1,0.5c0,0.1-0.1,0.3-0.1,0.4c-0.1,0.8-0.2,1.7-0.2,2.5
					l0.5,189.8c0,2,0.4,3.7,1,5.1c0.6,1.4,1.6,2.4,2.7,3.1l38.7,22.5c-2.3-1.3-3.7-4.2-3.8-8.2l-0.5-189.8c0-1,0.1-1.9,0.2-2.9
					c0-0.2,0.1-0.3,0.1-0.5c0.2-0.9,0.4-1.9,0.6-2.8c0-0.1,0.1-0.2,0.1-0.3c0.3-1,0.7-2,1.1-3c0,0,0,0,0-0.1c0.4-1,1-2,1.5-3
					c0,0,0-0.1,0.1-0.1c0.5-0.9,1.1-1.9,1.8-2.7c0.1-0.1,0.1-0.2,0.2-0.3c0.6-0.8,1.2-1.5,1.9-2.3c0.1-0.2,0.3-0.3,0.4-0.5
					c0.5-0.5,1.1-1,1.6-1.5c0.2-0.2,0.5-0.4,0.7-0.6c0.8-0.6,1.6-1.2,2.4-1.7l121.7-70.2c0.8-0.5,1.6-0.8,2.4-1.1
					C527.3,543.1,527.5,543,527.6,543z"/>
				<g>
					<linearGradient id="SVGID_9_" gradientUnits="userSpaceOnUse" x1="390.3535" y1="688.9846" x2="538.2393" y2="688.9846">
						<stop  offset="0" style="stop-color:#FBFBFB"/>
						<stop  offset="1" style="stop-color:#FBFBFB"/>
					</linearGradient>
					<path class="st14" d="M524.8,544.2c7.1-4.1,12.9-0.8,12.9,7.3l0.5,189.8c0,8.1-5.7,18.1-12.8,22.2l-121.7,70.2
						c-7.1,4.1-12.9,0.8-12.9-7.3l-0.5-189.8c0-8.1,5.7-18.1,12.8-22.2L524.8,544.2z"/>
				</g>
			</g>
		</g>
	</g>
	<g>
		<g class="st4">
			<linearGradient id="SVGID_10_" gradientUnits="userSpaceOnUse" x1="117.4889" y1="429.6518" x2="688.5042" y2="429.6518">
				<stop  offset="0" style="stop-color:#D7D8D5"/>
				<stop  offset="1" style="stop-color:#F6F6F9"/>
			</linearGradient>
			<path class="st15" d="M668.9,72.1c0.8-0.3,1.7-0.6,2.5-0.9c0.5-0.2,1.1-0.3,1.6-0.4c0.5-0.1,1-0.2,1.5-0.3
				c0.6-0.1,1.3-0.2,1.9-0.3c0.4,0,0.7-0.1,1.1-0.1c0.8-0.1,1.6-0.1,2.3,0c0.2,0,0.3,0,0.5,0c0.9,0.1,1.8,0.2,2.7,0.3
				c0.2,0,0.4,0.1,0.6,0.1c0.7,0.2,1.3,0.3,2,0.6c0.2,0.1,0.4,0.1,0.6,0.2c0.8,0.3,1.6,0.7,2.4,1.1l-38.7-22.5
				c-0.1,0-0.1-0.1-0.2-0.1c-0.6-0.3-1.2-0.6-1.8-0.9c-0.1,0-0.2-0.1-0.3-0.1c-0.2-0.1-0.4-0.1-0.6-0.2c-0.3-0.1-0.6-0.2-0.9-0.3
				c-0.3-0.1-0.7-0.2-1-0.2c-0.2-0.1-0.4-0.1-0.6-0.1c-0.1,0-0.2-0.1-0.4-0.1c-0.7-0.1-1.4-0.2-2.2-0.3c0,0-0.1,0-0.1,0
				c-0.2,0-0.3,0-0.5,0c-0.6,0-1.2,0-1.8,0c-0.2,0-0.4,0-0.6,0.1c-0.4,0-0.7,0.1-1.1,0.1c-0.3,0-0.7,0-1,0.1c-0.3,0-0.6,0.1-0.9,0.2
				c-0.5,0.1-1,0.2-1.5,0.3c-0.3,0.1-0.5,0.1-0.8,0.2c-0.3,0.1-0.5,0.2-0.8,0.3c-0.8,0.2-1.7,0.5-2.5,0.9c-0.3,0.1-0.6,0.2-0.9,0.3
				c-0.2,0.1-0.3,0.2-0.5,0.2c-1.5,0.6-2.9,1.3-4.5,2.2l-471.2,272c-1.1,0.7-2.3,1.4-3.4,2.2c-0.4,0.2-0.7,0.5-1.1,0.8
				c-0.8,0.5-1.5,1.1-2.2,1.7c-0.4,0.3-0.8,0.7-1.2,1c-0.7,0.6-1.4,1.2-2,1.8c-0.4,0.4-0.8,0.7-1.2,1.1c-0.2,0.2-0.5,0.4-0.7,0.7
				c-0.3,0.3-0.5,0.6-0.8,0.8c-0.8,0.8-1.6,1.7-2.4,2.5c-0.2,0.3-0.5,0.5-0.8,0.8c-0.2,0.2-0.4,0.5-0.6,0.8
				c-0.5,0.6-0.9,1.1-1.4,1.7c-0.3,0.4-0.6,0.7-0.9,1.1c-0.2,0.3-0.5,0.7-0.7,1c-0.3,0.4-0.7,0.9-1,1.4c-0.2,0.3-0.5,0.6-0.7,0.9
				c-0.4,0.5-0.7,1.1-1.1,1.6c-0.2,0.3-0.5,0.7-0.7,1c-0.1,0.1-0.2,0.3-0.3,0.4c-0.6,1-1.3,2-1.9,3c0,0.1-0.1,0.1-0.1,0.2
				c-0.1,0.2-0.2,0.4-0.4,0.6c-0.4,0.7-0.8,1.5-1.2,2.2c-0.2,0.3-0.3,0.7-0.5,1c-0.2,0.4-0.4,0.7-0.5,1.1c-0.2,0.3-0.3,0.6-0.5,1
				c-0.4,0.8-0.7,1.6-1.1,2.4c-0.1,0.2-0.2,0.4-0.2,0.5c0,0.1,0,0.1-0.1,0.2c-0.5,1.1-0.9,2.1-1.3,3.2c-0.1,0.2-0.1,0.4-0.2,0.5
				c-0.1,0.4-0.3,0.8-0.4,1.2c-0.2,0.6-0.4,1.1-0.6,1.7c-0.1,0.4-0.2,0.8-0.4,1.2c-0.2,0.5-0.3,1-0.5,1.5c-0.1,0.3-0.2,0.6-0.3,1
				c-0.1,0.5-0.3,1.1-0.4,1.6c-0.2,0.6-0.3,1.2-0.4,1.8c-0.1,0.2-0.1,0.5-0.2,0.7c-0.1,0.4-0.1,0.9-0.2,1.3
				c-0.2,0.9-0.3,1.9-0.5,2.8c0,0.3-0.1,0.5-0.1,0.8c0,0.2,0,0.5,0,0.7c-0.2,2.1-0.4,4.2-0.4,6.2l1.1,380.2c0,11.2,4,19.2,10.5,22.9
				l38.7,22.5c-6.4-3.7-10.4-11.7-10.5-22.9l-1.1-380.2c0-2,0.2-4.1,0.4-6.2c0.1-0.5,0.1-1,0.2-1.5c0.1-0.9,0.3-1.9,0.5-2.8
				c0.1-0.7,0.2-1.3,0.4-2c0.1-0.6,0.3-1.2,0.4-1.8c0.2-0.9,0.4-1.7,0.7-2.6c0.1-0.5,0.3-1,0.5-1.5c0.3-1,0.6-1.9,1-2.9
				c0.1-0.4,0.3-0.8,0.4-1.2c0.5-1.3,1-2.6,1.6-3.9c0.1-0.2,0.2-0.3,0.2-0.5c0.5-1.1,1-2.3,1.6-3.4c0.2-0.4,0.4-0.7,0.5-1.1
				c0.6-1.1,1.1-2.2,1.8-3.2c0.1-0.2,0.2-0.4,0.3-0.6c0.7-1.2,1.5-2.5,2.3-3.7c0.2-0.3,0.5-0.7,0.7-1c0.6-0.9,1.2-1.7,1.8-2.6
				c0.3-0.5,0.7-0.9,1-1.4c0.5-0.7,1.1-1.4,1.6-2.1c0.5-0.6,0.9-1.1,1.4-1.7c0.5-0.5,0.9-1,1.4-1.6c0.8-0.9,1.6-1.7,2.4-2.5
				c0.5-0.5,1-1,1.5-1.5c0.4-0.4,0.8-0.7,1.2-1.1c0.7-0.6,1.4-1.2,2-1.8c0.4-0.3,0.8-0.7,1.2-1c0.7-0.6,1.5-1.2,2.3-1.7
				c0.4-0.3,0.7-0.5,1.1-0.8c1.1-0.8,2.2-1.5,3.4-2.2l471.2-272c1.5-0.9,3-1.6,4.5-2.2C668,72.5,668.5,72.3,668.9,72.1z"/>
			<g>
				<path class="st16" d="M663.1,74.9c19.7-11.4,35.8-2.2,35.9,20.5l1.1,380.2c0.1,22.6-16,50.4-35.7,61.8l-471.2,272
					c-19.7,11.4-35.8,2.2-35.9-20.5l-1.1-380.2c-0.1-22.6,16-50.4,35.7-61.8L663.1,74.9z"/>
			</g>
		</g>
	</g>
	<linearGradient id="SVGID_11_" gradientUnits="userSpaceOnUse" x1="192.8039" y1="443.2468" x2="678.9849" y2="443.2468">
		<stop  offset="0" style="stop-color:#E97D08"/>
		<stop  offset="1" style="stop-color:#FFB438"/>
	</linearGradient>
	<path class="st17" d="M678.1,148.5c-0.1-18.4-13.2-25.9-29.2-16.7L606,156.6c-0.2,0.1-0.5,0.2-0.7,0.4L221.8,378.3
		c-16,9.2-29.1,31.9-29,50.3l0.9,309.4c0.1,18.4,13.2,25.9,29.2,16.7l42.9-24.8c0.2-0.1,0.5-0.2,0.7-0.4L650,508.2
		c16-9.2,29.1-31.9,29-50.3L678.1,148.5z"/>
	<path class="st18" d="M739.4,168.9c-0.1-18.4-13.2-25.9-29.2-16.7L667.2,177c-0.2,0.1-0.5,0.2-0.7,0.4L283.1,398.7
		c-16,9.2-29.1,31.9-29,50.3l0.9,309.4c0.1,18.4,13.2,25.9,29.2,16.7l42.9-24.8c0.2-0.1,0.5-0.2,0.7-0.4l383.4-221.4
		c16-9.2,29.1-31.9,29-50.3L739.4,168.9z"/>
	<path class="st19" d="M777.3,187.7c-0.1-18.4-13.2-25.9-29.2-16.7l-42.9,24.8c-0.2,0.1-0.5,0.2-0.7,0.4L321,417.5
		c-16,9.2-29.1,31.9-29,50.3l0.9,309.4c0.1,18.4,13.2,25.9,29.2,16.7l42.9-24.8c0.2-0.1,0.5-0.2,0.7-0.4l383.4-221.4
		c16-9.2,29.1-31.9,29-50.3L777.3,187.7z"/>
	<g>
		<path id="XMLID_22_" class="st20" d="M574.1,760.4c0,0-5.9-10.5-7.7-10.5s-3-9.3-6-7.1l3,8.7c0,0-7,3.4-1.8,9s12.4,7.4,12.4,7.4
			V760.4z"/>
		<path id="XMLID_20_" class="st21" d="M628.3,960.7c2.1,0.8,3,6,3,6c0.4,2.4-0.2,4.1-0.5,4.8c0,0-0.6,0.9-1.7,1.2
			c-5,1.7-21.8,2.1-28.4-2.6c-7.7-5.5,18.4-9.4,18.4-9.4H628.3"/>
		<path id="XMLID_18_" class="st21" d="M667.1,936.9l-5.4,1c0,0-25,8.6-16.4,12.6s29.8-1.7,29.7-3.7c0,0,0.7-3.6-1.2-6.9
			C673.9,940,671.1,936.2,667.1,936.9z"/>
		<line id="XMLID_15_" class="st22" x1="614.5" y1="964" x2="628.1" y2="964"/>
		<path id="XMLID_13_" class="st22" d="M614.5,963l-2.7-128.4l23.8,2.9l-2.4,54.7l-5,71c-0.1,0.9-1.3,1.2-1.3,1.2
			c-2,0.5-6.2,1.2-11.6-0.2C615.3,964.2,614.5,963.9,614.5,963z"/>
		<path class="st20" d="M649.5,740.1l-3.3-3.8c0.7-0.5,1.2-1.2,1.2-2.1c0-0.9-0.6-1.7-1.4-2.2c2-0.5,4.1-1.6,3.6-4.4
			c-1-5-5.2-7-5.2-7l1.5-8l-8.9-5.4c0,0-19.9,30.5,0,33c1.7,4.5,1.7,4.5,1.7,4.5l11,1.5L649.5,740.1z"/>
		<path id="XMLID_8_" class="st23" d="M642.5,718.9c1.7-1.1,4.3-4.1-3.8-8.6c-7.7-4.3-2.5-7.7,0.7-9.3c0,0,1.8-0.9,6.2-0.4
			c4.4,0.5,11.2,2.9,15.7,8.4c7.1,8.6,7.1,24.2-6,29.8c-9.3,4-11.8-1-12.4-4.2c0,0-0.7-2.3,1.8-3.1c1-0.3,2.2-1.3,3.6-2.8
			c1.2-1.2-0.5-2-0.5-2c-3.8-2.4-5.3-4.7-5.9-6.1C642,720.7,641.4,719.6,642.5,718.9z"/>
		<line class="st24" x1="595.3" y1="789" x2="599.9" y2="789.3"/>
		<path d="M671.2,940"/>
		<path d="M654.4,942.8l-21.6-50.6l2.4-54.7l18.7,2.3l-1.5,53l17.9,44.4c0.3,1.1-0.2,1.6-0.2,1.6c-4.8,4.1-11,5.1-13.8,5.3
			C656.5,944,655,944,654.4,942.8z"/>
		<path class="st24" d="M659.9,760c-2.2-10.9-8.7-16.7-9.5-16.9c-0.8-0.2-12.9-0.8-14.7,0c-0.4,0.2-1.2,0.8-2.2,1.6l0,0l-32.4,23.5
			L600,769c0,0-2.7,1.8-8-1.5L575.2,757c-0.7-0.3-1,0.2-1,0.2c-3.7,4-6.7,11.1-6.7,11.1c0,0,0,0,0.1,0c-0.4,0.8,0.4,1.4,0.4,1.4
			l27.4,19.4c2.4,1.2,4.6,0.3,4.6,0.3l20.6-9.5c0,0-0.5,1.4-1.1,3.1c0,0-8.4,22.9-7.6,55c0.1,4.7,42.5,3,42.5,2.2
			C654.2,839.3,662.1,771,659.9,760z"/>
	</g>
	<g>
		<g>
			<linearGradient id="SVGID_12_" gradientUnits="userSpaceOnUse" x1="425.4914" y1="482.4434" x2="672.0706" y2="482.4434">
				<stop  offset="0" style="stop-color:#FFA21E"/>
				<stop  offset="1" style="stop-color:#FFCB27"/>
			</linearGradient>
			<path class="st25" d="M623.3,297.8c32.1-18.5,48.2-9.3,48.3,27.5l0.5,172.1c0.1,36.9-15.9,64.6-48,83.1l-149.8,86.5
				c-32.1,18.5-48.2,9.3-48.3-27.5l-0.5-172.1c-0.1-36.9,15.9-64.6,48-83.1L623.3,297.8z"/>
		</g>
	</g>
	<g>
		<g>
			<linearGradient id="SVGID_13_" gradientUnits="userSpaceOnUse" x1="499.1143" y1="479.8387" x2="627.5076" y2="479.8387">
				<stop  offset="0" style="stop-color:#F9FAE6"/>
				<stop  offset="1" style="stop-color:#FBFDF0"/>
			</linearGradient>
			<path class="st26" d="M597.5,410.5c7.9-4.6,15.5-5.3,21.1-2.1c11.7,6.8,11.8,28.6,0.1,48.8l-55.3,96.1l-55.6-32
				c-11.7-6.7-11.8-28.5-0.1-48.8c5.6-9.7,13.2-17.7,21.1-22.3c7-4.1,13.8-5.1,19.1-3L534,471.5c-5,8.7-5,14.5,0,17.4
				c2.5,1.4,5,1.4,7.6,0c2.5-1.5,5-4.4,7.5-8.7l22.6-39.2l0.8-1.4l3.9-6.8C582,423.1,589.6,415.1,597.5,410.5z"/>
		</g>
	</g>
</g>
</svg>
