<?xml version="1.0" encoding="utf-8"?>
<!-- Generator: Adobe Illustrator 21.0.0, SVG Export Plug-In . SVG Version: 6.00 Build 0)  -->
<svg version="1.1" id="图层_1" xmlns="http://www.w3.org/2000/svg" xmlns:xlink="http://www.w3.org/1999/xlink" x="0px" y="0px"
	 viewBox="0 0 1024 1024" style="enable-background:new 0 0 1024 1024;" xml:space="preserve">
<style type="text/css">
	.st0{display:none;}
	.st1{display:inline;}
	.st2{opacity:0.25;}
	.st3{display:inline;opacity:0.25;}
	.st4{opacity:0.12;}
	.st5{fill:url(#SVGID_1_);}
	.st6{opacity:0.23;}
	.st7{fill:url(#SVGID_2_);}
	.st8{enable-background:new    ;}
	.st9{fill:url(#SVGID_3_);}
	.st10{fill:url(#SVGID_4_);}
	.st11{fill:url(#SVGID_5_);}
	.st12{fill:#FFFFFF;}
	.st13{fill:url(#SVGID_6_);}
	.st14{fill:url(#SVGID_7_);}
	.st15{fill:url(#SVGID_8_);}
	.st16{fill:#F8921A;}
	.st17{fill:#FFBD30;}
</style>
<g id="图层_1_1_" class="st0">
	<g id="bg" class="st1">
		<g id="图层_2">
			<g id="图标参考线">
				<g id="图标尺寸" class="st2">
					<path d="M1018.2,5.8v1012.5H5.8V5.8H1018.2 M1024,0H0v1024h1024V0z"/>
					<path d="M512,28.8c266.9,0,483.2,216.4,483.2,483.2S778.9,995.2,512,995.2S28.8,778.9,28.8,512S245.1,28.8,512,28.8 M512,23
						C241.9,23,23,241.9,23,512s218.9,489,489,489s489-218.9,489-489C1000.7,242,782,23.3,512,23z"/>
					<path d="M949.2,74.8v874.4H74.8V74.8H949.2 M955,69H69v886h886V69z"/>
					<path d="M995.2,28.8v966.5H28.8V28.8H995.2 M1001,23H23v978h978V23z"/>
					<path d="M995.2,189.8v644.3H28.8V189.8H995.2 M1001,184.1H23v655.8h978V184.1z"/>
				</g>
			</g>
		</g>
	</g>
	<g id="图标尺寸_1_" class="st3">
		<g>
			<path d="M1017.1,4.6v1010.2H6.9V4.6H1017.1 M1021.7,0h-6.9H4.6H0v6.9v1010.2v6.9h6.9h1010.2h6.9v-6.9V6.9V0H1021.7z"/>
		</g>
		<g>
			<path d="M512,27.6c266.3,0,482.2,215.8,482.2,482.2S778.3,991.9,512,991.9S29.8,776.1,29.8,509.7S245.7,27.6,512,27.6 M512,23
				C243.4,23,23,241.1,23,509.7s218.1,486.7,489,486.7s489-218.1,489-486.7S780.6,23,512,23L512,23z"/>
		</g>
		<g>
			<path d="M948.2,73.5V946H75.8V73.5H948.2 M952.8,68.9h-6.9H73.5h-4.6v6.9v872.5v6.9h6.9h872.5h6.9v-6.9V75.8v-6.9H952.8z"/>
		</g>
		<g>
			<path d="M994.1,27.6v964.3H29.8V27.6H994.1 M998.7,23h-6.9H27.5h-4.6v6.9v964.3v6.9h6.9h964.3h6.9v-6.9V29.9V23H998.7z"/>
		</g>
		<g>
			<path d="M994.1,188.3v642.9H29.8V188.3H994.1 M998.7,183.7h-6.9H27.5h-4.6v4.6v642.9v6.9h6.9h964.3h6.9v-6.9V188.3v-4.6H998.7z"
				/>
		</g>
	</g>
</g>
<g class="st4">
	<linearGradient id="SVGID_1_" gradientUnits="userSpaceOnUse" x1="197.8837" y1="480.1106" x2="670.1688" y2="480.1106">
		<stop  offset="0" style="stop-color:#2872FF"/>
		<stop  offset="1" style="stop-color:#398BFF"/>
	</linearGradient>
	<path class="st5" d="M642.1,21.8c14.5-8.4,26.3-1.7,26.4,15l1.7,615c0,16.7-11.7,37-26.2,45.4L226,938.4
		c-14.5,8.4-26.3,1.7-26.4-15l-1.7-615c0-16.7,11.7-37,26.2-45.4L642.1,21.8z"/>
</g>
<g class="st6">
	<linearGradient id="SVGID_2_" gradientUnits="userSpaceOnUse" x1="251.2162" y1="511.2211" x2="723.5013" y2="511.2211">
		<stop  offset="0" style="stop-color:#2872FF"/>
		<stop  offset="1" style="stop-color:#398BFF"/>
	</linearGradient>
	<path class="st7" d="M695.4,52.9c14.5-8.4,26.3-1.7,26.4,15l1.7,615c0,16.7-11.7,37-26.2,45.4l-418,241.3
		c-14.5,8.4-26.3,1.7-26.4-15l-1.7-615c0-16.7,11.7-37,26.2-45.4L695.4,52.9z"/>
</g>
<g>
	<g class="st8">
		<linearGradient id="SVGID_3_" gradientUnits="userSpaceOnUse" x1="329.8232" y1="550.6907" x2="845.6133" y2="550.6907">
			<stop  offset="0" style="stop-color:#6386DB"/>
			<stop  offset="1" style="stop-color:#8EB0EC"/>
		</linearGradient>
		<path class="st9" d="M817.9,153.4c0.8-0.3,1.5-0.6,2.3-0.9c1.1-0.4,2.2-0.8,3.3-1.1c0.7-0.2,1.4-0.4,2.1-0.6
			c0.6-0.2,1.3-0.3,1.9-0.4c0.8-0.2,1.7-0.3,2.5-0.4c0.5-0.1,0.9-0.1,1.4-0.1c1-0.1,2-0.1,3-0.1c0.2,0,0.5,0,0.7,0
			c1.2,0.1,2.3,0.2,3.4,0.4c0.3,0.1,0.5,0.1,0.8,0.2c0.9,0.2,1.7,0.4,2.6,0.7c0.3,0.1,0.5,0.2,0.8,0.3c1.1,0.4,2.1,0.9,3.1,1.4
			l-93.5-54.3c-0.1,0-0.2-0.1-0.3-0.1c-0.8-0.4-1.5-0.8-2.3-1.1c-0.1-0.1-0.3-0.1-0.5-0.2c-0.3-0.1-0.5-0.2-0.8-0.3
			c-0.4-0.1-0.8-0.3-1.2-0.4c-0.4-0.1-0.9-0.2-1.3-0.3c-0.3-0.1-0.5-0.1-0.8-0.2c-0.2,0-0.3-0.1-0.4-0.1c-0.9-0.2-1.9-0.3-2.8-0.3
			c-0.1,0-0.1,0-0.2,0c-0.2,0-0.5,0-0.7,0c-0.7,0-1.5-0.1-2.2,0c-0.2,0-0.5,0.1-0.8,0.1c-0.5,0-0.9,0.1-1.4,0.1
			c-0.4,0-0.9,0.1-1.3,0.1c-0.4,0.1-0.8,0.2-1.2,0.2c-0.6,0.1-1.3,0.3-1.9,0.4c-0.3,0.1-0.7,0.1-1,0.2c-0.3,0.1-0.7,0.3-1,0.4
			c-1.1,0.3-2.2,0.7-3.3,1.1c-0.4,0.2-0.8,0.2-1.2,0.4c-0.4,0.2-0.8,0.4-1.1,0.5c-0.4,0.2-0.7,0.3-1.1,0.5c-1.4,0.7-2.8,1.4-4.3,2.2
			l-342.9,198c-1.5,0.9-3,1.8-4.4,2.8c-0.5,0.3-0.9,0.7-1.4,1c-1,0.7-2,1.4-2.9,2.2c-0.5,0.4-1.1,0.9-1.6,1.3
			c-0.9,0.7-1.8,1.5-2.6,2.3c-0.5,0.5-1.1,1-1.6,1.5c-0.3,0.3-0.7,0.6-1,0.9c-0.3,0.3-0.7,0.7-1,1.1c-1.1,1.1-2.1,2.2-3.1,3.3
			c-0.3,0.4-0.7,0.7-1,1.1c-0.3,0.3-0.5,0.6-0.8,1c-0.6,0.7-1.2,1.5-1.8,2.2c-0.4,0.5-0.8,0.9-1.2,1.4c-0.3,0.4-0.6,0.8-0.9,1.2
			c-0.4,0.6-0.9,1.2-1.3,1.7c-0.3,0.4-0.6,0.8-0.9,1.2c-0.5,0.7-0.9,1.4-1.4,2.1c-0.3,0.4-0.6,0.9-0.9,1.3c-0.1,0.2-0.3,0.4-0.4,0.6
			c-0.8,1.3-1.6,2.6-2.4,3.9c-0.1,0.1-0.1,0.2-0.1,0.3c-0.2,0.3-0.3,0.5-0.5,0.8c-0.5,0.9-1.1,1.9-1.6,2.8c-0.2,0.4-0.5,0.9-0.7,1.3
			c-0.2,0.5-0.5,0.9-0.7,1.4c-0.2,0.4-0.4,0.8-0.6,1.2c-0.5,1.1-1,2.2-1.5,3.3c-0.1,0.2-0.2,0.4-0.3,0.6c0,0.1,0,0.1-0.1,0.2
			c-0.6,1.4-1.2,2.8-1.7,4.2c-0.1,0.3-0.2,0.5-0.3,0.8c-0.2,0.5-0.4,1-0.5,1.5c-0.2,0.7-0.5,1.4-0.8,2.1c-0.2,0.5-0.3,1.1-0.5,1.6
			c-0.2,0.6-0.4,1.3-0.6,1.9c-0.1,0.4-0.3,0.8-0.4,1.2c-0.2,0.7-0.3,1.4-0.5,2.1c-0.2,0.8-0.4,1.6-0.6,2.4c-0.1,0.3-0.1,0.6-0.2,0.8
			c-0.1,0.6-0.2,1.1-0.3,1.7c-0.2,1.2-0.5,2.5-0.6,3.7c0,0.3-0.1,0.7-0.2,1c-0.1,0.8-0.2,1.5-0.2,2.3c-0.1,0.5-0.1,1.1-0.2,1.6
			c-0.1,1.7-0.2,3.4-0.2,5.1l1.5,541.7c0,14.7,5.2,25,13.6,29.8l93.5,54.3c-8.3-4.9-13.5-15.2-13.6-29.8l-1.5-541.7
			c0-1.7,0.1-3.4,0.2-5.1c0-0.5,0.1-1.1,0.2-1.6c0.1-1.1,0.2-2.2,0.4-3.3c0.2-1.2,0.4-2.5,0.6-3.7c0.2-0.8,0.3-1.7,0.5-2.5
			c0.2-0.8,0.4-1.6,0.6-2.4c0.3-1.1,0.6-2.2,0.9-3.3c0.2-0.6,0.4-1.3,0.6-1.9c0.4-1.2,0.8-2.5,1.2-3.7c0.2-0.5,0.4-1,0.5-1.5
			c0.6-1.7,1.3-3.4,2.1-5.1c0.1-0.2,0.2-0.4,0.3-0.6c0.7-1.5,1.4-3,2.1-4.5c0.2-0.5,0.5-0.9,0.7-1.4c0.7-1.4,1.5-2.8,2.3-4.2
			c0.2-0.3,0.3-0.5,0.5-0.8c0.9-1.6,1.9-3.2,2.9-4.8c0.3-0.5,0.6-0.9,0.9-1.3c0.8-1.1,1.5-2.2,2.3-3.3c0.4-0.6,0.9-1.2,1.3-1.7
			c0.7-0.9,1.4-1.8,2.1-2.7c0.6-0.7,1.2-1.5,1.8-2.2c0.6-0.7,1.2-1.3,1.8-2c1-1.1,2-2.2,3.1-3.3c0.7-0.7,1.3-1.3,2-2
			c0.5-0.5,1-1,1.6-1.5c0.9-0.8,1.7-1.5,2.6-2.3c0.5-0.4,1.1-0.9,1.6-1.3c1-0.8,1.9-1.5,2.9-2.2c0.5-0.3,0.9-0.7,1.4-1
			c1.5-1,2.9-2,4.4-2.8l342.9-198c1.4-0.8,2.9-1.5,4.3-2.2C817.2,153.7,817.5,153.6,817.9,153.4z"/>
		<g>
			<linearGradient id="SVGID_4_" gradientUnits="userSpaceOnUse" x1="423.2866" y1="579.4108" x2="860.7186" y2="579.4108">
				<stop  offset="0" style="stop-color:#6386DB"/>
				<stop  offset="1" style="stop-color:#8EB0EC"/>
			</linearGradient>
			<path class="st10" d="M812.5,156.1c25.7-14.8,46.6-2.9,46.7,26.6l1.5,541.7c0.1,29.5-20.7,65.5-46.4,80.3l-342.9,198
				c-25.7,14.8-46.6,2.9-46.7-26.6l-1.5-541.7c-0.1-29.5,20.7-65.5,46.4-80.3L812.5,156.1z"/>
		</g>
	</g>
</g>
<g>
	<linearGradient id="SVGID_5_" gradientUnits="userSpaceOnUse" x1="454.2138" y1="432.3018" x2="846.2838" y2="432.3018">
		<stop  offset="0" style="stop-color:#C6CAD0"/>
		<stop  offset="1" style="stop-color:#C0C9CF"/>
	</linearGradient>
	<path class="st11" d="M833,331.4c0.3-0.2,0.7-0.3,1-0.4c0.1-0.1,0.2-0.1,0.4-0.2c0.3-0.1,0.6-0.2,0.9-0.3c0.1,0,0.2-0.1,0.3-0.1
		c0.4-0.1,0.8-0.2,1.1-0.3c0,0,0.1,0,0.1,0c0.6-0.2,1.2-0.3,1.7-0.4c0,0,0,0,0.1,0c0.5-0.1,0.9-0.1,1.4-0.1c0.1,0,0.2,0,0.3,0
		c0.4,0,0.8,0,1.2,0c0.1,0,0.1,0,0.2,0c0.3,0,0.7,0.1,1,0.1c0.1,0,0.2,0,0.3,0c0.4,0.1,0.7,0.1,1.1,0.2c0,0,0,0,0,0
		c0.3,0.1,0.7,0.2,1,0.3c0.1,0,0.2,0.1,0.3,0.1c0.3,0.1,0.5,0.2,0.8,0.4c0.1,0,0.2,0.1,0.3,0.1L800.1,304c0,0-0.1,0-0.1-0.1
		c0,0-0.1,0-0.1-0.1c-0.3-0.1-0.5-0.3-0.8-0.4c0,0-0.1,0-0.1-0.1c0,0-0.1,0-0.1,0c-0.3-0.1-0.6-0.2-1-0.3c0,0,0,0,0,0l0,0
		c-0.3-0.1-0.7-0.2-1.1-0.2c0,0-0.1,0-0.1,0c-0.1,0-0.1,0-0.2,0c-0.3-0.1-0.6-0.1-1-0.1c0,0-0.1,0-0.1,0c0,0,0,0,0,0
		c-0.4,0-0.8,0-1.2,0c0,0-0.1,0-0.1,0c-0.1,0-0.1,0-0.2,0c-0.5,0-0.9,0.1-1.4,0.1c0,0,0,0,0,0c0,0,0,0,0,0c-0.6,0.1-1.1,0.2-1.7,0.4
		c0,0-0.1,0-0.1,0c0,0,0,0,0,0c-0.4,0.1-0.8,0.2-1.1,0.3c-0.1,0-0.2,0.1-0.3,0.1c-0.3,0.1-0.6,0.2-0.9,0.3c0,0-0.1,0-0.1,0.1
		c-0.1,0-0.2,0.1-0.2,0.1c-0.3,0.1-0.7,0.3-1,0.4c-0.1,0.1-0.3,0.1-0.4,0.2c-0.4,0.2-0.9,0.5-1.3,0.7L475.2,484.3
		c-0.7,0.4-1.3,0.8-2,1.3c-0.2,0.1-0.4,0.3-0.6,0.5c-0.4,0.3-0.9,0.6-1.3,1c-0.2,0.2-0.5,0.4-0.7,0.6c-0.4,0.3-0.8,0.7-1.2,1
		c-0.2,0.2-0.5,0.4-0.7,0.7c-0.1,0.1-0.3,0.3-0.4,0.4c-0.2,0.2-0.3,0.3-0.5,0.5c-0.5,0.5-0.9,1-1.4,1.5c-0.1,0.2-0.3,0.3-0.4,0.5
		c-0.1,0.1-0.2,0.3-0.4,0.4c-0.3,0.3-0.6,0.7-0.8,1c-0.2,0.2-0.4,0.4-0.5,0.6c-0.1,0.2-0.3,0.4-0.4,0.6c-0.2,0.3-0.4,0.5-0.6,0.8
		c-0.1,0.2-0.3,0.4-0.4,0.5c-0.2,0.3-0.4,0.6-0.6,1c-0.1,0.2-0.3,0.4-0.4,0.6c-0.1,0.1-0.1,0.2-0.2,0.2c-0.4,0.6-0.7,1.2-1.1,1.8
		c0,0,0,0.1-0.1,0.1c-0.1,0.1-0.1,0.2-0.2,0.4c-0.2,0.4-0.5,0.9-0.7,1.3c-0.1,0.2-0.2,0.4-0.3,0.6c-0.1,0.2-0.2,0.4-0.3,0.6
		c-0.1,0.2-0.2,0.4-0.3,0.6c-0.2,0.5-0.4,1-0.7,1.4c0,0.1-0.1,0.2-0.1,0.3c0,0,0,0.1,0,0.1c-0.3,0.6-0.5,1.3-0.8,1.9
		c0,0.1-0.1,0.2-0.1,0.3c-0.1,0.2-0.2,0.5-0.2,0.7c-0.1,0.3-0.2,0.7-0.4,1c-0.1,0.2-0.1,0.5-0.2,0.7c-0.1,0.3-0.2,0.6-0.3,0.9
		c-0.1,0.2-0.1,0.4-0.2,0.6c-0.1,0.3-0.2,0.6-0.2,0.9c-0.1,0.4-0.2,0.7-0.3,1.1c0,0.1-0.1,0.3-0.1,0.4c-0.1,0.6-0.2,1.2-0.3,1.7
		c0,0.1,0,0.2-0.1,0.3c0,0.3-0.1,0.5-0.1,0.8c0,0.3-0.1,0.7-0.1,1c0,0.2-0.1,0.5-0.1,0.7c-0.1,0.8-0.1,1.6-0.1,2.3l0,1.1
		c0,4.1,0.9,7.5,2.5,10c1,1.5,2.2,2.7,3.6,3.5l46.2,26.9c-3.8-2.2-6.1-6.9-6.2-13.5l0-1.1c0-0.8,0-1.5,0.1-2.3c0-0.2,0-0.5,0.1-0.7
		c0.1-0.6,0.1-1.2,0.2-1.8c0-0.1,0-0.2,0.1-0.3c0.1-0.7,0.3-1.4,0.4-2.1c0.1-0.4,0.2-0.7,0.3-1.1c0.1-0.5,0.3-1,0.4-1.5
		c0.1-0.3,0.2-0.6,0.3-0.9c0.2-0.6,0.4-1.1,0.6-1.7c0.1-0.2,0.2-0.5,0.2-0.7c0.3-0.8,0.6-1.5,0.9-2.3c0-0.1,0.1-0.2,0.1-0.3
		c0.3-0.7,0.6-1.3,0.9-2c0.1-0.2,0.2-0.4,0.3-0.6c0.3-0.6,0.7-1.3,1-1.9c0.1-0.1,0.1-0.2,0.2-0.4c0.4-0.7,0.9-1.5,1.3-2.2
		c0.1-0.2,0.3-0.4,0.4-0.6c0.3-0.5,0.7-1,1-1.5c0.2-0.3,0.4-0.5,0.6-0.8c0.3-0.4,0.6-0.8,0.9-1.2c0.3-0.3,0.5-0.7,0.8-1
		c0.3-0.3,0.5-0.6,0.8-0.9c0.5-0.5,0.9-1,1.4-1.5c0.3-0.3,0.6-0.6,0.9-0.9c0.2-0.2,0.5-0.4,0.7-0.7c0.4-0.4,0.8-0.7,1.2-1
		c0.2-0.2,0.5-0.4,0.7-0.6c0.4-0.3,0.9-0.7,1.3-1c0.2-0.2,0.4-0.3,0.6-0.5c0.7-0.5,1.3-0.9,2-1.3l309.9-178.9
		c0.4-0.3,0.9-0.5,1.3-0.7C832.8,331.5,832.9,331.4,833,331.4z"/>
	<g>
		<path class="st12" d="M831.3,332.3c11.6-6.7,21.1-1.3,21.1,12l0,1.1c0,13.3-9.4,29.6-21,36.3L521.5,560.6
			c-11.6,6.7-21.1,1.3-21.1-12l0-1.1c0-13.3,9.4-29.6,21-36.3L831.3,332.3z"/>
	</g>
</g>
<g>
	<linearGradient id="SVGID_6_" gradientUnits="userSpaceOnUse" x1="454.2138" y1="615.6321" x2="846.2838" y2="615.6321">
		<stop  offset="0" style="stop-color:#C6CAD0"/>
		<stop  offset="1" style="stop-color:#C0C9CF"/>
	</linearGradient>
	<path class="st13" d="M833,514.7c0.3-0.2,0.7-0.3,1-0.4c0.1-0.1,0.2-0.1,0.4-0.2c0.3-0.1,0.6-0.2,0.9-0.3c0.1,0,0.2-0.1,0.3-0.1
		c0.4-0.1,0.8-0.2,1.1-0.3c0,0,0.1,0,0.1,0c0.6-0.2,1.2-0.3,1.7-0.4c0,0,0,0,0.1,0c0.5-0.1,0.9-0.1,1.4-0.1c0.1,0,0.2,0,0.3,0
		c0.4,0,0.8,0,1.2,0c0.1,0,0.1,0,0.2,0c0.3,0,0.7,0.1,1,0.1c0.1,0,0.2,0,0.3,0c0.4,0.1,0.7,0.1,1.1,0.2c0,0,0,0,0,0
		c0.3,0.1,0.7,0.2,1,0.3c0.1,0,0.2,0.1,0.3,0.1c0.3,0.1,0.5,0.2,0.8,0.4c0.1,0,0.2,0.1,0.3,0.1l-46.2-26.9c0,0-0.1,0-0.1-0.1
		c0,0-0.1,0-0.1-0.1c-0.3-0.1-0.5-0.3-0.8-0.4c0,0-0.1,0-0.1-0.1c0,0-0.1,0-0.1,0c-0.3-0.1-0.6-0.2-1-0.3c0,0,0,0,0,0l0,0
		c-0.3-0.1-0.7-0.2-1.1-0.2c0,0-0.1,0-0.1,0c-0.1,0-0.1,0-0.2,0c-0.3-0.1-0.6-0.1-1-0.1c0,0-0.1,0-0.1,0c0,0,0,0,0,0
		c-0.4,0-0.8,0-1.2,0c0,0-0.1,0-0.1,0c-0.1,0-0.1,0-0.2,0c-0.5,0-0.9,0.1-1.4,0.1c0,0,0,0,0,0c0,0,0,0,0,0c-0.6,0.1-1.1,0.2-1.7,0.4
		c0,0-0.1,0-0.1,0c0,0,0,0,0,0c-0.4,0.1-0.8,0.2-1.1,0.3c-0.1,0-0.2,0.1-0.3,0.1c-0.3,0.1-0.6,0.2-0.9,0.3c0,0-0.1,0-0.1,0.1
		c-0.1,0-0.2,0.1-0.2,0.1c-0.3,0.1-0.7,0.3-1,0.4c-0.1,0.1-0.3,0.1-0.4,0.2c-0.4,0.2-0.9,0.5-1.3,0.7L475.2,667.7
		c-0.7,0.4-1.3,0.8-2,1.3c-0.2,0.1-0.4,0.3-0.6,0.5c-0.4,0.3-0.9,0.6-1.3,1c-0.2,0.2-0.5,0.4-0.7,0.6c-0.4,0.3-0.8,0.7-1.2,1
		c-0.2,0.2-0.5,0.4-0.7,0.7c-0.1,0.1-0.3,0.3-0.4,0.4c-0.2,0.2-0.3,0.3-0.5,0.5c-0.5,0.5-0.9,1-1.4,1.5c-0.1,0.2-0.3,0.3-0.4,0.5
		c-0.1,0.1-0.2,0.3-0.4,0.4c-0.3,0.3-0.6,0.7-0.8,1c-0.2,0.2-0.4,0.4-0.5,0.6c-0.1,0.2-0.3,0.4-0.4,0.6c-0.2,0.3-0.4,0.5-0.6,0.8
		c-0.1,0.2-0.3,0.4-0.4,0.5c-0.2,0.3-0.4,0.6-0.6,1c-0.1,0.2-0.3,0.4-0.4,0.6c-0.1,0.1-0.1,0.2-0.2,0.2c-0.4,0.6-0.7,1.2-1.1,1.8
		c0,0,0,0.1-0.1,0.1c-0.1,0.1-0.1,0.2-0.2,0.4c-0.2,0.4-0.5,0.9-0.7,1.3c-0.1,0.2-0.2,0.4-0.3,0.6c-0.1,0.2-0.2,0.4-0.3,0.6
		c-0.1,0.2-0.2,0.4-0.3,0.6c-0.2,0.5-0.4,1-0.7,1.4c0,0.1-0.1,0.2-0.1,0.3c0,0,0,0.1,0,0.1c-0.3,0.6-0.5,1.3-0.8,1.9
		c0,0.1-0.1,0.2-0.1,0.3c-0.1,0.2-0.2,0.5-0.2,0.7c-0.1,0.3-0.2,0.7-0.4,1c-0.1,0.2-0.1,0.5-0.2,0.7c-0.1,0.3-0.2,0.6-0.3,0.9
		c-0.1,0.2-0.1,0.4-0.2,0.6c-0.1,0.3-0.2,0.6-0.2,0.9c-0.1,0.4-0.2,0.7-0.3,1.1c0,0.1-0.1,0.3-0.1,0.4c-0.1,0.6-0.2,1.2-0.3,1.7
		c0,0.1,0,0.2-0.1,0.3c0,0.3-0.1,0.5-0.1,0.8c0,0.3-0.1,0.7-0.1,1c0,0.2-0.1,0.5-0.1,0.7c-0.1,0.8-0.1,1.6-0.1,2.3l0,1.1
		c0,4.1,0.9,7.5,2.5,10c1,1.5,2.2,2.7,3.6,3.5l46.2,26.9c-3.8-2.2-6.1-6.9-6.2-13.5l0-1.1c0-0.8,0-1.5,0.1-2.3c0-0.2,0-0.5,0.1-0.7
		c0.1-0.6,0.1-1.2,0.2-1.8c0-0.1,0-0.2,0.1-0.3c0.1-0.7,0.3-1.4,0.4-2.1c0.1-0.4,0.2-0.7,0.3-1.1c0.1-0.5,0.3-1,0.4-1.5
		c0.1-0.3,0.2-0.6,0.3-0.9c0.2-0.6,0.4-1.1,0.6-1.7c0.1-0.2,0.2-0.5,0.2-0.7c0.3-0.8,0.6-1.5,0.9-2.3c0-0.1,0.1-0.2,0.1-0.3
		c0.3-0.7,0.6-1.3,0.9-2c0.1-0.2,0.2-0.4,0.3-0.6c0.3-0.6,0.7-1.3,1-1.9c0.1-0.1,0.1-0.2,0.2-0.4c0.4-0.7,0.9-1.5,1.3-2.2
		c0.1-0.2,0.3-0.4,0.4-0.6c0.3-0.5,0.7-1,1-1.5c0.2-0.3,0.4-0.5,0.6-0.8c0.3-0.4,0.6-0.8,0.9-1.2c0.3-0.3,0.5-0.7,0.8-1
		c0.3-0.3,0.5-0.6,0.8-0.9c0.5-0.5,0.9-1,1.4-1.5c0.3-0.3,0.6-0.6,0.9-0.9c0.2-0.2,0.5-0.4,0.7-0.7c0.4-0.4,0.8-0.7,1.2-1
		c0.2-0.2,0.5-0.4,0.7-0.6c0.4-0.3,0.9-0.7,1.3-1c0.2-0.2,0.4-0.3,0.6-0.5c0.7-0.5,1.3-0.9,2-1.3l309.9-178.9
		c0.4-0.3,0.9-0.5,1.3-0.7C832.8,514.8,832.9,514.7,833,514.7z"/>
	<g>
		<linearGradient id="SVGID_7_" gradientUnits="userSpaceOnUse" x1="500.4257" y1="629.7719" x2="852.4377" y2="629.7719">
			<stop  offset="0" style="stop-color:#FBFBFB"/>
			<stop  offset="1" style="stop-color:#FBFBFB"/>
		</linearGradient>
		<path class="st14" d="M831.3,515.6c11.6-6.7,21.1-1.3,21.1,12l0,1.1c0,13.3-9.4,29.6-21,36.3L521.5,744
			c-11.6,6.7-21.1,1.3-21.1-12l0-1.1c0-13.3,9.4-29.6,21-36.3L831.3,515.6z"/>
	</g>
</g>
<g>
	<linearGradient id="SVGID_8_" gradientUnits="userSpaceOnUse" x1="454.2138" y1="798.9623" x2="846.2838" y2="798.9623">
		<stop  offset="0" style="stop-color:#C6CAD0"/>
		<stop  offset="1" style="stop-color:#C0C9CF"/>
	</linearGradient>
	<path class="st15" d="M833,698c0.3-0.2,0.7-0.3,1-0.4c0.1-0.1,0.2-0.1,0.4-0.2c0.3-0.1,0.6-0.2,0.9-0.3c0.1,0,0.2-0.1,0.3-0.1
		c0.4-0.1,0.8-0.2,1.1-0.3c0,0,0.1,0,0.1,0c0.6-0.2,1.2-0.3,1.7-0.4c0,0,0,0,0.1,0c0.5-0.1,0.9-0.1,1.4-0.1c0.1,0,0.2,0,0.3,0
		c0.4,0,0.8,0,1.2,0c0.1,0,0.1,0,0.2,0c0.3,0,0.7,0.1,1,0.1c0.1,0,0.2,0,0.3,0c0.4,0.1,0.7,0.1,1.1,0.2c0,0,0,0,0,0
		c0.3,0.1,0.7,0.2,1,0.3c0.1,0,0.2,0.1,0.3,0.1c0.3,0.1,0.5,0.2,0.8,0.4c0.1,0,0.2,0.1,0.3,0.1l-46.2-26.9c0,0-0.1,0-0.1-0.1
		c0,0-0.1,0-0.1-0.1c-0.3-0.1-0.5-0.3-0.8-0.4c0,0-0.1,0-0.1-0.1c0,0-0.1,0-0.1,0c-0.3-0.1-0.6-0.2-1-0.3c0,0,0,0,0,0c0,0,0,0,0,0
		c-0.3-0.1-0.7-0.2-1.1-0.2c0,0-0.1,0-0.1,0c-0.1,0-0.1,0-0.2,0c-0.3-0.1-0.6-0.1-1-0.1c0,0-0.1,0-0.1,0c0,0,0,0,0,0
		c-0.4,0-0.8,0-1.2,0c0,0-0.1,0-0.1,0c-0.1,0-0.1,0-0.2,0c-0.5,0-0.9,0.1-1.4,0.1c0,0,0,0,0,0c0,0,0,0,0,0c-0.6,0.1-1.1,0.2-1.7,0.4
		c0,0-0.1,0-0.1,0c0,0,0,0,0,0c-0.4,0.1-0.8,0.2-1.1,0.3c-0.1,0-0.2,0.1-0.3,0.1c-0.3,0.1-0.6,0.2-0.9,0.3c0,0-0.1,0-0.1,0.1
		c-0.1,0-0.2,0.1-0.2,0.1c-0.3,0.1-0.7,0.3-1,0.4c-0.1,0.1-0.3,0.1-0.4,0.2c-0.4,0.2-0.9,0.5-1.3,0.7L475.2,851
		c-0.7,0.4-1.3,0.8-2,1.3c-0.2,0.1-0.4,0.3-0.6,0.5c-0.4,0.3-0.9,0.6-1.3,1c-0.2,0.2-0.5,0.4-0.7,0.6c-0.4,0.3-0.8,0.7-1.2,1
		c-0.2,0.2-0.5,0.4-0.7,0.7c-0.1,0.1-0.3,0.3-0.4,0.4c-0.2,0.2-0.3,0.3-0.5,0.5c-0.5,0.5-0.9,1-1.4,1.5c-0.1,0.2-0.3,0.3-0.4,0.5
		c-0.1,0.1-0.2,0.3-0.4,0.4c-0.3,0.3-0.6,0.7-0.8,1c-0.2,0.2-0.4,0.4-0.5,0.6c-0.1,0.2-0.3,0.4-0.4,0.6c-0.2,0.3-0.4,0.5-0.6,0.8
		c-0.1,0.2-0.3,0.4-0.4,0.5c-0.2,0.3-0.4,0.6-0.6,1c-0.1,0.2-0.3,0.4-0.4,0.6c-0.1,0.1-0.1,0.2-0.2,0.2c-0.4,0.6-0.7,1.2-1.1,1.8
		c0,0,0,0.1-0.1,0.1c-0.1,0.1-0.1,0.2-0.2,0.4c-0.2,0.4-0.5,0.9-0.7,1.3c-0.1,0.2-0.2,0.4-0.3,0.6c-0.1,0.2-0.2,0.4-0.3,0.6
		c-0.1,0.2-0.2,0.4-0.3,0.6c-0.2,0.5-0.4,1-0.7,1.4c0,0.1-0.1,0.2-0.1,0.3c0,0,0,0.1,0,0.1c-0.3,0.6-0.5,1.3-0.8,1.9
		c0,0.1-0.1,0.2-0.1,0.3c-0.1,0.2-0.2,0.5-0.2,0.7c-0.1,0.3-0.2,0.7-0.4,1c-0.1,0.2-0.1,0.5-0.2,0.7c-0.1,0.3-0.2,0.6-0.3,0.9
		c-0.1,0.2-0.1,0.4-0.2,0.6c-0.1,0.3-0.2,0.6-0.2,0.9c-0.1,0.4-0.2,0.7-0.3,1.1c0,0.1-0.1,0.3-0.1,0.4c-0.1,0.6-0.2,1.2-0.3,1.7
		c0,0.1,0,0.2-0.1,0.3c0,0.3-0.1,0.5-0.1,0.8c0,0.3-0.1,0.7-0.1,1c0,0.2-0.1,0.5-0.1,0.7c-0.1,0.8-0.1,1.6-0.1,2.3l0,1.1
		c0,4.1,0.9,7.5,2.5,10c1,1.5,2.2,2.7,3.6,3.5l46.2,26.9c-3.8-2.2-6.1-6.9-6.2-13.5l0-1.1c0-0.8,0-1.5,0.1-2.3c0-0.2,0-0.5,0.1-0.7
		c0.1-0.6,0.1-1.2,0.2-1.8c0-0.1,0-0.2,0.1-0.3c0.1-0.7,0.3-1.4,0.4-2.1c0.1-0.4,0.2-0.7,0.3-1.1c0.1-0.5,0.3-1,0.4-1.5
		c0.1-0.3,0.2-0.6,0.3-0.9c0.2-0.6,0.4-1.1,0.6-1.7c0.1-0.2,0.2-0.5,0.2-0.7c0.3-0.8,0.6-1.5,0.9-2.3c0-0.1,0.1-0.2,0.1-0.3
		c0.3-0.7,0.6-1.3,0.9-2c0.1-0.2,0.2-0.4,0.3-0.6c0.3-0.6,0.7-1.3,1-1.9c0.1-0.1,0.1-0.2,0.2-0.4c0.4-0.7,0.9-1.5,1.3-2.2
		c0.1-0.2,0.3-0.4,0.4-0.6c0.3-0.5,0.7-1,1-1.5c0.2-0.3,0.4-0.5,0.6-0.8c0.3-0.4,0.6-0.8,0.9-1.2c0.3-0.3,0.5-0.7,0.8-1
		c0.3-0.3,0.5-0.6,0.8-0.9c0.5-0.5,0.9-1,1.4-1.5c0.3-0.3,0.6-0.6,0.9-0.9c0.2-0.2,0.5-0.4,0.7-0.7c0.4-0.4,0.8-0.7,1.2-1
		c0.2-0.2,0.5-0.4,0.7-0.6c0.4-0.3,0.9-0.7,1.3-1c0.2-0.2,0.4-0.3,0.6-0.5c0.7-0.5,1.3-0.9,2-1.3l309.9-178.9
		c0.4-0.3,0.9-0.5,1.3-0.7C832.8,698.1,832.9,698.1,833,698z"/>
	<g>
		<path class="st12" d="M831.3,698.9c11.6-6.7,21.1-1.3,21.1,12l0,1.1c0,13.3-9.4,29.6-21,36.3L521.5,927.3
			c-11.6,6.7-21.1,1.3-21.1-12l0-1.1c0-13.3,9.4-29.6,21-36.3L831.3,698.9z"/>
	</g>
</g>
<g class="st8">
	<path class="st16" d="M592.9,172.1c0,0-0.1-0.1-0.1-0.1c0,0-0.1,0-0.2-0.1c-0.3-0.2-0.6-0.3-0.9-0.4c-0.1,0-0.1-0.1-0.2-0.1
		c0,0-0.1,0-0.1,0c-0.4-0.1-0.7-0.3-1.1-0.4c0,0,0,0,0,0c0,0,0,0,0,0c-0.4-0.1-0.8-0.2-1.2-0.3c0,0-0.1,0-0.1,0c-0.1,0-0.1,0-0.2,0
		c-0.4-0.1-0.7-0.1-1.1-0.1c-0.1,0-0.1,0-0.2,0c0,0,0,0-0.1,0c-0.4,0-0.9,0-1.4,0c0,0-0.1,0-0.1,0c-0.1,0-0.1,0-0.2,0
		c-0.5,0-1,0.1-1.6,0.2c0,0,0,0,0,0c-0.3,0.1-0.7,0.1-1,0.2c-0.1,0-0.2,0-0.3,0.1c-0.3,0.1-0.5,0.1-0.8,0.2c0,0,0,0-0.1,0
		c-0.4,0.1-0.8,0.2-1.3,0.4c-0.1,0-0.2,0.1-0.3,0.1c-0.3,0.1-0.7,0.2-1,0.4c0,0-0.1,0-0.1,0.1c-0.1,0-0.2,0.1-0.3,0.1
		c-0.4,0.2-0.7,0.3-1.1,0.5c-0.1,0.1-0.3,0.1-0.4,0.2c-0.5,0.2-1,0.5-1.5,0.8l-102.5,59.2c-0.6,0.4-1.2,0.7-1.8,1.2
		c-0.1,0.1-0.2,0.1-0.3,0.2c-0.6,0.4-1.2,0.8-1.7,1.3c-0.1,0.1-0.2,0.2-0.3,0.3c-0.6,0.5-1.2,0.9-1.7,1.4c0,0-0.1,0.1-0.1,0.1
		c-0.5,0.5-1.1,1-1.6,1.5c-0.1,0.1-0.1,0.1-0.2,0.2c0,0-0.1,0.1-0.1,0.1c-0.4,0.4-0.7,0.8-1.1,1.1c0,0-0.1,0.1-0.1,0.1
		c-0.4,0.4-0.8,0.9-1.2,1.3c0,0-0.1,0.1-0.1,0.1c0,0-0.1,0.1-0.1,0.1c-0.6,0.7-1.2,1.4-1.8,2.1c0,0,0,0,0,0.1c0,0.1-0.1,0.1-0.1,0.2
		c-0.5,0.6-0.9,1.2-1.3,1.8c0,0.1-0.1,0.1-0.1,0.2c0,0,0,0.1-0.1,0.1c-0.4,0.6-0.8,1.2-1.2,1.8c0,0.1-0.1,0.1-0.1,0.2
		c-0.1,0.1-0.1,0.2-0.2,0.3c-0.3,0.5-0.6,1-0.9,1.5c0,0.1-0.1,0.2-0.1,0.2c0,0,0,0.1-0.1,0.1c-0.3,0.6-0.7,1.2-1,1.8
		c0,0-0.1,0.1-0.1,0.1c-0.1,0.1-0.1,0.2-0.1,0.3c-0.3,0.5-0.5,1-0.7,1.4c0,0.1-0.1,0.2-0.1,0.3c0,0.1-0.1,0.1-0.1,0.2
		c-0.3,0.6-0.6,1.2-0.8,1.8c0,0,0,0,0,0.1c0,0.1-0.1,0.1-0.1,0.2c-0.2,0.5-0.5,1.1-0.7,1.6c0,0.1-0.1,0.2-0.1,0.3
		c0,0.1,0,0.1-0.1,0.2c-0.2,0.7-0.5,1.3-0.7,2c0,0,0,0,0,0.1c0,0.1,0,0.1,0,0.2c-0.2,0.7-0.4,1.3-0.6,2c0,0.1-0.1,0.2-0.1,0.2
		c0,0,0,0.1,0,0.1c-0.2,0.8-0.4,1.6-0.6,2.4c0,0.1,0,0.1-0.1,0.2c0,0.1,0,0.2-0.1,0.3c-0.1,0.3-0.1,0.6-0.2,0.9
		c0,0.2-0.1,0.4-0.1,0.6c-0.1,0.3-0.1,0.6-0.1,1c0,0.2,0,0.3-0.1,0.5c0,0,0,0.1,0,0.1c-0.1,0.7-0.2,1.3-0.2,2c0,0.1,0,0.3,0,0.4
		c0,0.7-0.1,1.4-0.1,2l0,33.8l0.1,25.3l0.2,83.5l0.1,25.3l39.2,22.8l-0.1-25.3l-0.2-83.5l-0.1-25.3l0-33.8c0-0.7,0-1.3,0.1-2
		c0-0.1,0-0.3,0-0.4c0-0.7,0.1-1.3,0.2-2c0-0.2,0.1-0.4,0.1-0.6c0-0.3,0.1-0.6,0.1-1c0-0.2,0.1-0.4,0.1-0.6c0.1-0.3,0.1-0.6,0.2-0.9
		c0-0.2,0.1-0.3,0.1-0.5c0.2-0.8,0.4-1.6,0.6-2.4c0-0.1,0.1-0.3,0.1-0.4c0.2-0.7,0.4-1.3,0.6-2c0-0.1,0-0.1,0.1-0.2
		c0.2-0.7,0.5-1.3,0.7-2c0.1-0.2,0.1-0.3,0.2-0.5c0.2-0.5,0.4-1.1,0.7-1.6c0-0.1,0.1-0.2,0.1-0.3c0.3-0.6,0.5-1.2,0.8-1.8
		c0.1-0.2,0.2-0.3,0.2-0.5c0.2-0.5,0.5-1,0.7-1.4c0.1-0.1,0.2-0.3,0.2-0.4c0.3-0.6,0.6-1.2,1-1.8c0.1-0.1,0.1-0.2,0.2-0.3
		c0.3-0.5,0.6-1,0.9-1.5c0.1-0.1,0.2-0.3,0.3-0.4c0.4-0.6,0.8-1.2,1.2-1.8c0.1-0.1,0.1-0.2,0.2-0.3c0.4-0.6,0.9-1.2,1.3-1.8
		c0.1-0.1,0.1-0.1,0.2-0.2c0.6-0.7,1.2-1.5,1.8-2.1c0.1-0.1,0.1-0.2,0.2-0.2c0.4-0.4,0.8-0.9,1.2-1.3c0,0,0.1-0.1,0.1-0.1
		c0.4-0.4,0.7-0.8,1.1-1.1c0.1-0.1,0.2-0.2,0.3-0.3c0.5-0.5,1.1-1,1.6-1.5c0,0,0.1-0.1,0.1-0.1c0.6-0.5,1.1-1,1.7-1.4
		c0.1-0.1,0.2-0.2,0.3-0.3c0.6-0.4,1.1-0.9,1.7-1.3c0.1-0.1,0.2-0.1,0.3-0.2c0.6-0.4,1.2-0.8,1.8-1.2l102.5-59.2
		c0.5-0.3,1-0.5,1.5-0.8c0.1-0.1,0.3-0.1,0.4-0.2c0.4-0.2,0.7-0.3,1.1-0.5c0.1-0.1,0.3-0.1,0.4-0.2c0.3-0.1,0.7-0.3,1-0.4
		c0.1,0,0.2-0.1,0.3-0.1c0.4-0.1,0.9-0.3,1.3-0.4c0.3-0.1,0.6-0.1,0.8-0.2c0.1,0,0.2,0,0.3-0.1c0.4-0.1,0.7-0.1,1.1-0.2
		c0.5-0.1,1.1-0.1,1.6-0.2c0.1,0,0.2,0,0.3,0c0.5,0,0.9,0,1.4,0c0.1,0,0.1,0,0.2,0c0.4,0,0.7,0.1,1.1,0.1c0.1,0,0.2,0,0.3,0.1
		c0.4,0.1,0.8,0.2,1.2,0.3c0,0,0,0,0,0c0.4,0.1,0.7,0.2,1.1,0.4c0.1,0,0.2,0.1,0.3,0.1c0.3,0.1,0.6,0.3,0.9,0.4
		c0.1,0.1,0.2,0.1,0.3,0.1L592.9,172.1z"/>
	<g>
		<path class="st17" d="M615.2,196.4c13-7.5,23.7-1.4,23.7,13.5l0.1,47.6c0,0.8,0,1.6-0.1,2.4l0,9.1l0.2,83.5l0.1,25.3l-75,7.6
			l-74.8,78.9l-0.1-25.3l-0.2-83.5l-0.1-25.3l0-33.8c0-14.9,10.6-33.3,23.6-40.8L615.2,196.4z"/>
	</g>
</g>
</svg>
