<?xml version="1.0" encoding="UTF-8"?>
<svg width="244px" height="244px" viewBox="0 0 244 244" version="1.1" xmlns="http://www.w3.org/2000/svg" xmlns:xlink="http://www.w3.org/1999/xlink">
    <title>Illustration/代理</title>
    <defs>
        <filter x="-19.7%" y="-19.7%" width="139.5%" height="139.5%" filterUnits="objectBoundingBox" id="filter-1">
            <feGaussianBlur stdDeviation="10" in="SourceGraphic"></feGaussianBlur>
        </filter>
        <polygon id="path-2" points="0.103057714 0.324894087 67.7386787 0.324894087 67.7386787 53.2200661 0.103057714 53.2200661"></polygon>
        <filter x="-45.2%" y="-75.7%" width="190.3%" height="251.4%" filterUnits="objectBoundingBox" id="filter-4">
            <feGaussianBlur stdDeviation="8.58000034" in="SourceGraphic"></feGaussianBlur>
        </filter>
        <filter x="-41.0%" y="-83.3%" width="182.1%" height="266.7%" filterUnits="objectBoundingBox" id="filter-5">
            <feGaussianBlur stdDeviation="10" in="SourceGraphic"></feGaussianBlur>
        </filter>
    </defs>
    <g id="Illustration/代理" stroke="none" stroke-width="1" fill="none" fill-rule="evenodd">
        <g id="代理">
            <rect id="矩形" fill-opacity="0" fill="#D8D8D8" x="0" y="0" width="244" height="244"></rect>
            <g id="编组-27" transform="translate(5.000000, 16.000000)">
                <g id="编组" transform="translate(0.000000, 41.000000)">
                    <path d="M190.103399,103.454895 C189.125806,111.452239 186.899416,119.064853 183.626685,126.090912 C180.100412,133.67199 175.363814,140.571907 169.65593,146.544688 C159.854768,156.812571 147.196511,164.336887 132.967797,167.849916 C127.108544,169.300538 120.984395,170.069999 114.683648,170.069999 C113.497922,170.069999 112.312196,170.04477 111.139084,169.9817 C70.8117808,168.133733 38.683648,134.857717 38.683648,94.0699987 C38.683648,90.601119 38.917009,87.1890029 39.3648099,83.8399572 C39.6934074,81.3991273 40.1349012,78.9961398 40.6955982,76.6309946 C41.1181709,74.8460983 41.597507,73.0864302 42.1462207,71.3519904 C48.3460547,51.5036917 62.4744862,35.1621149 80.8217061,26.0168867 C91.0195816,20.9334012 102.517341,18.0699987 114.683648,18.0699987 C116.550536,18.0699987 118.399134,18.1393763 120.227548,18.2718244 C159.6151,21.1099987 190.683648,53.9634427 190.683648,94.0699987 C190.683648,97.2487539 190.488129,100.377053 190.103399,103.454895 Z" id="Fill-1" fill-opacity="0.28" fill="#B9C0C8" filter="url(#filter-1)"></path>
                    <g id="编组-25">
                        <path d="M189.954042,75.4811963 C189.954042,78.6382522 189.759858,81.745196 189.377754,84.8020279 C188.406834,92.7447795 186.195642,100.305427 182.945252,107.283523 C179.44305,114.81285 174.738786,121.665666 169.069867,127.597674 C159.335611,137.795465 146.763764,145.268417 132.63218,148.757465 C126.812925,150.198185 120.730581,150.962393 114.472845,150.962393 C113.295213,150.962393 112.117581,150.937337 110.952477,150.874697 C70.9004634,149.039345 38.991649,115.990482 38.991649,75.4811963 C38.991649,72.0359965 39.223417,68.6471727 39.668161,65.3209888 C39.9945153,62.8968209 40.4329953,60.5102371 40.9898649,58.1612372 C41.4095529,56.3885253 41.8856169,54.6408693 42.4305848,52.9182694 C48.5880965,33.2054624 62.6200822,16.9754392 80.8420574,7.89263962 C90.9703185,2.84385586 102.38959,-3.2969182e-13 114.472845,-3.2969182e-13 C116.326989,-3.2969182e-13 118.162968,0.0689039966 119.978901,0.20044799 C159.097579,3.01924785 189.954042,35.6484223 189.954042,75.4811963" id="Fill-1" fill="#E8EEF6"></path>
                        <path d="M127.170286,127.265682 C124.777438,129.871506 124.489294,134.174873 126.512566,137.075105 C128.096731,139.348937 130.822198,140.714489 132.12511,143.157449 C133.045918,144.886313 133.089766,146.840681 132.632494,148.757465 C126.813238,150.198185 120.730894,150.962393 114.472532,150.962393 C113.295527,150.962393 112.117895,150.937337 110.952164,150.874697 C70.9007766,149.039345 38.9913358,115.990482 38.9913358,75.4811963 C38.9913358,72.0359965 39.2237302,68.6471727 39.6684742,65.3209888 C46.2957858,64.9889968 52.9669455,65.8221088 59.5378812,66.8681967 C61.7797667,67.2252447 64.192033,67.6950447 65.7267129,69.3737966 C68.7021127,72.6185485 66.7095344,78.3626362 69.4531663,81.8141 C71.4770646,84.3635479 75.1790884,84.5953159 78.4294779,84.7894999 C78.8560563,84.8145559 79.3189658,84.8584039 79.6453202,85.1402839 C80.2216082,85.6476678 80.0399522,86.5622118 79.9084082,87.3201558 C79.2068402,91.5107715 81.9504721,95.6763313 85.5460079,97.9313712 C89.1478078,100.192675 93.4574395,100.938091 97.6543193,101.620867 C100.704887,102.115723 104.131295,102.522883 106.624367,100.687531 C109.242719,98.7644832 109.787687,95.1376274 110.125943,91.9054035 C110.35082,89.6942116 112.211855,88.2973397 114.141167,88.2973397 C115.105822,88.2973397 116.083006,88.6481237 116.878534,89.4185957 C124.576364,96.8727553 130.346134,106.331395 133.359118,116.616882 C133.728694,117.875946 134.054422,119.19765 133.78507,120.48177 C133.102294,123.632562 129.349531,124.891626 127.170286,127.265682" id="Fill-3" fill="#D6DFE9"></path>
                        <path d="M189.954042,75.4811963 C189.954042,78.6382522 189.759858,81.745196 189.377754,84.8020279 C187.661418,85.0337959 185.869914,84.2821159 184.23501,83.2798759 C182.900778,82.465556 181.16565,83.3800999 181.128066,84.9398359 C181.128066,84.9523639 181.121802,84.9648919 181.121802,84.9774199 C181.015314,89.4749716 180.909452,93.9787874 180.802964,98.4763392 C180.752852,100.756435 180.720906,103.149283 181.779522,105.172555 C181.91733,105.429379 182.067666,105.679939 182.23053,105.917971 C182.518674,106.350187 182.756706,106.807459 182.945252,107.283523 C179.44305,114.81285 174.738786,121.665666 169.069867,127.597674 L168.324451,126.739506 C168.462259,120.206154 169.570987,113.729178 169.852867,107.202091 C170.134747,100.681267 169.539667,93.9161474 166.520419,88.1219477 C163.144123,81.6575 157.118155,77.0597243 151.286998,72.6749245 C149.394644,71.2592605 147.50918,69.8373326 145.617452,68.4154047 C144.784966,67.7890047 143.9387,67.1563407 142.980308,66.7491808 C141.984332,66.3294928 140.906924,66.1666288 139.842044,66.0225568 C136.177604,65.5277008 132.494999,65.2082368 128.798613,65.0829568 C127.859013,65.0453728 126.863037,65.0391088 126.043079,65.5089088 C126.029925,65.5151728 126.011133,65.5277008 125.992967,65.5402288 C123.249335,67.2001887 119.715813,66.3294928 118.2444,63.4793729 C117.648693,62.320533 117.097461,61.136637 116.602605,59.9276851 C116.170389,58.8815971 115.769493,57.7290212 116.070792,56.6390852 C116.33388,55.7120133 117.053613,54.9979173 117.748917,54.3339334 L123.918957,48.4144536 C125.228133,47.1553897 124.614261,44.9316698 122.841549,44.5558298 C122.804591,44.5495658 122.772645,44.5433018 122.741325,44.5370378 C120.348477,44.0421819 119.415767,41.11063 121.037517,39.2878061 L123.987861,35.9741503 C126.826079,32.7795104 129.838437,29.1275986 129.701255,24.8555508 C129.606669,22.0116949 128.110199,19.4309271 127.101069,16.7687272 C126.099455,14.1065273 125.666613,10.8367195 127.458117,8.62552758 C127.796999,8.2058396 128.228589,7.74856762 128.115837,7.22865565 C128.015613,6.76511967 127.527647,6.50829568 127.089167,6.31411169 C124.846655,5.32439974 122.603517,4.32842379 120.355367,3.33871184 C119.765925,3.07562385 119.139525,2.78747986 119.108205,1.91051991 C119.083149,1.23400794 119.446461,0.61387197 119.978901,0.20044799 C159.097579,3.01924785 189.954042,35.6484223 189.954042,75.4811963" id="Fill-5" fill="#D6DFE9"></path>
                        <path d="M89.7251606,56.3121045 C95.5738571,54.9471789 101.706939,53.1625654 105.750351,48.7213896 C107.522437,46.7757913 108.784006,44.4242858 109.905888,42.0433396 C111.21757,39.2608709 112.364508,36.4007286 113.33856,33.483584 C113.899815,31.8035793 114.407825,30.0095697 114.01194,28.2832114 C113.289701,25.1305404 109.522532,23.3196181 106.374245,24.0606492 C103.225333,24.801054 100.832485,27.5271467 99.6855465,30.5514057 C98.8223674,32.8271168 98.4747154,35.4329407 96.7702811,37.1699478 C95.7085331,38.2523669 94.2509004,38.8449413 93.0532236,39.7757717 C91.8730861,40.6934476 90.9742021,41.9174332 90.0916046,43.1245059 C89.0073062,44.607821 87.9223815,46.0911362 86.8380831,47.5744513 C86.2711912,48.349308 85.6786168,49.2030912 85.7105632,50.162736 C85.7349928,50.9000087 86.128372,51.5690039 86.5211248,52.1935247 C87.3417087,53.4983158 88.2098991,54.7736661 89.1231902,56.0151909 L89.7251606,56.3121045 Z" id="Fill-7" fill="#D6DFE9"></path>
                        <path d="M79.100227,20.5082097 C77.816107,22.5001616 77.1583871,25.2563215 78.567787,27.1605774 C78.974947,27.7055454 79.5574989,28.2317213 79.5199149,28.9082333 C79.4948589,29.3467133 79.206715,29.7225533 78.924835,30.0670733 C75.4796351,34.2576891 71.5082593,38.0160889 67.1359875,41.2357847 C66.2464996,41.8872407 65.3194276,42.5449607 64.6992917,43.4595046 C64.1480597,44.2863526 63.8849717,45.2635365 63.6719957,46.2344565 C63.0957077,48.8340163 62.8075638,51.4962162 62.8200918,54.1584161 C62.8269822,55.599136 62.8576758,57.2089839 61.8742278,58.2613359 C60.4209799,59.8085438 57.877796,59.1257678 55.9046361,58.3365039 C51.4133483,56.532472 46.9220605,54.7221761 42.4307727,52.9181441 C48.5882844,33.2053371 62.6196438,16.9753139 80.8416189,7.89251434 C81.4993388,8.74441829 82.1570588,9.60258625 82.8147788,10.4544902 C83.2532588,11.0182502 83.6980027,11.6133302 83.8483387,12.3086341 C84.0174667,13.1605381 83.7167947,14.037498 83.3158988,14.801706 C82.2196988,16.9001459 80.3843469,18.5225218 79.100227,20.5082097" id="Fill-9" fill="#D6DFE9"></path>
                        <path d="M63.4769452,72.8185825 C61.8489317,72.8185825 60.5266014,71.4956258 60.5266014,69.8682387 C60.5266014,68.2402252 61.8489317,66.9172684 63.4769452,66.9172684 C65.1049588,66.9172684 66.4279155,68.2402252 66.4279155,69.8682387 C66.4279155,71.4956258 65.1049588,72.8185825 63.4769452,72.8185825 M70.0466281,64.9253165 C68.419241,62.7078606 65.9455875,61.5960007 63.4769452,61.5960007 C61.0089294,61.5960007 58.5346495,62.7078606 56.9072624,64.9253165 C55.1414408,67.3357036 54.8370105,70.5121778 56.1104816,73.2119617 L62.4540341,86.6664067 C62.8624469,87.5320914 64.0914436,87.5320914 64.4998564,86.6664067 L70.8440353,73.2119617 C71.3652001,72.105113 71.6207712,70.9205906 71.6207712,69.7398267 C71.6207712,68.0385244 71.0895841,66.346618 70.0466281,64.9253165" id="Fill-11" fill="#1967FF"></path>
                        <path d="M93.8227532,40.8544528 C92.868746,40.8544528 92.0932629,40.0789696 92.0932629,39.1249625 C92.0932629,38.1703289 92.868746,37.3954722 93.8227532,37.3954722 C94.7767603,37.3954722 95.5528699,38.1703289 95.5528699,39.1249625 C95.5528699,40.0789696 94.7767603,40.8544528 93.8227532,40.8544528 M97.6738602,36.2272362 C96.719853,34.9274563 95.2703635,34.2760003 93.8227532,34.2760003 C92.3751429,34.2760003 90.9256533,34.9274563 89.9716462,36.2272362 C88.936207,37.6403946 88.757683,39.5026817 89.5043518,41.084968 L93.2232884,48.9725964 C93.4625732,49.4799804 94.1829332,49.4799804 94.422218,48.9725964 L98.141781,41.084968 C98.4468378,40.436644 98.5965474,39.7419665 98.5965474,39.0497945 C98.5965474,38.0525657 98.2852266,37.0603482 97.6738602,36.2272362" id="Fill-13" fill="#1967FF"></path>
                        <path d="M98.3507102,94.5342005 C97.0565678,94.5342005 96.0042159,93.4818486 96.0042159,92.1870798 C96.0042159,90.8929375 97.0565678,89.8399591 98.3507102,89.8399591 C99.6454789,89.8399591 100.697831,90.8929375 100.697831,92.1870798 C100.697831,93.4818486 99.6454789,94.5342005 98.3507102,94.5342005 M103.577392,88.25642 C102.281996,86.4918513 100.3151,85.6080009 98.3507102,85.6080009 C96.3869463,85.6080009 94.4200503,86.4918513 93.1246552,88.25642 C91.7208929,90.1725775 91.4778497,92.699475 92.4913648,94.8474005 L97.5370166,105.549444 C97.8621182,106.237858 98.8399285,106.237858 99.1650301,105.549444 L104.210055,94.8474005 C104.625359,93.9673085 104.828939,93.0245766 104.828939,92.085603 C104.828939,90.7319527 104.406119,89.3864456 103.577392,88.25642" id="Fill-15" fill="#1967FF"></path>
                        <path d="M145.613184,37.2452274 C143.692642,37.2452274 142.1304,35.6836122 142.1304,33.7624435 C142.1304,31.8419012 143.692642,30.2802861 145.613184,30.2802861 C147.534353,30.2802861 149.095968,31.8419012 149.095968,33.7624435 C149.095968,35.6836122 147.534353,37.2452274 145.613184,37.2452274 M153.368016,27.929407 C151.446847,25.3116815 148.52657,24 145.613184,24 C142.699798,24 139.780147,25.3116815 137.858979,27.929407 C135.775572,30.7732629 135.416019,34.5228931 136.918752,37.7093897 L144.406111,53.5898818 C144.887813,54.6115401 146.338555,54.6115401 146.820883,53.5898818 L154.308242,37.7093897 C154.92274,36.4033458 155.225291,35.0045947 155.225291,33.6114811 C155.225291,31.6032428 154.598265,29.6069061 153.368016,27.929407" id="Fill-17" fill="#1967FF"></path>
                        <path d="M205.026227,65.6013654 C200.391494,68.5015973 195.34271,71.4519412 189.943142,74.421077 C180.321012,79.7229264 169.579506,85.1043285 158.073165,90.3873858 C157.139202,90.8164698 156.059289,90.361077 155.652129,89.4170923 C155.643359,89.3964211 155.633963,89.3757499 155.625194,89.3550787 C155.22555,88.4430403 155.60327,87.3819188 156.507791,86.9666156 C168.591047,81.4210967 179.821145,75.770969 189.773388,70.2179332 C194.496444,67.5933174 198.931982,64.9812295 203.034275,62.4129896 C231.43525,44.6608145 230.47122,37.6827188 229.988892,36.4675029 C229.832292,36.0728709 229.292962,35.1896469 227.502084,34.412911 C225.704317,33.629911 222.653749,32.953399 217.479685,32.953399 C211.954837,32.953399 204.005822,33.723871 192.580286,35.9789109 C188.683452,36.7493829 184.605588,37.6451348 180.371751,38.6661668 C179.739087,37.5198548 179.068839,36.3923349 178.366644,35.2836069 C183.059007,34.137295 187.562822,33.135055 191.853662,32.2894151 C216.796909,27.3721753 230.80885,28.3117753 233.484204,35.0831589 C236.165196,41.8545426 226.587541,52.1275021 205.026227,65.6013654" id="Fill-19" fill="#1967FF" opacity="0.300000012"></path>
                        <path d="M134.923238,98.2961866 C134.938272,98.3331442 134.954558,98.3694754 134.970845,98.4058066 C135.38051,99.3347577 134.987758,100.419682 134.048158,100.805545 C131.392222,101.895481 128.713109,102.973515 126.012072,104.043406 C102.128068,113.489518 78.8134611,121.169181 58.6490196,126.280605 C52.8429183,127.752645 47.2992786,129.012335 42.0744764,130.045269 C31.5954314,132.112389 23.0450718,133.145949 16.4553441,133.145949 C7.35939013,133.145949 1.99803279,131.179679 0.438296867,127.251525 C-2.236431,120.480768 7.34059813,110.213446 28.9012851,96.7333187 C32.4911833,94.4908068 36.3247511,92.2169749 40.3769325,89.930615 C40.6218549,91.2084709 40.9031085,92.4737989 41.2163085,93.7265988 C14.5886722,108.954382 2.02308879,121.031373 3.9336087,125.867181 C4.81683265,128.103429 9.00682205,129.350591 16.1859921,129.350591 C25.0620797,129.350591 38.5039966,127.446336 55.9429718,123.136704 C74.5288853,118.538302 97.6555721,111.216312 124.627728,100.548094 C127.313105,99.4857201 129.976558,98.4145762 132.614954,97.329025 C133.521982,96.9556906 134.537376,97.3954234 134.923238,98.2961866" id="Fill-21" fill="#1967FF" opacity="0.300000012"></path>
                        <path d="M13.7491083,130.195793 C13.7491083,133.309627 11.2253428,135.833393 8.11150857,135.833393 C4.99767433,135.833393 2.47390885,133.309627 2.47390885,130.195793 C2.47390885,127.081959 4.99767433,124.558193 8.11150857,124.558193 C11.2253428,124.558193 13.7491083,127.081959 13.7491083,130.195793" id="Fill-23" fill="#1967FF"></path>
                        <path d="M217.955498,31.2245978 C217.955498,34.338432 215.431733,36.8621975 212.317899,36.8621975 C209.204064,36.8621975 206.680299,34.338432 206.680299,31.2245978 C206.680299,28.1107635 209.204064,25.586998 212.317899,25.586998 C215.431733,25.586998 217.955498,28.1107635 217.955498,31.2245978" id="Fill-25" fill="#1967FF"></path>
                        <path d="M151.557102,93.8645947 C151.557102,97.3242017 148.752083,100.128594 145.293102,100.128594 C141.834121,100.128594 139.029102,97.3242017 139.029102,93.8645947 C139.029102,90.4049877 141.834121,87.600595 145.293102,87.600595 C148.752083,87.600595 151.557102,90.4049877 151.557102,93.8645947" id="Fill-27" fill="#1967FF"></path>
                    </g>
                    <g transform="translate(150.919997, 34.840000)">
                        <mask id="mask-3" fill="white">
                            <use xlink:href="#path-2"></use>
                        </mask>
                        <g id="Clip-20"></g>
                    </g>
                </g>
                <g id="编组-14" transform="translate(12.000000, 34.000000)">
                    <path d="M67.2330637,39.5909091 L67.2330637,15.6363636 C67.2330637,13.0763182 65.1390636,11 62.5554759,11 L19.6775878,11 C17.0947797,11 15,13.0763182 15,15.6363636 L15,40.3636364 C15,42.9244545 17.0947797,45 19.6775878,45 L66.4534658,45 L67.2330637,45 L70.9572032,45 C71.8841452,45 72.3487856,43.8888182 71.6931437,43.2389545 L67.2330637,39.5909091 Z" id="Fill-1" fill-opacity="0.31" fill="#1967FF" filter="url(#filter-4)"></path>
                    <path d="M67,37 L67,6 C67,2.687 64.314,0 61,0 L6,0 C2.687,0 -3.69482223e-13,2.687 -3.69482223e-13,6 L-3.69482223e-13,38 C-3.69482223e-13,41.314 2.687,44 6,44 L66,44 L67,44 L71.777,44 C72.966,44 73.562,42.562 72.721,41.721 L67,37 Z" id="Fill-1" fill="#1967FF"></path>
                    <path d="M209,94 L209,71 C209,67.687 206.314,65 203,65 L148,65 C144.687,65 142,67.687 142,71 L142,95 C142,98.314 144.687,101 148,101 L208,101 L209,101 L213.777,101 C214.966,101 215.562,99.562 214.721,98.721 L209,94 Z" id="Fill-1" fill="#E4E4E4" filter="url(#filter-5)" transform="translate(178.557304, 83.000000) scale(-1, -1) translate(-178.557304, -83.000000) "></path>
                    <path d="M209,90 L209,67 C209,63.687 206.314,61 203,61 L148,61 C144.687,61 142,63.687 142,67 L142,91 C142,94.314 144.687,97 148,97 L208,97 L209,97 L213.777,97 C214.966,97 215.562,95.562 214.721,94.721 L209,90 Z" id="Fill-1" fill="#FFFFFF" transform="translate(178.557304, 79.000000) scale(-1, -1) translate(-178.557304, -79.000000) "></path>
                </g>
                <g id="编组-13" transform="translate(4.000000, 0.000000)">
                    <path d="M9.69525,126.70125 L5.70125,130.69525 C5.31025,131.08625 4.67725,131.08625 4.28725,130.69525 L0.29325,126.70125 C-0.09775,126.31025 -0.09775,125.67825 0.29325,125.28725 L4.28725,121.29325 C4.67725,120.90225 5.31025,120.90225 5.70125,121.29325 L9.69525,125.28725 C10.08625,125.67825 10.08625,126.31025 9.69525,126.70125" id="Fill-9" fill="#BBD9FA"></path>
                    <path d="M58.18525,196.44525 L50.44625,204.18425 C50.05625,204.57525 49.42225,204.57525 49.03225,204.18425 L41.29325,196.44525 C40.90225,196.05525 40.90225,195.42225 41.29325,195.03125 L49.03225,187.29325 C49.42225,186.90225 50.05625,186.90225 50.44625,187.29325 L58.18525,195.03125 C58.57625,195.42225 58.57625,196.05525 58.18525,196.44525" id="Fill-11" fill="#FFBBD8"></path>
                    <rect id="矩形" fill="#C4D8FC" transform="translate(220.000000, 162.000000) rotate(-45.000000) translate(-220.000000, -162.000000) " x="213" y="155" width="14" height="14" rx="2"></rect>
                    <rect id="矩形" fill="#33C8CD" opacity="0.251697359" transform="translate(186.000000, 20.000000) rotate(-45.000000) translate(-186.000000, -20.000000) " x="172" y="6" width="28" height="28" rx="2"></rect>
                </g>
                <g id="编组-26" transform="translate(23.000000, 41.000000)">
                    <g id="编组-6" fill="#F8F9FA">
                        <rect id="矩形" x="0" y="0" width="46" height="4" rx="2"></rect>
                        <rect id="矩形备份-28" x="0" y="13" width="46" height="4" rx="2"></rect>
                        <rect id="矩形备份-29" x="0" y="26" width="28" height="4" rx="2"></rect>
                    </g>
                    <g id="编组-6" transform="translate(147.000000, 60.000000)" fill="#1967FF">
                        <rect id="矩形" x="0" y="0" width="46" height="4" rx="2"></rect>
                        <rect id="矩形备份-28" x="0" y="10" width="46" height="4" rx="2"></rect>
                        <rect id="矩形备份-29" x="0" y="20" width="28" height="4" rx="2"></rect>
                    </g>
                </g>
            </g>
        </g>
    </g>
</svg>