<?xml version="1.0" encoding="UTF-8"?>
<svg width="246px" height="246px" viewBox="0 0 246 246" version="1.1" xmlns="http://www.w3.org/2000/svg" xmlns:xlink="http://www.w3.org/1999/xlink">
    <title>Illustration/挂机</title>
    <defs>
        <filter x="-31.2%" y="-18.8%" width="162.5%" height="137.5%" filterUnits="objectBoundingBox" id="filter-1">
            <feGaussianBlur stdDeviation="10" in="SourceGraphic"></feGaussianBlur>
        </filter>
        <linearGradient x1="-53.6730002%" y1="-0.193747307%" x2="129.848445%" y2="90.1635031%" id="linearGradient-2">
            <stop stop-color="#494BF9" offset="0%"></stop>
            <stop stop-color="#A87BE9" offset="100%"></stop>
        </linearGradient>
        <filter x="-29.7%" y="-61.7%" width="159.4%" height="223.5%" filterUnits="objectBoundingBox" id="filter-3">
            <feGaussianBlur stdDeviation="10" in="SourceGraphic"></feGaussianBlur>
        </filter>
        <filter x="-43.5%" y="-214.3%" width="187.0%" height="528.6%" filterUnits="objectBoundingBox" id="filter-4">
            <feGaussianBlur stdDeviation="10" in="SourceGraphic"></feGaussianBlur>
        </filter>
        <filter x="-46.2%" y="-78.4%" width="192.3%" height="256.7%" filterUnits="objectBoundingBox" id="filter-5">
            <feGaussianBlur stdDeviation="10" in="SourceGraphic"></feGaussianBlur>
        </filter>
        <filter x="-136.4%" y="-136.4%" width="372.7%" height="372.7%" filterUnits="objectBoundingBox" id="filter-6">
            <feGaussianBlur stdDeviation="10" in="SourceGraphic"></feGaussianBlur>
        </filter>
    </defs>
    <g id="Illustration/挂机" stroke="none" stroke-width="1" fill="none" fill-rule="evenodd">
        <g id="挂机">
            <rect id="矩形" fill-opacity="0" fill="#D8D8D8" x="0" y="0" width="246" height="246"></rect>
            <g id="img_24hourillustration" transform="translate(17.000000, 17.000000)">
                <rect id="矩形" fill-opacity="0" fill="#D8D8D8" x="0" y="0" width="212" height="212"></rect>
                <g id="编组-30" transform="translate(0.000000, 3.000000)">
                    <rect id="矩形" fill="#E2ECF4" opacity="0.400000006" transform="translate(109.530483, 102.530483) rotate(-45.000000) translate(-109.530483, -102.530483) " x="37.0304833" y="30.0304833" width="145" height="145" rx="9"></rect>
                    <rect id="矩形" fill="#CED7E2" x="36" y="20" width="105" height="174" rx="14"></rect>
                    <rect id="矩形备份-25" fill="#CED7E2" opacity="0.300000012" filter="url(#filter-1)" x="40.5" y="41" width="96" height="160" rx="14"></rect>
                    <rect id="矩形" fill="#FFFFFF" x="41" y="26" width="96" height="162" rx="10"></rect>
                    <path d="M51,26 L127,26 C132.522847,26 137,30.4771525 137,36 L137,93 L137,93 L41,93 L41,36 C41,30.4771525 45.4771525,26 51,26 Z" id="矩形" fill="url(#linearGradient-2)"></path>
                    <path d="M115,122 L51,122 C49.896,122 49,121.104 49,120 L49,113 C49,111.896 49.896,111 51,111 L115,111 C116.105,111 117,111.896 117,113 L117,120 C117,121.104 116.105,122 115,122" id="Fill-19" fill="#E6EDF5"></path>
                    <path d="M93,140 L51,140 C49.896,140 49,139.104 49,138 L49,131 C49,129.896 49.896,129 51,129 L93,129 C94.105,129 95,129.896 95,131 L95,138 C95,139.104 94.105,140 93,140" id="Fill-21" fill="#E6EDF5"></path>
                    <rect id="矩形备份-34" fill="#E4E4E4" filter="url(#filter-3)" x="6" y="60.7" width="101" height="48.6" rx="7"></rect>
                    <rect id="矩形" fill="#FFFFFF" x="1.8189894e-12" y="46" width="120" height="54" rx="7"></rect>
                    <path d="M130,158 L88,158 C86.896,158 86,157.104 86,156 L86,149 C86,147.896 86.896,147 88,147 L130,147 C131.104,147 132,147.896 132,149 L132,156 C132,157.104 131.104,158 130,158" id="Fill-23" fill="#E6EDF5"></path>
                    <path d="M9.70641237,118.707814 L5.70781399,122.706412 C5.31636382,123.097863 4.68263503,123.097863 4.29218601,122.706412 L0.293587626,118.707814 C-0.0978625419,118.317365 -0.0978625419,117.683636 0.293587626,117.292186 L4.29218601,113.293588 C4.68263503,112.902137 5.31636382,112.902137 5.70781399,113.293588 L9.70641237,117.292186 C10.0978625,117.683636 10.0978625,118.317365 9.70641237,118.707814" id="Fill-41" fill="#BBD9FA"></path>
                    <path d="M24.7147782,141.188171 L17.1876448,148.714762 C16.8083217,149.095079 16.1916783,149.095079 15.8123552,148.714762 L8.28522184,141.188171 C7.90492605,140.807853 7.90492605,140.192147 8.28522184,139.811829 L15.8123552,132.285238 C16.1916783,131.904921 16.8083217,131.904921 17.1876448,132.285238 L24.7147782,139.811829 C25.0950739,140.192147 25.0950739,140.807853 24.7147782,141.188171" id="Fill-43" fill="#FFBBD8"></path>
                    <path d="M120.306937,185 L58.693063,185 C56.6530774,185 55,183.32357 55,181.254766 L55,174.745234 C55,172.67643 56.6530774,171 58.693063,171 L120.306937,171 C122.346923,171 124,172.67643 124,174.745234 L124,181.254766 C124,183.32357 122.346923,185 120.306937,185" id="Fill-45" fill-opacity="0.3" fill="#266EFD" filter="url(#filter-4)"></path>
                    <rect id="矩形" fill="#266EFD" x="49" y="164" width="83" height="17" rx="4"></rect>
                    <path d="M78.4909302,30 C79.3149176,30 79.9818603,30.672 79.9818603,31.5 C79.9818603,32.2802353 79.3910737,32.9205121 78.6346057,32.993139 L78.4909302,33 C77.6679367,33 77,32.329 77,31.5 C77,30.672 77.6679367,30 78.4909302,30 Z M99.5090698,30 C100.332063,30 101,30.672 101,31.5 C101,32.329 100.332063,33 99.5090698,33 L83.6058146,33 C82.7818272,33 82.1148845,32.329 82.1148845,31.5 C82.1148845,30.672 82.7818272,30 83.6058146,30 L99.5090698,30 Z" id="形状结合" fill="#FFFFFF"></path>
                    <rect id="矩形" fill="#266EFD" x="115" y="109" width="73" height="43" rx="7"></rect>
                    <rect id="矩形" fill="#266EFD" opacity="0.300000012" filter="url(#filter-5)" x="119" y="116.356164" width="65" height="38.2876712" rx="7"></rect>
                    <rect id="矩形" fill="#C4D8FC" transform="translate(174.899495, 195.899495) rotate(-45.000000) translate(-174.899495, -195.899495) " x="167.899495" y="188.899495" width="14" height="14" rx="2"></rect>
                    <rect id="矩形" fill="#33C8CD" opacity="0.251697359" transform="translate(174.798990, 60.798990) rotate(-45.000000) translate(-174.798990, -60.798990) " x="160.79899" y="46.7989899" width="28" height="28" rx="2"></rect>
                    <rect id="矩形" fill="#E4EBF3" x="48" y="60" width="65" height="3" rx="1.5"></rect>
                    <rect id="矩形备份-32" fill="#E4EBF3" x="48" y="71" width="65" height="3" rx="1.5"></rect>
                    <rect id="矩形备份-33" fill="#E4EBF3" x="48" y="82" width="41" height="3" rx="1.5"></rect>
                    <rect id="矩形" fill="#FFFFFF" x="128" y="118" width="47" height="3" rx="1.5"></rect>
                    <rect id="矩形备份-32" fill="#FFFFFF" x="128" y="129" width="47" height="3" rx="1.5"></rect>
                    <rect id="矩形备份-33" fill="#FFFFFF" x="145" y="140" width="30" height="3" rx="1.5"></rect>
                    <circle id="椭圆形" fill="#266EFD" cx="24" cy="72" r="15"></circle>
                    <path d="M24,62 C29.5228475,62 34,66.4771525 34,72 C34,77.5228475 29.5228475,82 24,82 C18.4771525,82 14,77.5228475 14,72 C14,66.4771525 18.4771525,62 24,62 Z M24,64 C19.581722,64 16,67.581722 16,72 C16,76.418278 19.581722,80 24,80 C28.418278,80 32,76.418278 32,72 C32,67.581722 28.418278,64 24,64 Z M23,67 C23.5128358,67 23.9355072,67.3860402 23.9932723,67.8833789 L24,68 L24,72 L27,72 C27.5128358,72 27.9355072,72.3860402 27.9932723,72.8833789 L28,73 C28,73.5128358 27.6139598,73.9355072 27.1166211,73.9932723 L27,74 L23,74 C22.4871642,74 22.0644928,73.6139598 22.0067277,73.1166211 L22,73 L22,68 C22,67.4477153 22.4477153,67 23,67 Z" id="形状结合" fill="#FFFFFF" fill-rule="nonzero"></path>
                    <rect id="矩形" fill="#33C7CD" x="122" y="9" width="30" height="30" rx="7"></rect>
                    <rect id="矩形" fill="#33C7CD" opacity="0.300000012" filter="url(#filter-6)" x="126" y="22" width="22" height="22" rx="7"></rect>
                    <g id="编组-32" transform="translate(127.000000, 14.000000)" fill="#FFFFFF" fill-rule="nonzero">
                        <path d="M10.404765,0.513414242 C10.6735479,0.450086781 10.9427766,0.616641317 11.006104,0.885424211 L11.006104,0.885424211 L11.4334816,2.69935712 L11.4717373,2.89244105 C11.606894,3.73119374 11.3457777,4.5901035 10.7572823,5.21306425 L10.7572823,5.21306425 L10.7190131,5.25781891 C10.5181245,5.51777299 10.5660065,5.89135983 10.8259605,6.09224847 L10.8259605,6.09224847 L10.997,6.22497592 L14.5,6.22585829 C18.0118106,6.22585829 20.8731506,9.0108545 20.995897,12.4927242 L21,12.7258583 C21,16.3157092 18.0898509,19.2258583 14.5,19.2258583 L14.5,19.2258583 L6.5,19.2258583 C2.91014913,19.2258583 0,16.3157092 0,12.7258583 C0,9.13600741 2.91014913,6.22585829 6.5,6.22585829 L6.5,6.22585829 L9.7136824,6.22635961 C9.50545452,5.71681977 9.56695131,5.11322408 9.92775022,4.64634277 C9.95994922,4.6046766 9.99419201,4.56463067 10.0303528,4.52635215 L10.0303528,4.52635215 L10.1341855,4.40590197 C10.4600771,3.99104579 10.5824225,3.44772549 10.4601326,2.92868615 L10.4601326,2.92868615 L10.0327551,1.11475323 L10.019985,1.02542548 C10.0077018,0.788683745 10.1658469,0.569705319 10.404765,0.513414242 Z M14.5,8.22585829 L6.5,8.22585829 C4.01471863,8.22585829 2,10.2405769 2,12.7258583 C2,15.2111397 4.01471863,17.2258583 6.5,17.2258583 L6.5,17.2258583 L14.5,17.2258583 C16.9852814,17.2258583 19,15.2111397 19,12.7258583 C19,10.2405769 16.9852814,8.22585829 14.5,8.22585829 L14.5,8.22585829 Z M7,9.72585829 C7.51283584,9.72585829 7.93550716,10.1118985 7.99327227,10.6092372 L8,10.7258583 L8,11.7249759 L9,11.7258583 C9.55228475,11.7258583 10,12.1735735 10,12.7258583 C10,13.2386941 9.61395981,13.6613654 9.11662113,13.7191306 L9,13.7258583 L8,13.7249759 L8,14.7258583 C8,15.278143 7.55228475,15.7258583 7,15.7258583 C6.48716416,15.7258583 6.06449284,15.3398181 6.00672773,14.8424794 L6,14.7258583 L6,13.7249759 L5,13.7258583 C4.44771525,13.7258583 4,13.278143 4,12.7258583 C4,12.2130224 4.38604019,11.7903511 4.88337887,11.732586 L5,11.7258583 L6,11.7249759 L6,10.7258583 C6,10.1735735 6.44771525,9.72585829 7,9.72585829 Z M15,13.2258583 C15.5522847,13.2258583 16,13.6735735 16,14.2258583 C16,14.778143 15.5522847,15.2258583 15,15.2258583 C14.4477153,15.2258583 14,14.778143 14,14.2258583 C14,13.6735735 14.4477153,13.2258583 15,13.2258583 Z M13,10.2258583 C13.5522847,10.2258583 14,10.6735735 14,11.2258583 C14,11.778143 13.5522847,12.2258583 13,12.2258583 C12.4477153,12.2258583 12,11.778143 12,11.2258583 C12,10.6735735 12.4477153,10.2258583 13,10.2258583 Z" id="形状结合"></path>
                    </g>
                </g>
            </g>
        </g>
    </g>
</svg>